<svg xmlns="http://www.w3.org/2000/svg" xmlns:xlink="http://www.w3.org/1999/xlink" xmlns:lucid="lucid" width="962.61" height="399.95"><g transform="translate(78.59738137267027 -290.82558069287404)" lucid:page-tab-id="0_0"><path d="M-77.07 460.36a6 6 0 0 1 6-6H76.4a6 6 0 0 1 6 6v83a6 6 0 0 1-6 6H-71.07a6 6 0 0 1-6-6z" stroke="#3a414a" stroke-width="2" fill="#fff"/><use xlink:href="#a" transform="matrix(1,0,0,1,-65.066110564989,466.36361925715437) translate(44.10677083333333 43.71527777777778)"/><path d="M-77.6 600.77a6 6 0 0 1 6-6h148a6 6 0 0 1 6 6v83a6 6 0 0 1-6 6h-148a6 6 0 0 1-6-6z" stroke="#3a414a" stroke-width="2" fill="#fff"/><use xlink:href="#b" transform="matrix(1,0,0,1,-65.59738137267027,606.7707030016804) translate(4.990017361111107 30.40277777777778)"/><use xlink:href="#c" transform="matrix(1,0,0,1,-65.59738137267027,606.7707030016804) translate(0.22927517361111427 57.290798611111114)"/><use xlink:href="#d" transform="matrix(1,0,0,1,-65.59738137267027,606.7707030016804) translate(86.2861328125 57.290798611111114)"/><path d="M490.8 460.36a6 6 0 0 1 6-6h147a6 6 0 0 1 6 6v83a6 6 0 0 1-6 6h-147a6 6 0 0 1-6-6z" stroke="#3a414a" stroke-width="2" fill="#fff"/><use xlink:href="#a" transform="matrix(1,0,0,1,502.8096327678702,466.36361925715437) translate(43.60677083333333 43.71527777777778)"/><path d="M2.4 593.27V572.2a.13.13 0 0 1 .14-.13.13.13 0 0 0 .13-.14v-5.18" stroke="#3a414a" fill="none"/><path d="M2.88 593.77h-.95v-.5h.95z" stroke="#3a414a" stroke-width=".05" fill="#3a414a"/><path d="M2.67 551.98l4.63 14.27h-9.27z" stroke="#3a414a" fill="#3a414a"/><path d="M83.9 501.86h68.15" stroke="#3a414a" fill="none"/><path d="M83.92 502.34h-.52v-.95h.52z" stroke="#3a414a" stroke-width=".05" fill="#3a414a"/><path d="M166.8 501.86l-14.25 4.64v-9.27z" stroke="#3a414a" fill="#3a414a"/><use xlink:href="#e" transform="matrix(1,0,0,1,118.10497920294905,476.35320259048774) translate(0 17.22222222222222)"/><path d="M367.9 460.36a6 6 0 0 1 6-6h68a6 6 0 0 1 6 6v83a6 6 0 0 1-6 6h-68a6 6 0 0 1-6-6z" fill="none"/><use xlink:href="#f" transform="matrix(1,0,0,1,367.88759621955046,454.36361925715437) translate(11.19140625 55.58376736111111)"/><path d="M169.43 460.36a6 6 0 0 1 6-6h146.72a6 6 0 0 1 6 6v83a6 6 0 0 1-6 6H175.43a6 6 0 0 1-6-6z" stroke="#3a414a" stroke-width="2" fill="#fff"/><use xlink:href="#a" transform="matrix(1,0,0,1,181.43233997088714,466.36361925715437) translate(43.60677083333333 43.71527777777778)"/><path d="M248.93 593.27v-21.13a.07.07 0 0 0-.07-.07.07.07 0 0 1-.07-.07v-5.25" stroke="#3a414a" fill="none"/><path d="M249.4 593.77h-.94v-.5h.95z" stroke="#3a414a" stroke-width=".05" fill="#3a414a"/><path d="M248.8 551.98l4.63 14.27h-9.27z" stroke="#3a414a" fill="#3a414a"/><path d="M329.65 501.86h21.85" stroke="#3a414a" fill="none"/><path d="M329.67 502.34h-.52v-.95h.52z" stroke="#3a414a" stroke-width=".05" fill="#3a414a"/><path d="M366.27 501.86L352 506.5v-9.27z" stroke="#3a414a" fill="#3a414a"/><path d="M169.43 600.77a6 6 0 0 1 6-6h147a6 6 0 0 1 6 6v83a6 6 0 0 1-6 6h-147a6 6 0 0 1-6-6z" stroke="#3a414a" stroke-width="2" fill="#fff"/><use xlink:href="#b" transform="matrix(1,0,0,1,181.43233997088714,606.7707030016804) translate(4.490017361111107 30.40277777777778)"/><use xlink:href="#c" transform="matrix(1,0,0,1,181.43233997088714,606.7707030016804) translate(21.30805121527778 57.290798611111114)"/><use xlink:href="#g" transform="matrix(1,0,0,1,181.43233997088714,606.7707030016804) translate(107.36490885416666 57.290798611111114)"/><path d="M490.94 600.77a6 6 0 0 1 6-6h147a6 6 0 0 1 6 6v83a6 6 0 0 1-6 6h-147a6 6 0 0 1-6-6z" stroke="#3a414a" stroke-width="2" fill="#fff"/><use xlink:href="#b" transform="matrix(1,0,0,1,502.9424504697904,606.7707030016804) translate(4.490017361111107 30.40277777777778)"/><use xlink:href="#c" transform="matrix(1,0,0,1,502.9424504697904,606.7707030016804) translate(15.33799913194445 57.290798611111114)"/><use xlink:href="#h" transform="matrix(1,0,0,1,502.9424504697904,606.7707030016804) translate(101.39485677083334 57.290798611111114)"/><path d="M570.44 593.27v-21.14a.07.07 0 0 0-.06-.06.07.07 0 0 1-.07-.07v-5.25" stroke="#3a414a" fill="none"/><path d="M570.92 593.77h-.95v-.5h.95z" stroke="#3a414a" stroke-width=".05" fill="#3a414a"/><path d="M570.3 551.98l4.65 14.27h-9.28z" stroke="#3a414a" fill="#3a414a"/><path d="M448.4 501.86h25.03" stroke="#3a414a" fill="none"/><path d="M448.4 502.34h-.5v-.95h.5z" stroke="#3a414a" stroke-width=".05" fill="#3a414a"/><path d="M488.2 501.86l-14.27 4.64v-9.27z" stroke="#3a414a" fill="#3a414a"/><path d="M570.3 452.86v-46" stroke="#3a414a" fill="none"/><path d="M570.8 453.36h-.96v-.5h.94z" stroke="#3a414a" stroke-width=".05" fill="#3a414a"/><path d="M570.3 392.08l4.65 14.27h-9.28z" stroke="#3a414a" fill="#3a414a"/><use xlink:href="#e" transform="matrix(1,0,0,1,578.3096327678702,411.16005335367333) translate(0 17.22222222222222)"/><path d="M490.8 300.47a6 6 0 0 1 6-6h147a6 6 0 0 1 6 6v83a6 6 0 0 1-6 6h-147a6 6 0 0 1-6-6z" stroke="#3a414a" stroke-width="2" fill="#fff"/><use xlink:href="#i" transform="matrix(1,0,0,1,502.8096327678702,306.46690411685887) translate(10.078125 21.52777777777778)"/><use xlink:href="#j" transform="matrix(1,0,0,1,502.8096327678702,306.46690411685887) translate(21.688368055555557 48.415798611111114)"/><use xlink:href="#k" transform="matrix(1,0,0,1,502.8096327678702,306.46690411685887) translate(49.83506944444444 48.415798611111114)"/><use xlink:href="#l" transform="matrix(1,0,0,1,502.8096327678702,306.46690411685887) translate(-1.25 75.30381944444446)"/><path d="M724 297.83a6 6 0 0 1 6-6h147a6 6 0 0 1 6 6v83a6 6 0 0 1-6 6H730a6 6 0 0 1-6-6z" stroke="#3a414a" stroke-width="2" fill="#fff"/><use xlink:href="#m" transform="matrix(1,0,0,1,736.0099841703063,303.82558069287404) translate(12.861328125 43.71527777777778)"/><path d="M651.3 341.97h55.33" stroke="#3a414a" fill="none"/><path d="M651.32 342.44h-.5v-.95h.5z" stroke="#3a414a" stroke-width=".05" fill="#3a414a"/><path d="M721.4 341.97l-14.27 4.63v-9.27z" stroke="#3a414a" fill="#3a414a"/><path d="M369.22 600.77a6 6 0 0 1 6-6h68a6 6 0 0 1 6 6v83a6 6 0 0 1-6 6h-68a6 6 0 0 1-6-6z" fill="none"/><g><use xlink:href="#f" transform="matrix(1,0,0,1,369.2157732387536,594.7707030016804) translate(11.19140625 55.58376736111111)"/></g><path d="M260 300.47a6 6 0 0 1 6-6h147.47a6 6 0 0 1 6 6v83a6 6 0 0 1-6 6H266a6 6 0 0 1-6-6z" fill="#fff"/><path d="M285.66 294.47h19.66m9.84 0h19.66m9.83 0h19.66m9.84 0h19.67m9.84 0h9.83a6 6 0 0 1 6 6v9.22m0 9.2v18.46m0 9.22v18.44m0 9.23v9.22a6 6 0 0 1-6 6h-9.83m-9.83 0h-19.66m-9.83 0h-19.65m-9.83 0h-19.66m-9.84 0h-19.66m-9.83 0H266a6 6 0 0 1-6-6v-9.23m0-9.22v-18.44m0-9.22V318.9m0-9.2v-9.23a6 6 0 0 1 6-6h9.83" stroke="#3a414a" stroke-width="2" fill="none"/><g><use xlink:href="#n" transform="matrix(1,0,0,1,272,306.46690411685887) translate(29.29014756944445 30.40277777777778)"/><use xlink:href="#o" transform="matrix(1,0,0,1,272,306.46690411685887) translate(22.161241319444443 57.290798611111114)"/></g><path d="M420.97 341.97h52.47" stroke="#3a414a" fill="none"/><path d="M420.98 342.44h-.5v-.95h.5z" stroke="#3a414a" stroke-width=".05" fill="#3a414a"/><path d="M488.2 341.97l-14.27 4.63v-9.27z" stroke="#3a414a" fill="#3a414a"/><defs><path d="M180 0v-1490h510c348 0 508 194 508 460 0 198-88 351-276 417L1256 0h-220L726-579c-117 2-238 0-356 1V0H180zm190-747h312c235 0 327-108 327-283 0-177-92-293-329-293H370v576" id="p"/><path d="M180 0v-1490h224l606 953c40 63 108 177 176 312-27-437-7-821-13-1265h190V0h-226C860-448 622-778 356-1262c27 476 11 792 15 1262H180" id="q"/><g id="a"><use transform="matrix(0.010850694444444444,0,0,0.010850694444444444,0,0)" xlink:href="#p"/><use transform="matrix(0.010850694444444444,0,0,0.010850694444444444,14.301215277777777,0)" xlink:href="#q"/><use transform="matrix(0.010850694444444444,0,0,0.010850694444444444,31.04383680555556,0)" xlink:href="#q"/></g><path d="M784 20c-382 0-662-292-662-764 0-473 280-766 662-766s660 293 660 766c0 472-278 764-660 764zm0-176c266 0 475-207 475-588 0-383-209-590-475-590-268 0-477 208-477 590 0 380 209 588 477 588" id="r"/><path d="M657 26c-323 0-524-166-541-416h195c15 169 171 246 346 246 202 0 356-106 356-265 5-203-294-238-475-293-239-73-380-191-380-389 0-252 224-419 512-419 294 0 499 171 508 396H992c-17-145-151-228-328-228-193 0-321 102-321 242 0 156 175 211 284 241l149 41c160 44 422 134 422 412 0 244-197 432-541 432" id="s"/><path d="M52 0l541-1490h220L1361 0h-200l-149-416H398L254 0H52zm404-582h497c-103-290-145-390-251-756-108 377-145 460-246 756" id="t"/><path d="M645 0H180v-1490h484c435 0 692 280 692 742 0 466-257 748-711 748zM370-168h263c363 0 539-218 539-580 0-358-176-574-521-574H370v1154" id="u"/><path d="M130 0v-134l666-991c45-67 96-135 147-202-269 9-546 3-821 5v-168h1036v136L502-379c-49 72-103 145-157 216 268-9 546-3 821-5V0H130" id="v"/><path d="M180 0v-1490h908v168H370v486h669v168H370v500h727V0H180" id="w"/><path d="M370-1490V0H180v-1490h190" id="x"/><g id="b"><use transform="matrix(0.010850694444444444,0,0,0.010850694444444444,0,0)" xlink:href="#r"/><use transform="matrix(0.010850694444444444,0,0,0.010850694444444444,16.9921875,0)" xlink:href="#s"/><use transform="matrix(0.010850694444444444,0,0,0.010850694444444444,31.25,0)" xlink:href="#t"/><use transform="matrix(0.010850694444444444,0,0,0.010850694444444444,46.58203125,0)" xlink:href="#u"/><use transform="matrix(0.010850694444444444,0,0,0.010850694444444444,62.619357638888886,0)" xlink:href="#v"/><use transform="matrix(0.010850694444444444,0,0,0.010850694444444444,76.59505208333333,0)" xlink:href="#w"/><use transform="matrix(0.010850694444444444,0,0,0.010850694444444444,89.95225694444444,0)" xlink:href="#q"/><use transform="matrix(0.010850694444444444,0,0,0.010850694444444444,106.69487847222224,0)" xlink:href="#x"/><use transform="matrix(0.010850694444444444,0,0,0.010850694444444444,112.66276041666666,0)" xlink:href="#w"/></g><path d="M240 0v-621L50-511v-189l190-110v-680h190v571l365-211v189L430-730v562h690V0H240" id="y"/><path d="M458 0L52-1490h194c108 439 233 855 324 1313 92-459 221-873 331-1313h216c110 438 234 854 330 1307 92-455 216-869 323-1307h196L1558 0h-221l-256-944c-26-95-50-200-73-331-22 122-44 223-73 331L680 0H458" id="z"/><g id="c"><use transform="matrix(0.010850694444444444,0,0,0.010850694444444444,0,0)" xlink:href="#s"/><use transform="matrix(0.010850694444444444,0,0,0.010850694444444444,14.2578125,0)" xlink:href="#y"/><use transform="matrix(0.010850694444444444,0,0,0.010850694444444444,26.844618055555554,0)" xlink:href="#r"/><use transform="matrix(0.010850694444444444,0,0,0.010850694444444444,43.83680555555556,0)" xlink:href="#z"/><use transform="matrix(0.010850694444444444,0,0,0.010850694444444444,64.47482638888889,0)" xlink:href="#t"/></g><path d="M98-1322v-168h1126v168H757V0H567v-1322H98" id="A"/><g id="d"><use transform="matrix(0.00759548611111111,0,0,0.00759548611111111,0,-7.534722222222221)" xlink:href="#s"/><use transform="matrix(0.00759548611111111,0,0,0.00759548611111111,9.980468749999998,-7.534722222222221)" xlink:href="#A"/><use transform="matrix(0.00759548611111111,0,0,0.00759548611111111,18.70008680555555,-7.534722222222221)" xlink:href="#t"/><use transform="matrix(0.00759548611111111,0,0,0.00759548611111111,29.43250868055555,-7.534722222222221)" xlink:href="#p"/><use transform="matrix(0.00759548611111111,0,0,0.00759548611111111,39.44335937499999,-7.534722222222221)" xlink:href="#A"/></g><path d="M428-647V0H128v-1490h294v586c65-146 175-228 341-228 232 0 385 159 385 421V0H847v-659c0-139-76-222-202-222-128 0-217 86-217 234" id="B"/><path d="M683-1118v229H474v562c0 71 29 104 102 104 23 0 73-7 95-13l43 225C647 9 580 16 520 16 296 16 174-96 174-301v-588H20v-229h154v-266h300v266h209" id="C"/><g id="e"><use transform="matrix(0.008680555555555556,0,0,0.008680555555555556,0,0)" xlink:href="#B"/><use transform="matrix(0.006076388888888889,0,0,0.006076388888888889,11.067708333333334,3.013888888888889)" xlink:href="#C"/></g><path d="M295 13c-75 0-135-60-135-135s60-135 135-135 135 60 135 135S370 13 295 13" id="D"/><g id="f"><use transform="matrix(0.010850694444444444,0,0,0.010850694444444444,0,0)" xlink:href="#D"/><use transform="matrix(0.010850694444444444,0,0,0.010850694444444444,6.401909722222222,0)" xlink:href="#D"/><use transform="matrix(0.010850694444444444,0,0,0.010850694444444444,12.803819444444445,0)" xlink:href="#D"/><use transform="matrix(0.010850694444444444,0,0,0.010850694444444444,19.205729166666668,0)" xlink:href="#D"/><use transform="matrix(0.010850694444444444,0,0,0.010850694444444444,25.60763888888889,0)" xlink:href="#D"/><use transform="matrix(0.010850694444444444,0,0,0.010850694444444444,32.009548611111114,0)" xlink:href="#D"/><use transform="matrix(0.010850694444444444,0,0,0.010850694444444444,38.411458333333336,0)" xlink:href="#D"/><use transform="matrix(0.010850694444444444,0,0,0.010850694444444444,44.81336805555556,0)" xlink:href="#D"/><use transform="matrix(0.010850694444444444,0,0,0.010850694444444444,51.21527777777778,0)" xlink:href="#D"/></g><path d="M653-1490V0H466v-1314h-10L96-1047v-204l324-239h233" id="E"/><use transform="matrix(0.00759548611111111,0,0,0.00759548611111111,0,3.7673611111111107)" xlink:href="#E" id="g"/><path d="M598-1118v154H368v674c0 100 37 144 132 144 23 0 62-6 92-12L629-6c-37 13-88 20-134 20-193 0-307-107-307-290v-688H20v-154h168v-266h180v266h230" id="F"/><path d="M798-719v166H144v-166h654" id="G"/><g id="h"><use transform="matrix(0.00759548611111111,0,0,0.00759548611111111,0,3.7673611111111107)" xlink:href="#F"/><use transform="matrix(0.00759548611111111,0,0,0.00759548611111111,4.785156249999999,3.7673611111111107)" xlink:href="#G"/><use transform="matrix(0.00759548611111111,0,0,0.00759548611111111,11.940104166666664,3.7673611111111107)" xlink:href="#E"/></g><g id="i"><use transform="matrix(0.010850694444444444,0,0,0.010850694444444444,0,0)" xlink:href="#z"/><use transform="matrix(0.010850694444444444,0,0,0.010850694444444444,20.638020833333332,0)" xlink:href="#t"/><use transform="matrix(0.010850694444444444,0,0,0.010850694444444444,35.97005208333333,0)" xlink:href="#p"/><use transform="matrix(0.010850694444444444,0,0,0.010850694444444444,50.27126736111111,0)" xlink:href="#s"/><use transform="matrix(0.010850694444444444,0,0,0.010850694444444444,64.52907986111111,0)" xlink:href="#A"/><use transform="matrix(0.010850694444444444,0,0,0.010850694444444444,78.87369791666667,0)" xlink:href="#z"/><use transform="matrix(0.010850694444444444,0,0,0.010850694444444444,99.51171875,0)" xlink:href="#t"/></g><use transform="matrix(0.010850694444444444,0,0,0.010850694444444444,0,0)" xlink:href="#z" id="j"/><path d="M180 0v-1490h510c348 0 508 209 508 474 0 266-160 477-507 477H370V0H180zm190-706h312c236 0 327-133 327-310 0-176-91-307-329-307H370v617" id="H"/><g id="k"><use transform="matrix(0.010850694444444444,0,0,0.010850694444444444,0,0)" xlink:href="#H"/><use transform="matrix(0.010850694444444444,0,0,0.010850694444444444,14.192708333333332,0)" xlink:href="#w"/><use transform="matrix(0.010850694444444444,0,0,0.010850694444444444,27.549913194444443,0)" xlink:href="#y"/><use transform="matrix(0.010850694444444444,0,0,0.010850694444444444,40.76605902777777,0)" xlink:href="#q"/><use transform="matrix(0.010850694444444444,0,0,0.010850694444444444,57.50868055555555,0)" xlink:href="#x"/></g><path d="M52 0l541-1490h220L1361 0c-91 65-167 123-167 206 0 49 27 79 83 79 37 0 67-13 92-28l60 129c-40 23-100 50-181 50-130 0-237-69-237-194 0-92 58-175 150-243l-149-415H398L254 0H52zm404-582h497c-103-290-145-390-251-756-108 377-145 460-246 756" id="I"/><path d="M783 20c-382 0-661-292-661-764 0-473 279-766 661-766 302 0 548 182 601 489h-190c-42-204-217-313-411-313-268 0-476 208-476 590 0 381 209 588 476 588 195 0 369-110 411-313h190c-52 303-296 489-601 489" id="J"/><g id="l"><use transform="matrix(0.010850694444444444,0,0,0.010850694444444444,0,0)" xlink:href="#H"/><use transform="matrix(0.010850694444444444,0,0,0.010850694444444444,14.192708333333332,0)" xlink:href="#r"/><use transform="matrix(0.010850694444444444,0,0,0.010850694444444444,31.184895833333332,0)" xlink:href="#y"/><use transform="matrix(0.010850694444444444,0,0,0.010850694444444444,44.401041666666664,0)" xlink:href="#I"/><use transform="matrix(0.010850694444444444,0,0,0.010850694444444444,58.97352430555555,0)" xlink:href="#J"/><use transform="matrix(0.010850694444444444,0,0,0.010850694444444444,75.20616319444444,0)" xlink:href="#v"/><use transform="matrix(0.010850694444444444,0,0,0.010850694444444444,88.43315972222221,0)" xlink:href="#r"/><use transform="matrix(0.010850694444444444,0,0,0.010850694444444444,105.42534722222221,0)" xlink:href="#q"/><use transform="matrix(0.010850694444444444,0,0,0.010850694444444444,122.16796875,0)" xlink:href="#t"/></g><path d="M180 0v-1490h901v168H370v510h643v168H370V0H180" id="K"/><path d="M180 0v-1490h270l367 940c28 72 75 218 110 339 35-117 81-264 110-339l362-940h271V0h-187c2-448-5-837 7-1287-157 497-311 829-483 1287H842C666-458 514-784 354-1284c12 438 5 843 7 1284H180" id="L"/><path d="M57 0l534-763-501-727h220c122 187 296 416 391 605 94-191 272-419 396-605h215L811-770 1340 0h-219C986-204 811-426 699-640 588-430 407-202 273 0H57" id="M"/><g id="m"><use transform="matrix(0.010850694444444444,0,0,0.010850694444444444,0,0)" xlink:href="#s"/><use transform="matrix(0.010850694444444444,0,0,0.010850694444444444,14.2578125,0)" xlink:href="#r"/><use transform="matrix(0.010850694444444444,0,0,0.010850694444444444,31.25,0)" xlink:href="#K"/><use transform="matrix(0.010850694444444444,0,0,0.010850694444444444,44.36848958333333,0)" xlink:href="#A"/><use transform="matrix(0.010850694444444444,0,0,0.010850694444444444,58.713107638888886,0)" xlink:href="#L"/><use transform="matrix(0.010850694444444444,0,0,0.010850694444444444,78.78689236111111,0)" xlink:href="#t"/><use transform="matrix(0.010850694444444444,0,0,0.010850694444444444,94.11892361111111,0)" xlink:href="#M"/></g><path d="M180 0v-1490h190v644h782v-644h190V0h-190v-678H370V0H180" id="N"/><path d="M600 0v-610L52-1490h220l295 481c50 82 90 150 130 243 40-96 80-164 128-243l294-481h219L790-610V0H600" id="O"/><g id="n"><use transform="matrix(0.010850694444444444,0,0,0.010850694444444444,0,0)" xlink:href="#J"/><use transform="matrix(0.010850694444444444,0,0,0.010850694444444444,16.23263888888889,0)" xlink:href="#w"/><use transform="matrix(0.010850694444444444,0,0,0.010850694444444444,29.58984375,0)" xlink:href="#J"/><use transform="matrix(0.010850694444444444,0,0,0.010850694444444444,45.822482638888886,0)" xlink:href="#N"/><use transform="matrix(0.010850694444444444,0,0,0.010850694444444444,62.33723958333333,0)" xlink:href="#O"/></g><path d="M180 0v-1490h528c311 0 458 177 458 395 0 191-114 278-244 313v14c139 9 302 137 302 371 0 225-148 397-499 397H180zm190-168h350c232 0 321-102 321-231 0-149-120-277-311-277H370v508zm0-668h328c160 0 286-101 286-255 0-129-87-231-280-231H370v486" id="P"/><path d="M763 24c-353 0-583-224-583-531v-983h190v968c0 214 149 370 393 370 243 0 391-156 391-370v-968h190v983c0 307-230 531-581 531" id="Q"/><g id="o"><use transform="matrix(0.010850694444444444,0,0,0.010850694444444444,0,0)" xlink:href="#r"/><use transform="matrix(0.010850694444444444,0,0,0.010850694444444444,16.9921875,0)" xlink:href="#P"/><use transform="matrix(0.010850694444444444,0,0,0.010850694444444444,31.53211805555556,0)" xlink:href="#p"/><use transform="matrix(0.010850694444444444,0,0,0.010850694444444444,45.83333333333333,0)" xlink:href="#t"/><use transform="matrix(0.010850694444444444,0,0,0.010850694444444444,61.16536458333333,0)" xlink:href="#v"/><use transform="matrix(0.010850694444444444,0,0,0.010850694444444444,75.14105902777779,0)" xlink:href="#Q"/></g></defs></g></svg>