<svg xmlns="http://www.w3.org/2000/svg" xmlns:xlink="http://www.w3.org/1999/xlink" xmlns:lucid="lucid" width="1355.59" height="234.6"><g transform="translate(440.6328177019203 -2010.1665185253241)" lucid:page-tab-id="0_0"><path d="M-219.23 2020.24a6 6 0 0 1 6-6h147a6 6 0 0 1 6 6v83a6 6 0 0 1-6 6h-147a6 6 0 0 1-6-6z" stroke="#3a414a" stroke-width="2" fill="#fff"/><use xlink:href="#a" transform="matrix(1,0,0,1,-207.23436459615937,2026.242533119735) translate(43.51851851851852 39.96527777777778)"/><path d="M-439.63 2020.24a6 6 0 0 1 6-6h147a6 6 0 0 1 6 6v83a6 6 0 0 1-6 6h-147a6 6 0 0 1-6-6z" fill="#fff"/><path d="M-414.03 2014.24h19.6m9.8 0h19.6m9.8 0h19.6m9.8 0h19.6m9.8 0h9.8a6 6 0 0 1 6 6v9.22m0 9.23v18.43m0 9.22v18.45m0 9.22v9.22a6 6 0 0 1-6 6h-9.8m-9.8 0h-19.6m-9.8 0h-19.6m-9.8 0h-19.6m-9.8 0h-19.6m-9.8 0h-9.8a6 6 0 0 1-6-6v-9.22m0-9.22v-18.45m0-9.22v-18.44m0-9.24v-9.22a6 6 0 0 1 6-6h9.8" stroke="#3a414a" stroke-width="2" fill="none"/><use xlink:href="#b" transform="matrix(1,0,0,1,-427.6328177019203,2026.242533119735) translate(28.91975308641976 26.65277777777778)"/><use xlink:href="#c" transform="matrix(1,0,0,1,-427.6328177019203,2026.242533119735) translate(21.296296296296298 53.31944444444445)"/><path d="M-219.23 2154.76a6 6 0 0 1 6-6h147a6 6 0 0 1 6 6v83a6 6 0 0 1-6 6h-147a6 6 0 0 1-6-6z" stroke="#3a414a" stroke-width="2" fill="#fff"/><use xlink:href="#d" transform="matrix(1,0,0,1,-207.23436459615937,2160.7629658294177) translate(3.3950617283950777 26.65277777777778)"/><use xlink:href="#e" transform="matrix(1,0,0,1,-207.23436459615937,2160.7629658294177) translate(0.6450617283950635 53.31944444444445)"/><use xlink:href="#f" transform="matrix(1,0,0,1,-207.23436459615937,2160.7629658294177) translate(84.96604938271604 53.31944444444445)"/><path d="M320 2020.24a6 6 0 0 1 6-6h147a6 6 0 0 1 6 6v83a6 6 0 0 1-6 6H326a6 6 0 0 1-6-6z" stroke="#3a414a" stroke-width="2" fill="#fff"/><use xlink:href="#a" transform="matrix(1,0,0,1,332,2026.242533119735) translate(43.51851851851852 39.96527777777778)"/><path d="M-279.13 2061.74h42.5" stroke="#3a414a" fill="none"/><path d="M-279.12 2062.22h-.5v-.95h.5z" stroke="#3a414a" stroke-width=".05" fill="#3a414a"/><path d="M-221.85 2061.74l-14.27 4.64v-9.27z" stroke="#3a414a" fill="#3a414a"/><use xlink:href="#g" transform="matrix(1,0,0,1,-266.97731537028415,2036.4091997864016) translate(0 14.222222222222223)"/><path d="M-139.73 2147.26v-20.63" stroke="#3a414a" fill="none"/><path d="M-139.26 2147.76h-.95v-.5h.94z" stroke="#3a414a" stroke-width=".05" fill="#3a414a"/><path d="M-139.73 2111.86l4.63 14.27h-9.27z" stroke="#3a414a" fill="#3a414a"/><path d="M-58.73 2061.74h42.5" stroke="#3a414a" fill="none"/><path d="M-58.72 2062.22h-.5v-.95h.5z" stroke="#3a414a" stroke-width=".05" fill="#3a414a"/><path d="M-1.45 2061.74l-14.27 4.64v-9.27z" stroke="#3a414a" fill="#3a414a"/><use xlink:href="#h" transform="matrix(1,0,0,1,-36.99933557414308,2036.4091997864016) translate(0 14.222222222222223)"/><path d="M1.16 2020.24a6 6 0 0 1 6-6h147a6 6 0 0 1 6 6v83a6 6 0 0 1-6 6h-147a6 6 0 0 1-6-6z" stroke="#3a414a" stroke-width="2" fill="#fff"/><use xlink:href="#a" transform="matrix(1,0,0,1,13.164088509601584,2026.242533119735) translate(43.51851851851852 39.96527777777778)"/><path d="M81.06 2147.26v-18.06a.2.2 0 0 0-.2-.2.2.2 0 0 1-.2-.2v-2.17" stroke="#3a414a" fill="none"/><path d="M81.54 2147.76h-.95v-.5h.94z" stroke="#3a414a" stroke-width=".05" fill="#3a414a"/><path d="M80.66 2111.86l4.64 14.27h-9.27z" stroke="#3a414a" fill="#3a414a"/><path d="M1.56 2154.76a6 6 0 0 1 6-6h147a6 6 0 0 1 6 6v83a6 6 0 0 1-6 6h-147a6 6 0 0 1-6-6z" stroke="#3a414a" stroke-width="2" fill="#fff"/><use xlink:href="#d" transform="matrix(1,0,0,1,13.562541615362534,2160.7629658294177) translate(3.3950617283950777 26.65277777777778)"/><use xlink:href="#e" transform="matrix(1,0,0,1,13.562541615362534,2160.7629658294177) translate(21.018518518518526 53.31944444444445)"/><use xlink:href="#i" transform="matrix(1,0,0,1,13.562541615362534,2160.7629658294177) translate(105.33950617283949 53.31944444444445)"/><path d="M320.27 2154.76a6 6 0 0 1 6-6h147a6 6 0 0 1 6 6v83a6 6 0 0 1-6 6h-147a6 6 0 0 1-6-6z" stroke="#3a414a" stroke-width="2" fill="#fff"/><use xlink:href="#d" transform="matrix(1,0,0,1,332.26563540384063,2160.7629658294177) translate(3.3950617283950777 26.65277777777778)"/><use xlink:href="#e" transform="matrix(1,0,0,1,332.26563540384063,2160.7629658294177) translate(16.287037037037045 53.31944444444445)"/><use xlink:href="#j" transform="matrix(1,0,0,1,332.26563540384063,2160.7629658294177) translate(100.60802469135803 53.31944444444445)"/><path d="M399.77 2147.26v-18.12a.13.13 0 0 0-.14-.14.13.13 0 0 1-.13-.13v-2.24" stroke="#3a414a" fill="none"/><path d="M400.24 2147.76h-.95v-.5h.94z" stroke="#3a414a" stroke-width=".05" fill="#3a414a"/><path d="M399.5 2111.86l4.63 14.27h-9.26z" stroke="#3a414a" fill="#3a414a"/><path d="M480.5 2061.74h39.73" stroke="#3a414a" fill="none"/><path d="M480.5 2062.22h-.5v-.95h.5z" stroke="#3a414a" stroke-width=".05" fill="#3a414a"/><path d="M535 2061.74l-14.27 4.64v-9.27z" stroke="#3a414a" fill="#3a414a"/><use xlink:href="#h" transform="matrix(1,0,0,1,500.8404431518529,2036.4091997864016) translate(0 14.222222222222223)"/><path d="M537.6 2020.24a6 6 0 0 1 6-6h147a6 6 0 0 1 6 6v83a6 6 0 0 1-6 6h-147a6 6 0 0 1-6-6z" stroke="#3a414a" stroke-width="2" fill="#fff"/><use xlink:href="#k" transform="matrix(1,0,0,1,549.6092813654343,2026.242533119735) translate(11.018518518518526 17.77777777777778)"/><use xlink:href="#l" transform="matrix(1,0,0,1,549.6092813654343,2026.242533119735) translate(21.882716049382722 44.44444444444444)"/><use xlink:href="#m" transform="matrix(1,0,0,1,549.6092813654343,2026.242533119735) translate(48.98148148148148 44.44444444444444)"/><use xlink:href="#n" transform="matrix(1,0,0,1,549.6092813654343,2026.242533119735) translate(-0.308641975308646 71.11111111111111)"/><path d="M754.95 2017.17a6 6 0 0 1 6-6h147a6 6 0 0 1 6 6v83a6 6 0 0 1-6 6h-147a6 6 0 0 1-6-6z" stroke="#3a414a" stroke-width="2" fill="#fff"/><use xlink:href="#o" transform="matrix(1,0,0,1,766.952927327028,2023.1665185253241) translate(13.8888888888889 39.96527777777778)"/><path d="M698.1 2058.55h27.63a.06.06 0 0 1 .05.06.06.06 0 0 0 .06.07h11.73" stroke="#3a414a" fill="none"/><path d="M698.12 2059.03h-.5v-.95h.5z" stroke="#3a414a" stroke-width=".05" fill="#3a414a"/><path d="M752.34 2058.67l-14.27 4.63v-9.27z" stroke="#3a414a" fill="#3a414a"/><path d="M162.1 2154.76a6 6 0 0 1 6-6h147a6 6 0 0 1 6 6v83a6 6 0 0 1-6 6h-147a6 6 0 0 1-6-6z" fill="none"/><g><use xlink:href="#p" transform="matrix(1,0,0,1,162.0938124230438,2148.7629658294177) translate(51.722222222222214 51.94444444444444)"/></g><path d="M180.63 2020.24a6 6 0 0 1 6-6h68a6 6 0 0 1 6 6v83a6 6 0 0 1-6 6h-68a6 6 0 0 1-6-6z" fill="none"/><g><use xlink:href="#p" transform="matrix(1,0,0,1,180.6327691488843,2014.242533119735) translate(12.222222222222218 51.94444444444444)"/></g><path d="M261.13 2061.74h25.04" stroke="#3a414a" fill="none"/><path d="M261.15 2062.22h-.52v-.95h.52z" stroke="#3a414a" stroke-width=".05" fill="#3a414a"/><path d="M300.94 2061.74l-14.27 4.64v-9.27z" stroke="#3a414a" fill="#3a414a"/><defs><path d="M233-177c-1 41-23 64-60 70L243 0h-38l-65-103H63V0H30v-248c88 3 205-21 203 71zM63-129c60-2 137 13 137-47 0-61-80-42-137-45v92" id="q"/><path d="M190 0L58-211 59 0H30v-248h39L202-35l-2-213h31V0h-41" id="r"/><g id="a"><use transform="matrix(0.06172839506172839,0,0,0.06172839506172839,0,0)" xlink:href="#q"/><use transform="matrix(0.06172839506172839,0,0,0.06172839506172839,15.987654320987653,0)" xlink:href="#r"/><use transform="matrix(0.06172839506172839,0,0,0.06172839506172839,31.975308641975307,0)" xlink:href="#r"/></g><path d="M212-179c-10-28-35-45-73-45-59 0-87 40-87 99 0 60 29 101 89 101 43 0 62-24 78-52l27 14C228-24 195 4 139 4 59 4 22-46 18-125c-6-104 99-153 187-111 19 9 31 26 39 46" id="s"/><path d="M30 0v-248h187v28H63v79h144v27H63v87h162V0H30" id="t"/><path d="M197 0v-115H63V0H30v-248h33v105h134v-105h34V0h-34" id="u"/><path d="M137-103V0h-34v-103L8-248h37l75 118 75-118h37" id="v"/><g id="b"><use transform="matrix(0.06172839506172839,0,0,0.06172839506172839,0,0)" xlink:href="#s"/><use transform="matrix(0.06172839506172839,0,0,0.06172839506172839,15.987654320987653,0)" xlink:href="#t"/><use transform="matrix(0.06172839506172839,0,0,0.06172839506172839,30.80246913580247,0)" xlink:href="#s"/><use transform="matrix(0.06172839506172839,0,0,0.06172839506172839,46.79012345679012,0)" xlink:href="#u"/><use transform="matrix(0.06172839506172839,0,0,0.06172839506172839,62.77777777777777,0)" xlink:href="#v"/></g><path d="M140-251c81 0 123 46 123 126C263-46 219 4 140 4 59 4 17-45 17-125s42-126 123-126zm0 227c63 0 89-41 89-101s-29-99-89-99c-61 0-89 39-89 99S79-25 140-24" id="w"/><path d="M160-131c35 5 61 23 61 61C221 17 115-2 30 0v-248c76 3 177-17 177 60 0 33-19 50-47 57zm-97-11c50-1 110 9 110-42 0-47-63-36-110-37v79zm0 115c55-2 124 14 124-45 0-56-70-42-124-44v89" id="x"/><path d="M205 0l-28-72H64L36 0H1l101-248h38L239 0h-34zm-38-99l-47-123c-12 45-31 82-46 123h93" id="y"/><path d="M209 0H11v-25l151-195H24v-28h176v25L50-27h159V0" id="z"/><path d="M232-93c-1 65-40 97-104 97C67 4 28-28 28-90v-158h33c8 89-33 224 67 224 102 0 64-133 71-224h33v155" id="A"/><g id="c"><use transform="matrix(0.06172839506172839,0,0,0.06172839506172839,0,0)" xlink:href="#w"/><use transform="matrix(0.06172839506172839,0,0,0.06172839506172839,17.28395061728395,0)" xlink:href="#x"/><use transform="matrix(0.06172839506172839,0,0,0.06172839506172839,32.09876543209876,0)" xlink:href="#q"/><use transform="matrix(0.06172839506172839,0,0,0.06172839506172839,48.08641975308641,0)" xlink:href="#y"/><use transform="matrix(0.06172839506172839,0,0,0.06172839506172839,62.90123456790123,0)" xlink:href="#z"/><use transform="matrix(0.06172839506172839,0,0,0.06172839506172839,76.41975308641975,0)" xlink:href="#A"/></g><path d="M185-189c-5-48-123-54-124 2 14 75 158 14 163 119 3 78-121 87-175 55-17-10-28-26-33-46l33-7c5 56 141 63 141-1 0-78-155-14-162-118-5-82 145-84 179-34 5 7 8 16 11 25" id="B"/><path d="M30-248c118-7 216 8 213 122C240-48 200 0 122 0H30v-248zM63-27c89 8 146-16 146-99s-60-101-146-95v194" id="C"/><path d="M33 0v-248h34V0H33" id="D"/><g id="d"><use transform="matrix(0.06172839506172839,0,0,0.06172839506172839,0,0)" xlink:href="#w"/><use transform="matrix(0.06172839506172839,0,0,0.06172839506172839,17.28395061728395,0)" xlink:href="#B"/><use transform="matrix(0.06172839506172839,0,0,0.06172839506172839,32.09876543209876,0)" xlink:href="#y"/><use transform="matrix(0.06172839506172839,0,0,0.06172839506172839,46.91358024691357,0)" xlink:href="#C"/><use transform="matrix(0.06172839506172839,0,0,0.06172839506172839,62.90123456790122,0)" xlink:href="#z"/><use transform="matrix(0.06172839506172839,0,0,0.06172839506172839,76.41975308641973,0)" xlink:href="#t"/><use transform="matrix(0.06172839506172839,0,0,0.06172839506172839,91.23456790123454,0)" xlink:href="#r"/><use transform="matrix(0.06172839506172839,0,0,0.06172839506172839,107.2222222222222,0)" xlink:href="#D"/><use transform="matrix(0.06172839506172839,0,0,0.06172839506172839,113.39506172839504,0)" xlink:href="#t"/></g><path d="M108-140l-45 26v87h125V0H30v-95L4-80v-27l26-15v-126h33v106l45-26v28" id="E"/><path d="M266 0h-40l-56-210L115 0H75L2-248h35L96-30l15-64 43-154h32l59 218 59-218h35" id="F"/><g id="e"><use transform="matrix(0.06172839506172839,0,0,0.06172839506172839,0,0)" xlink:href="#B"/><use transform="matrix(0.06172839506172839,0,0,0.06172839506172839,14.814814814814813,0)" xlink:href="#E"/><use transform="matrix(0.06172839506172839,0,0,0.06172839506172839,27.160493827160494,0)" xlink:href="#w"/><use transform="matrix(0.06172839506172839,0,0,0.06172839506172839,44.44444444444444,0)" xlink:href="#F"/><use transform="matrix(0.06172839506172839,0,0,0.06172839506172839,64.5679012345679,0)" xlink:href="#y"/></g><path d="M127-220V0H93v-220H8v-28h204v28h-85" id="G"/><g id="f"><use transform="matrix(0.043209876543209874,0,0,0.043209876543209874,0,-6.222222222222221)" xlink:href="#B"/><use transform="matrix(0.043209876543209874,0,0,0.043209876543209874,10.37037037037037,-6.222222222222221)" xlink:href="#G"/><use transform="matrix(0.043209876543209874,0,0,0.043209876543209874,18.666666666666664,-6.222222222222221)" xlink:href="#y"/><use transform="matrix(0.043209876543209874,0,0,0.043209876543209874,29.037037037037035,-6.222222222222221)" xlink:href="#q"/><use transform="matrix(0.043209876543209874,0,0,0.043209876543209874,39.925925925925924,-6.222222222222221)" xlink:href="#G"/></g><path fill="#333" d="M114-157C55-157 80-60 75 0H25v-261h50l-1 109c12-26 28-41 61-42 86-1 58 113 63 194h-50c-7-57 23-157-34-157" id="H"/><path fill="#333" d="M115-3C79 11 28 4 28-45v-112H4v-33h27l15-45h31v45h36v33H77v99c-1 23 16 31 38 25v30" id="I"/><path fill="#333" d="M14-72v-43h91v43H14" id="J"/><path fill="#333" d="M23 0v-37h61v-169l-59 37v-38l62-41h46v211h57V0H23" id="K"/><g id="g"><use transform="matrix(0.04938271604938272,0,0,0.04938271604938272,0,0)" xlink:href="#H"/><use transform="matrix(0.034567901234567905,0,0,0.034567901234567905,10.814814814814815,2.488888888888889)" xlink:href="#I"/><use transform="matrix(0.034567901234567905,0,0,0.034567901234567905,14.928395061728395,2.488888888888889)" xlink:href="#J"/><use transform="matrix(0.034567901234567905,0,0,0.034567901234567905,19.041975308641977,2.488888888888889)" xlink:href="#K"/></g><path d="M114-157C55-157 80-60 75 0H25v-261h50l-1 109c12-26 28-41 61-42 86-1 58 113 63 194h-50c-7-57 23-157-34-157" id="L"/><path d="M115-3C79 11 28 4 28-45v-112H4v-33h27l15-45h31v45h36v33H77v99c-1 23 16 31 38 25v30" id="M"/><g id="h"><use transform="matrix(0.04938271604938272,0,0,0.04938271604938272,0,0)" xlink:href="#L"/><use transform="matrix(0.034567901234567905,0,0,0.034567901234567905,10.814814814814815,2.488888888888889)" xlink:href="#M"/></g><path d="M27 0v-27h64v-190l-56 39v-29l58-41h29v221h61V0H27" id="N"/><use transform="matrix(0.043209876543209874,0,0,0.043209876543209874,0,3.1111111111111107)" xlink:href="#N" id="i"/><path d="M59-47c-2 24 18 29 38 22v24C64 9 27 4 27-40v-127H5v-23h24l9-43h21v43h35v23H59v120" id="O"/><path d="M16-82v-28h88v28H16" id="P"/><g id="j"><use transform="matrix(0.043209876543209874,0,0,0.043209876543209874,0,3.1111111111111107)" xlink:href="#O"/><use transform="matrix(0.043209876543209874,0,0,0.043209876543209874,4.320987654320987,3.1111111111111107)" xlink:href="#P"/><use transform="matrix(0.043209876543209874,0,0,0.043209876543209874,9.462962962962962,3.1111111111111107)" xlink:href="#N"/></g><g id="k"><use transform="matrix(0.06172839506172839,0,0,0.06172839506172839,0,0)" xlink:href="#F"/><use transform="matrix(0.06172839506172839,0,0,0.06172839506172839,20.123456790123456,0)" xlink:href="#y"/><use transform="matrix(0.06172839506172839,0,0,0.06172839506172839,34.938271604938265,0)" xlink:href="#q"/><use transform="matrix(0.06172839506172839,0,0,0.06172839506172839,50.92592592592592,0)" xlink:href="#B"/><use transform="matrix(0.06172839506172839,0,0,0.06172839506172839,65.74074074074073,0)" xlink:href="#G"/><use transform="matrix(0.06172839506172839,0,0,0.06172839506172839,79.25925925925925,0)" xlink:href="#F"/><use transform="matrix(0.06172839506172839,0,0,0.06172839506172839,99.38271604938271,0)" xlink:href="#y"/></g><use transform="matrix(0.06172839506172839,0,0,0.06172839506172839,0,0)" xlink:href="#F" id="l"/><path d="M30-248c87 1 191-15 191 75 0 78-77 80-158 76V0H30v-248zm33 125c57 0 124 11 124-50 0-59-68-47-124-48v98" id="Q"/><g id="m"><use transform="matrix(0.06172839506172839,0,0,0.06172839506172839,0,0)" xlink:href="#Q"/><use transform="matrix(0.06172839506172839,0,0,0.06172839506172839,14.814814814814813,0)" xlink:href="#t"/><use transform="matrix(0.06172839506172839,0,0,0.06172839506172839,29.629629629629626,0)" xlink:href="#E"/><use transform="matrix(0.06172839506172839,0,0,0.06172839506172839,41.9753086419753,0)" xlink:href="#r"/><use transform="matrix(0.06172839506172839,0,0,0.06172839506172839,57.962962962962955,0)" xlink:href="#D"/></g><path d="M205 0l-28-72H64L36 0H1l101-248h38L239 0h-34zm-38-99l-47-123c-12 45-31 82-46 123h93zm39 137c-1 20 24 18 37 12v18c-24 11-66 4-62-28 3-27 17-46 51-42-13 8-25 19-26 40" id="R"/><g id="n"><use transform="matrix(0.06172839506172839,0,0,0.06172839506172839,0,0)" xlink:href="#Q"/><use transform="matrix(0.06172839506172839,0,0,0.06172839506172839,14.814814814814813,0)" xlink:href="#w"/><use transform="matrix(0.06172839506172839,0,0,0.06172839506172839,32.09876543209876,0)" xlink:href="#E"/><use transform="matrix(0.06172839506172839,0,0,0.06172839506172839,44.444444444444436,0)" xlink:href="#R"/><use transform="matrix(0.06172839506172839,0,0,0.06172839506172839,59.25925925925925,0)" xlink:href="#s"/><use transform="matrix(0.06172839506172839,0,0,0.06172839506172839,75.24691358024691,0)" xlink:href="#z"/><use transform="matrix(0.06172839506172839,0,0,0.06172839506172839,88.76543209876543,0)" xlink:href="#w"/><use transform="matrix(0.06172839506172839,0,0,0.06172839506172839,106.04938271604938,0)" xlink:href="#r"/><use transform="matrix(0.06172839506172839,0,0,0.06172839506172839,122.03703703703704,0)" xlink:href="#y"/></g><path d="M63-220v92h138v28H63V0H30v-248h175v28H63" id="S"/><path d="M240 0l2-218c-23 76-54 145-80 218h-23L58-218 59 0H30v-248h44l77 211c21-75 51-140 76-211h43V0h-30" id="T"/><path d="M195 0l-74-108L45 0H8l94-129-87-119h37l69 98 67-98h37l-84 118L233 0h-38" id="U"/><g id="o"><use transform="matrix(0.06172839506172839,0,0,0.06172839506172839,0,0)" xlink:href="#B"/><use transform="matrix(0.06172839506172839,0,0,0.06172839506172839,14.814814814814813,0)" xlink:href="#w"/><use transform="matrix(0.06172839506172839,0,0,0.06172839506172839,32.09876543209876,0)" xlink:href="#S"/><use transform="matrix(0.06172839506172839,0,0,0.06172839506172839,45.61728395061728,0)" xlink:href="#G"/><use transform="matrix(0.06172839506172839,0,0,0.06172839506172839,59.1358024691358,0)" xlink:href="#T"/><use transform="matrix(0.06172839506172839,0,0,0.06172839506172839,77.59259259259258,0)" xlink:href="#y"/><use transform="matrix(0.06172839506172839,0,0,0.06172839506172839,92.40740740740739,0)" xlink:href="#U"/></g><path d="M33 0v-38h34V0H33" id="V"/><g id="p"><use transform="matrix(0.06172839506172839,0,0,0.06172839506172839,0,0)" xlink:href="#V"/><use transform="matrix(0.06172839506172839,0,0,0.06172839506172839,6.172839506172839,0)" xlink:href="#V"/><use transform="matrix(0.06172839506172839,0,0,0.06172839506172839,12.345679012345679,0)" xlink:href="#V"/><use transform="matrix(0.06172839506172839,0,0,0.06172839506172839,18.51851851851852,0)" xlink:href="#V"/><use transform="matrix(0.06172839506172839,0,0,0.06172839506172839,24.691358024691358,0)" xlink:href="#V"/><use transform="matrix(0.06172839506172839,0,0,0.06172839506172839,30.864197530864196,0)" xlink:href="#V"/><use transform="matrix(0.06172839506172839,0,0,0.06172839506172839,37.03703703703704,0)" xlink:href="#V"/><use transform="matrix(0.06172839506172839,0,0,0.06172839506172839,43.20987654320988,0)" xlink:href="#V"/><use transform="matrix(0.06172839506172839,0,0,0.06172839506172839,49.38271604938272,0)" xlink:href="#V"/></g></defs></g></svg>