<svg xmlns="http://www.w3.org/2000/svg" xmlns:xlink="http://www.w3.org/1999/xlink" xmlns:lucid="lucid" width="1060" height="185.52"><g transform="translate(160 -574.4787536443666)" lucid:page-tab-id="0_0"><path d="M-160 686a6 6 0 0 1 6-6h93.37a6 6 0 0 1 6 6v20a6 6 0 0 1-6 6H-154a6 6 0 0 1-6-6z" fill="none"/><use xlink:href="#a" transform="matrix(1,0,0,1,-160,680) translate(37.912109375 24.08376736111111)"/><path d="M-54.63 686a6 6 0 0 1 6-6h93.37a6 6 0 0 1 6 6v20a6 6 0 0 1-6 6h-93.37a6 6 0 0 1-6-6z" fill="none"/><use xlink:href="#b" transform="matrix(1,0,0,1,-54.63220675944335,680) translate(40.01171875 24.08376736111111)"/><path d="M50.74 686a6 6 0 0 1 6-6h93.36a6 6 0 0 1 6 6v20a6 6 0 0 1-6 6H56.74a6 6 0 0 1-6-6z" fill="none"/><use xlink:href="#c" transform="matrix(1,0,0,1,50.735586481113344,680) translate(36.06206597222222 24.08376736111111)"/><path d="M156.1 686a6 6 0 0 1 6-6h93.37a6 6 0 0 1 6 6v20a6 6 0 0 1-6 6H162.1a6 6 0 0 1-6-6z" fill="none"/><use xlink:href="#d" transform="matrix(1,0,0,1,156.10337972166997,680) translate(29.014539930555557 24.08376736111111)"/><path d="M263.58 686a6 6 0 0 1 6-6h93.37a6 6 0 0 1 6 6v20a6 6 0 0 1-6 6h-93.37a6 6 0 0 1-6-6z" fill="none"/><use xlink:href="#e" transform="matrix(1,0,0,1,263.57852882703776,680) translate(41.41145833333333 24.08376736111111)"/><path d="M368.95 686a6 6 0 0 1 6-6h93.36a6 6 0 0 1 6 6v20a6 6 0 0 1-6 6h-93.35a6 6 0 0 1-6-6z" fill="none"/><use xlink:href="#c" transform="matrix(1,0,0,1,368.94632206759445,680) translate(36.06206597222222 24.08376736111111)"/><path d="M478.53 686a6 6 0 0 1 6-6h93.37a6 6 0 0 1 6 6v20a6 6 0 0 1-6 6h-93.37a6 6 0 0 1-6-6z" fill="none"/><use xlink:href="#e" transform="matrix(1,0,0,1,478.52882703777334,680) translate(41.41145833333333 24.08376736111111)"/><path d="M583.9 686a6 6 0 0 1 6-6h93.36a6 6 0 0 1 6 6v20a6 6 0 0 1-6 6H589.9a6 6 0 0 1-6-6z" fill="none"/><use xlink:href="#a" transform="matrix(1,0,0,1,583.89662027833,680) translate(37.912109375 24.08376736111111)"/><path d="M689.26 686a6 6 0 0 1 6-6h93.37a6 6 0 0 1 6 6v20a6 6 0 0 1-6 6h-93.37a6 6 0 0 1-6-6z" fill="none"/><use xlink:href="#c" transform="matrix(1,0,0,1,689.2644135188865,680) translate(36.06206597222222 24.08376736111111)"/><path d="M794.63 686a6 6 0 0 1 6-6H894a6 6 0 0 1 6 6v20a6 6 0 0 1-6 6h-93.37a6 6 0 0 1-6-6z" fill="none"/><use xlink:href="#c" transform="matrix(1,0,0,1,794.6322067594432,680) translate(36.06206597222222 24.08376736111111)"/><path d="M-160 734a6 6 0 0 1 6-6h93.37a6 6 0 0 1 6 6v20a6 6 0 0 1-6 6H-154a6 6 0 0 1-6-6z" fill="none"/><use xlink:href="#f" transform="matrix(1,0,0,1,-160,728) translate(45.333984375 24.08376736111111)"/><path d="M-54.63 734a6 6 0 0 1 6-6h93.37a6 6 0 0 1 6 6v20a6 6 0 0 1-6 6h-93.37a6 6 0 0 1-6-6z" fill="none"/><use xlink:href="#g" transform="matrix(1,0,0,1,-54.63220675944335,728) translate(20.361111111111114 24.08376736111111)"/><path d="M50.74 734a6 6 0 0 1 6-6h93.36a6 6 0 0 1 6 6v20a6 6 0 0 1-6 6H56.74a6 6 0 0 1-6-6z" fill="none"/><use xlink:href="#h" transform="matrix(1,0,0,1,50.735586481113344,728) translate(36.447265625 24.08376736111111)"/><path d="M156.1 734a6 6 0 0 1 6-6h93.37a6 6 0 0 1 6 6v20a6 6 0 0 1-6 6H162.1a6 6 0 0 1-6-6z" fill="none"/><use xlink:href="#i" transform="matrix(1,0,0,1,156.10337972166997,728) translate(7.768880208333343 24.08376736111111)"/><path d="M263.58 734a6 6 0 0 1 6-6h93.37a6 6 0 0 1 6 6v20a6 6 0 0 1-6 6h-93.37a6 6 0 0 1-6-6z" fill="none"/><use xlink:href="#j" transform="matrix(1,0,0,1,263.57852882703776,728) translate(39.77300347222222 24.08376736111111)"/><path d="M368.95 734a6 6 0 0 1 6-6h93.36a6 6 0 0 1 6 6v20a6 6 0 0 1-6 6h-93.35a6 6 0 0 1-6-6z" fill="none"/><use xlink:href="#k" transform="matrix(1,0,0,1,368.94632206759445,728) translate(36.0078125 24.08376736111111)"/><path d="M478.53 734a6 6 0 0 1 6-6h93.37a6 6 0 0 1 6 6v20a6 6 0 0 1-6 6h-93.37a6 6 0 0 1-6-6z" fill="none"/><use xlink:href="#l" transform="matrix(1,0,0,1,478.52882703777334,728) translate(42.22526041666667 24.08376736111111)"/><path d="M583.9 734a6 6 0 0 1 6-6h93.36a6 6 0 0 1 6 6v20a6 6 0 0 1-6 6H589.9a6 6 0 0 1-6-6z" fill="none"/><use xlink:href="#m" transform="matrix(1,0,0,1,583.89662027833,728) translate(46.76085069444444 24.08376736111111)"/><path d="M689.26 734a6 6 0 0 1 6-6h93.37a6 6 0 0 1 6 6v20a6 6 0 0 1-6 6h-93.37a6 6 0 0 1-6-6z" fill="none"/><use xlink:href="#n" transform="matrix(1,0,0,1,689.2644135188865,728) translate(21.310546875000004 24.08376736111111)"/><path d="M794.63 734a6 6 0 0 1 6-6H894a6 6 0 0 1 6 6v20a6 6 0 0 1-6 6h-93.37a6 6 0 0 1-6-6z" fill="none"/><use xlink:href="#o" transform="matrix(1,0,0,1,794.6322067594432,728) translate(25.428385416666668 24.08376736111111)"/><path d="M16.55 604.45l4.17.75 4.3 1 4.46 1.3 4.64 1.58 4.8 1.93 5 2.3 5.18 2.72 5.34 3.15 5.48 3.62 5.55 4.07 5.53 4.5 5.38 4.9 5.1 5.1 4.64 5.13 4.06 4.98 3.4 4.64 2.75 4.15 2.12 3.6 1.6 3.1 1.2 2.58.87 2.17.63 1.82.44 1.53.3 1.3.2 1.1.1.97.08.83v.22h-.95v-.18l-.06-.78-.12-.9-.2-1.08-.28-1.25-.43-1.47-.6-1.78-.86-2.13-1.17-2.54-1.58-3.04-2.1-3.57-2.7-4.1-3.4-4.6-4.02-4.95-4.6-5.1-5.07-5.07-5.35-4.85-5.5-4.48-5.5-4.05-5.44-3.6-5.3-3.12-5.13-2.7-4.95-2.27-4.76-1.9-4.6-1.6-4.42-1.25-4.26-1-4.1-.74-2.5-.33v-.96zm-30.95 2.28l-4.5 1.13-4.85 1.45-5.18 1.82-5.5 2.2-5.87 2.64-6.17 3.13-6.44 3.63-6.63 4.13-6.66 4.58-6.48 4.9-6.1 5.08-5.54 5-4.8 4.76-4 4.33-3.22 3.84-2.55 3.3-1.86 2.68-.78-.55 1.9-2.7 2.56-3.33 3.25-3.86 4.03-4.36 4.82-4.78 5.56-5.04 6.15-5.1 6.53-4.93 6.7-4.6 6.64-4.16 6.48-3.64 6.2-3.15 5.9-2.66 5.56-2.22 5.22-1.8 4.9-1.47 4.58-1.16.16-.04z" stroke="#3a414a" stroke-width=".05" fill="#3a414a"/><path d="M103.9 680h-.96v-.5l.94-.03z" fill="#3a414a"/><path stroke="#3a414a" stroke-width=".05" fill="#3a414a"/><path d="M-96.97 667.08l-9.73 11.42 1.15-14.95z" fill="#3a414a"/><path d="M-96.2 666.9l-11.08 13.02 1.3-17.06zm-9.9 10.18l8.34-9.8-7.36-3.04z" stroke="#3a414a" stroke-width=".05" fill="#3a414a"/><use xlink:href="#p" transform="matrix(1,0,0,1,-14.401267115669325,593.4229903453067) translate(0 17.22222222222222)"/><path d="M76.1 651.4l3.1 1 2.8 1.06 2.5 1.08 2.2 1.1 2 1.08 1.78 1.1 1.6 1.07 1.42 1.07 1.27 1.06 1.15 1.05 1.03 1.03.93 1.04.84 1.02.76 1 .68 1.02.6 1 .55 1 .5 1.02.44 1.02.38 1.02.33 1.04.28 1.06.23 1.07.2 1.1.12 1.14.1 1.16v.7h-.95v-.66l-.1-1.1-.12-1.1-.17-1.05-.22-1.04-.26-1-.32-1-.36-1-.42-.97-.47-.98-.53-.96-.58-.97-.66-.98-.73-.98-.8-.98-.9-1-1-1-1.12-1.02-1.24-1.03-1.38-1.03-1.55-1.06-1.74-1.06-1.95-1.07-2.2-1.07-2.44-1.06-2.75-1.03-3.07-.98-.77-.2v-1zm-49.7.7l-.1.02-3.13.98-2.8 1.03-2.5 1.05-2.25 1.07-2 1.08-1.78 1.06-1.6 1.06-1.4 1.04-1.28 1.04-1.14 1.02-1.02 1-.92 1-.56.67-.73-.6.57-.7.95-1.03 1.05-1.04 1.18-1.05 1.3-1.05 1.46-1.07 1.63-1.1 1.82-1.08 2.04-1.1 2.27-1.08 2.55-1.08 2.85-1.04 3.16-1 .38-.1z" stroke="#3a414a" stroke-width=".05" fill="#3a414a"/><path d="M103.9 680h-.96v-.5l.94-.02z" fill="#3a414a"/><path stroke="#3a414a" stroke-width=".05" fill="#3a414a"/><path d="M7.85 666.67l-9.24 11.8.54-14.98z" fill="#3a414a"/><path d="M8.63 666.45l-10.55 13.47.6-17.1zm-9.5 10.6l7.95-10.16-7.5-2.74z" stroke="#3a414a" stroke-width=".05" fill="#3a414a"/><use xlink:href="#q" transform="matrix(1,0,0,1,26.40781385944292,637.6446156493485) translate(0 17.22222222222222)"/><path d="M181.47 651.4l3.1 1 2.8 1.06 2.48 1.08 2.23 1.1 2 1.08 1.77 1.1 1.6 1.07 1.4 1.07 1.3 1.06 1.14 1.05 1.02 1.03.93 1.04.84 1.02.74 1 .68 1.02.6 1 .56 1 .5 1.02.43 1.02.4 1.02.32 1.04.28 1.06.23 1.07.2 1.1.12 1.14.08 1.16.02.7h-.95l-.02-.66-.07-1.1-.12-1.1-.18-1.05-.22-1.04-.27-1-.3-1-.38-1-.4-.97-.48-.98-.53-.96-.58-.97-.65-.98-.73-.98-.8-.98-.9-1-1-1-1.12-1.02-1.25-1.03-1.38-1.03-1.57-1.06-1.74-1.06-1.96-1.07-2.18-1.07-2.46-1.06-2.74-1.03-3.06-.98-1.04-.3v-.97zm-49.43.63l-.38.1-3.12.97-2.8 1.03-2.52 1.05-2.23 1.07-2 1.08-1.8 1.06-1.58 1.06-1.42 1.04-1.27 1.04-1.14 1.02-1.03 1-.92 1-.56.67-.74-.6.58-.7.94-1.03 1.06-1.04 1.17-1.05 1.32-1.05 1.45-1.07 1.63-1.1 1.82-1.08 2.04-1.1 2.28-1.08 2.55-1.08 2.83-1.04 3.17-1 .64-.16z" stroke="#3a414a" stroke-width=".05" fill="#3a414a"/><path d="M209.26 680h-.95v-.5l.95-.02z" fill="#3a414a"/><path stroke="#3a414a" stroke-width=".05" fill="#3a414a"/><path d="M113.22 666.67l-9.25 11.8.54-14.98z" fill="#3a414a"/><path d="M114 666.45l-10.55 13.47.6-17.1zm-9.5 10.6l7.94-10.16-7.48-2.74z" stroke="#3a414a" stroke-width=".05" fill="#3a414a"/><use xlink:href="#r" transform="matrix(1,0,0,1,132.0447043222218,637.6446156493486) translate(0 17.22222222222222)"/><path d="M242.62 650.3l-.65.14-3.53.88-3.2.96-2.9 1.02-2.6 1.05-2.32 1.06-2.08 1.1-1.85 1.06-1.67 1.06-1.48 1.05-1.34 1.04-1.18 1.04-1.07 1-.97 1-.87 1-.78 1-.7.96-.64.97-.58.97-.5.97-.47.98-.4.97-.37 1-.3 1-.27 1-.23 1.03-.18 1.06-.13 1.08-.08 1.12-.03.67h-.95l.02-.7.08-1.16.13-1.13.18-1.1.23-1.07.28-1.06.32-1.04.38-1.02.42-1 .48-1.02.53-1 .6-1 .66-1.02.74-1 .8-1.03.9-1.02 1-1.02 1.1-1.05 1.24-1.05 1.38-1.07 1.52-1.07 1.7-1.1 1.9-1.08 2.1-1.1 2.37-1.08 2.63-1.06 2.94-1.02 3.25-.98 3.57-.9.85-.16zm42.4-.38l3.42.94 3.1 1 2.8 1.05 2.5 1.1 2.24 1.08 2 1.1 1.8 1.08 1.6 1.08 1.46 1.08 1.3 1.06 1.16 1.05 1.06 1.04.95 1.03.83.97-.73.6-.8-.94-.93-1-1.02-1-1.13-1.03-1.27-1.03-1.4-1.05-1.58-1.06-1.76-1.07-1.96-1.08-2.2-1.07-2.46-1.06-2.75-1.04-3.06-1-3.38-.9-2.37-.54v-.98z" stroke="#3a414a" stroke-width=".05" fill="#3a414a"/><path d="M209.27 679.5v.5h-.96l.02-.52z" fill="#3a414a"/><path stroke="#3a414a" stroke-width=".05" fill="#3a414a"/><path d="M315.72 678.48l-9.16-11.88 8.73-3.12z" fill="#3a414a"/><path d="M316.24 679.92l-10.46-13.55 9.96-3.55zm-8.9-13.1l7.86 10.2-.37-12.87z" stroke="#3a414a" stroke-width=".05" fill="#3a414a"/><use xlink:href="#s" transform="matrix(1,0,0,1,242.62116262552345,637.0219631226918) translate(0 17.22222222222222)"/><path d="M349.88 650.8l-2.64.6-3.4.92-3.05 1-2.75 1.02-2.46 1.06-2.2 1.07-1.94 1.07-1.74 1.07-1.56 1.07-1.4 1.04-1.23 1.04-1.1 1.02-1 1-.9 1-.82.98-.72.98-.65.97-.6.96-.52.96-.46.97-.4.97-.38.98-.32 1-.27 1-.22 1.04-.18 1.04-.13 1.1-.07 1.1-.02.67h-.95l.02-.7.08-1.16.13-1.13.2-1.1.22-1.06.28-1.06.33-1.04.38-1.02.44-1.02.5-1 .54-1.02.6-1 .7-1 .74-1.02.84-1.02.93-1.03 1.03-1.02 1.15-1.05 1.3-1.06 1.4-1.08 1.6-1.1 1.78-1.08 2-1.1 2.22-1.08 2.5-1.08 2.78-1.05 3.1-1 3.43-.93 2.88-.63zm40.27-.5l3.5.9 3.17 1 2.84 1.04 2.55 1.08 2.3 1.1 2.03 1.08 1.82 1.1 1.63 1.08 1.45 1.07 1.3 1.06 1.18 1.06 1.06 1.04.95 1.03.6.7-.74.6-.56-.67-.92-1-1.02-1-1.14-1.02-1.27-1.04-1.42-1.04-1.6-1.07-1.77-1.07-2-1.08-2.24-1.07-2.5-1.05-2.8-1.03-3.13-.98-3.47-.9-1.92-.4v-.98z" stroke="#3a414a" stroke-width=".05" fill="#3a414a"/><path d="M316.75 679.5v.5h-.96v-.52z" fill="#3a414a"/><path stroke="#3a414a" stroke-width=".05" fill="#3a414a"/><path d="M421.07 678.48l-9.24-11.8 8.7-3.2z" fill="#3a414a"/><path d="M421.6 679.92l-10.55-13.47 9.94-3.63zm-9-13.03l7.95 10.14-.46-12.88z" stroke="#3a414a" stroke-width=".05" fill="#3a414a"/><use xlink:href="#t" transform="matrix(1,0,0,1,349.8799974661649,637.6446156498268) translate(0 17.22222222222222)"/><path d="M456.52 649.63l-3.1.7-3.36.94-3.04 1-2.74 1.03-2.46 1.06-2.2 1.07-1.98 1.07-1.76 1.07-1.6 1.06-1.4 1.05-1.3 1.03-1.14 1.03-1.04 1-.93 1-.85 1-.76.98-.7.98-.6.97-.57.97-.5.97-.46.96-.4.98-.35 1-.32 1-.26 1-.22 1.04-.17 1.05-.12 1.1-.07 1.1v.68h-.96v-.7l.1-1.16.12-1.13.17-1.1.22-1.07.26-1.06.32-1.04.37-1.03.42-1.02.46-1 .53-1.02.58-1 .64-1 .72-1.02.8-1 .86-1.03.97-1.02 1.06-1.04 1.18-1.05 1.3-1.08 1.47-1.07 1.62-1.08 1.8-1.1 2-1.1 2.25-1.08 2.5-1.08 2.78-1.05 3.08-1 3.4-.95 3.34-.76zm40-.94l3.67.85 3.34.96 3.04 1.02 2.73 1.06 2.47 1.07 2.2 1.1 1.98 1.1 1.78 1.08 1.6 1.08 1.43 1.08 1.3 1.06 1.16 1.05 1.05 1.03.95 1.03.86 1.02.2.26-.75.58-.2-.24-.83-1-.92-1-1.02-1-1.13-1-1.26-1.05-1.4-1.04-1.56-1.07-1.72-1.07-1.95-1.07-2.16-1.08-2.42-1.07-2.7-1.04-3-1-3.3-.93-3.62-.85v-.97z" stroke="#3a414a" stroke-width=".05" fill="#3a414a"/><path d="M422.12 679.5v.5h-.97l.02-.52z" fill="#3a414a"/><path stroke="#3a414a" stroke-width=".05" fill="#3a414a"/><path d="M530.68 678.47l-9.1-11.93 8.76-3.06z" fill="#3a414a"/><path d="M531.2 679.92l-10.38-13.6 9.98-3.5zm-8.84-13.15l7.8 10.25-.28-12.88z" stroke="#3a414a" stroke-width=".05" fill="#3a414a"/><use xlink:href="#s" transform="matrix(1,0,0,1,456.5175674224254,636.396196432738) translate(0 17.22222222222222)"/><path d="M670.2 586.27l-11.33.95-11.44 1.44-10.8 1.83-10.04 2.12-9.3 2.38-8.5 2.57-7.75 2.7-7.03 2.77-6.36 2.83-5.76 2.86-5.2 2.86-4.7 2.84-4.27 2.83-3.86 2.8-3.5 2.77-3.18 2.74-2.9 2.72-2.63 2.68-2.4 2.66-2.18 2.64-2 2.62-1.8 2.6-1.66 2.6-1.5 2.6-1.35 2.6-1.24 2.6-1.1 2.62-1 2.64-.85 2.67-.75 2.7-.64 2.75-.53 2.8-.42 2.86-.3 2.94-.2 3-.05 2.63h-.95l.05-2.65.2-3.05.3-2.97.44-2.9.54-2.84.65-2.8.77-2.75.88-2.7 1-2.68 1.1-2.66 1.25-2.63 1.38-2.63 1.53-2.63 1.67-2.63 1.84-2.63 2-2.65 2.22-2.68 2.42-2.7 2.65-2.7 2.92-2.74 3.2-2.77 3.54-2.8 3.9-2.8 4.28-2.87 4.74-2.86 5.24-2.88 5.8-2.9 6.4-2.83 7.06-2.8 7.8-2.7 8.53-2.58 9.32-2.4 10.1-2.15 10.83-1.82 11.47-1.45 11.43-.96zm49.58 0l11.48 1.46 10.83 1.83 10.08 2.14 9.32 2.4 8.54 2.57 7.78 2.7 7.07 2.8 6.4 2.85 5.78 2.87 5.24 2.87 4.74 2.87 4.3 2.85 3.88 2.82 3.53 2.8 3.2 2.76 2.93 2.74 2.66 2.72 2.42 2.68 2.2 2.67 2.02 2.64 1.83 2.64 1.67 2.63 1.52 2.64 1.38 2.63 1.24 2.65 1.12 2.65 1 2.68.87 2.7.77 2.75.3 1.35-.9.22-.32-1.33-.76-2.7-.86-2.68-1-2.64-1.1-2.62-1.2-2.6-1.37-2.6-1.5-2.6-1.66-2.6-1.8-2.6-2-2.62-2.18-2.63-2.4-2.66-2.62-2.7-2.9-2.7-3.17-2.75-3.5-2.77-3.86-2.8-4.25-2.84-4.7-2.84-5.2-2.86-5.76-2.86-6.38-2.83-7.03-2.78-7.75-2.7-8.5-2.56-9.28-2.37-10.06-2.14-10.78-1.83-11.43-1.44-11.37-.96v-.95z" stroke="#3a414a" stroke-width=".05" fill="#3a414a"/><path d="M531.7 679.5v.5h-.96v-.53z" fill="#3a414a"/><path stroke="#3a414a" stroke-width=".05" fill="#3a414a"/><path d="M847.13 678.4l-6.23-13.65 9.2-1.06z" fill="#3a414a"/><path d="M847.3 679.92l-7.1-15.57 10.5-1.2zm-5.7-14.77l5.36 11.72 2.55-12.63z" stroke="#3a414a" stroke-width=".05" fill="#3a414a"/><use xlink:href="#t" transform="matrix(1,0,0,1,670.1994678132785,574.4787536443666) translate(0 17.22222222222222)"/><path d="M808.72 648.94l4.08.7 3.77.83 3.43.94 3.1 1 2.8 1.06 2.48 1.08 2.23 1.1 2 1.08 1.78 1.1 1.6 1.07 1.4 1.07 1.3 1.06 1.14 1.05 1.03 1.03.93 1.04.84 1.02.75 1 .68 1.02.6 1 .56 1 .5 1.02.43 1.02.4 1.02.32 1.04.28 1.06.23 1.07.2 1.1.12 1.14.08 1.16.02.7h-.95l-.02-.66-.07-1.1-.13-1.1-.17-1.05-.22-1.04-.27-1-.3-1-.38-1-.4-.97-.48-.98-.53-.96-.6-.97-.64-.98-.73-.98-.8-.98-.9-1-1-1-1.12-1.02-1.25-1.03-1.38-1.03-1.56-1.06-1.74-1.06-1.95-1.07-2.18-1.07-2.47-1.06-2.74-1.03-3.07-.98-3.4-.92-3.7-.83-4.05-.7-2.88-.35v-.96zm-25.16.58l-2.02.23-4.1.67-3.8.8-3.45.9-3.13.98-2.8 1.03-2.52 1.05-2.24 1.07-1.98 1.08-1.78 1.06-1.6 1.06-1.4 1.04-1.28 1.04-1.14 1.02-1.02 1-.92 1-.56.67-.73-.6.56-.7.95-1.03 1.07-1.04 1.17-1.05 1.3-1.05 1.46-1.07 1.63-1.1 1.82-1.08 2.04-1.1 2.26-1.08 2.55-1.08 2.86-1.04 3.17-1 3.5-.9 3.83-.8 4.14-.7 2.16-.23z" stroke="#3a414a" stroke-width=".05" fill="#3a414a"/><path d="M847.8 680h-.96v-.5l.94-.02z" fill="#3a414a"/><path stroke="#3a414a" stroke-width=".05" fill="#3a414a"/><path d="M751.75 666.67l-9.25 11.8.54-14.98z" fill="#3a414a"/><path d="M752.53 666.45l-10.55 13.47.6-17.1zm-9.5 10.6l7.94-10.16-7.48-2.74z" stroke="#3a414a" stroke-width=".05" fill="#3a414a"/><use xlink:href="#u" transform="matrix(1,0,0,1,783.5639827488839,637.6446156493485) translate(0 17.22222222222222)"/><path d="M762.3 617.36l7.65.97 7.23 1.22 6.74 1.43 6.22 1.6 5.7 1.7 5.2 1.82 4.7 1.87 4.28 1.9 3.87 1.9 3.5 1.94 3.16 1.92 2.86 1.9 2.6 1.9 2.36 1.86 2.15 1.85 1.95 1.84 1.77 1.8 1.62 1.8 1.48 1.8 1.35 1.76 1.22 1.77 1.12 1.76 1.02 1.75.92 1.77.83 1.77.76 1.78.66 1.8.6 1.8.5 1.84.44 1.86.36 1.9.3 1.94.2 2 .13 2.03.03 1.6h-.95l-.03-1.57-.13-2-.2-1.95-.28-1.9-.37-1.86-.43-1.82-.5-1.8-.57-1.77-.66-1.76-.73-1.74-.8-1.73-.92-1.73-1-1.72-1.1-1.73-1.2-1.73-1.3-1.75-1.47-1.75-1.6-1.77-1.74-1.8-1.9-1.8-2.12-1.8-2.33-1.86-2.57-1.86-2.83-1.87-3.13-1.9-3.47-1.9-3.83-1.9-4.24-1.9-4.68-1.84-5.16-1.8-5.66-1.7-6.18-1.6-6.7-1.42-7.2-1.2-7.6-.97-6.1-.5v-.96zm-34.5.43l-6.12.5-7.6.97-7.2 1.2-6.7 1.44-6.18 1.6-5.66 1.7-5.16 1.8-4.67 1.85-4.23 1.88-3.83 1.9-3.47 1.9-3.13 1.9-2.83 1.88-2.56 1.88-2.33 1.84-2.1 1.83-1.92 1.8-1.75 1.78-1.6 1.77-1.44 1.75-1.33 1.74-1.2 1.73-1.1 1.72-1 1.73-.9 1.72-.82 1.73-.73 1.74-.38 1.04-.9-.32.4-1.06.75-1.77.82-1.77.92-1.76 1-1.76 1.13-1.76 1.23-1.76 1.34-1.78 1.48-1.78 1.62-1.8 1.77-1.8 1.96-1.84 2.15-1.85 2.37-1.88 2.6-1.9 2.86-1.9 3.17-1.9 3.5-1.93 3.86-1.93 4.28-1.9 4.7-1.87 5.2-1.8 5.7-1.72 6.23-1.6 6.73-1.43 7.23-1.22 7.66-.97 6.2-.52z" stroke="#3a414a" stroke-width=".05" fill="#3a414a"/><path d="M847.8 680h-.96v-.5l.94-.02z" fill="#3a414a"/><path stroke="#3a414a" stroke-width=".05" fill="#3a414a"/><path d="M643.9 665.15l-7.04 13.26-2.1-14.85z" fill="#3a414a"/><path d="M644.6 664.8l-8 15.12-2.4-16.95zm-7.48 12.1l6.04-11.4-7.84-1.37z" stroke="#3a414a" stroke-width=".05" fill="#3a414a"/><use xlink:href="#p" transform="matrix(1,0,0,1,727.7934012569867,606.0674496515002) translate(0 17.22222222222222)"/><defs><path d="M659 0H135v-1490h529c448 0 721 280 721 744 0 466-273 746-726 746zM440-263h204c287 0 437-148 437-483 0-333-150-481-435-481H440v964" id="v"/><path d="M75-1237v-253h1217v253H837V0H531v-1237H75" id="w"/><g id="a"><use transform="matrix(0.010850694444444444,0,0,0.010850694444444444,0,0)" xlink:href="#v"/><use transform="matrix(0.010850694444444444,0,0,0.010850694444444444,15.342881944444445,0)" xlink:href="#w"/></g><path d="M567 20C257 20 68-148 68-448v-87h305v92c0 143 75 217 194 217s193-74 193-218v-1046h302v1041c0 301-188 469-495 469" id="x"/><g id="b"><use transform="matrix(0.010850694444444444,0,0,0.010850694444444444,0,0)" xlink:href="#x"/><use transform="matrix(0.010850694444444444,0,0,0.010850694444444444,12.98828125,0)" xlink:href="#x"/></g><path d="M135 0v-1490h340l471 754c59 97 122 210 187 365-32-387-14-721-19-1119h312V0h-341C855-382 627-689 427-1113c32 420 16 695 20 1113H135" id="y"/><g id="c"><use transform="matrix(0.010850694444444444,0,0,0.010850694444444444,0,0)" xlink:href="#y"/><use transform="matrix(0.010850694444444444,0,0,0.010850694444444444,16.93793402777778,0)" xlink:href="#y"/></g><path d="M571 0L49-1490h339c138 427 271 775 384 1244 111-471 237-815 371-1244h337L970 0H571" id="z"/><path d="M135 0v-1490h591c327 0 492 160 492 383 0 177-115 286-268 320v15c168 8 326 140 326 361 0 236-176 411-512 411H135zm305-251h264c179 0 258-76 258-189 0-125-97-215-250-215H440v404zm0-613h241c131 0 228-74 228-194 0-109-79-183-222-183H440v377" id="A"/><path d="M795 20C377 20 94-272 94-743c0-483 302-767 694-767 335 0 593 206 635 500h-310c-42-142-154-229-320-229-230 0-389 177-389 493s154 495 393 495c212 0 340-120 345-311H818v-232h620v186c0 391-269 628-643 628" id="B"/><g id="d"><use transform="matrix(0.010850694444444444,0,0,0.010850694444444444,0,0)" xlink:href="#z"/><use transform="matrix(0.010850694444444444,0,0,0.010850694444444444,16.590711805555554,0)" xlink:href="#A"/><use transform="matrix(0.010850694444444444,0,0,0.010850694444444444,31.293402777777775,0)" xlink:href="#B"/></g><path d="M440-1490V0H135v-1490h305" id="C"/><g id="e"><use transform="matrix(0.010850694444444444,0,0,0.010850694444444444,0,0)" xlink:href="#C"/><use transform="matrix(0.010850694444444444,0,0,0.010850694444444444,6.239149305555555,0)" xlink:href="#y"/></g><path d="M52 0l541-1490h220L1361 0h-200l-149-416H398L254 0H52zm404-582h497c-103-290-145-390-251-756-108 377-145 460-246 756" id="D"/><use transform="matrix(0.010850694444444444,0,0,0.010850694444444444,0,0)" xlink:href="#D" id="f"/><path d="M140 405l46-156c120 36 205 19 263-150l32-93L54-1118h197c107 313 237 620 324 950 87-331 219-637 326-950h196L606 167c-68 178-176 259-334 259-64 0-113-12-132-21" id="E"/><path d="M613 24c-304 0-509-231-509-576 0-350 205-580 509-580 305 0 511 230 511 580 0 345-206 576-511 576zm0-161c226 0 329-195 329-415 0-222-103-419-329-419-223 0-326 196-326 419 0 220 103 415 326 415" id="F"/><path d="M537 14c-226 0-379-139-379-422v-710h180v695c0 172 97 275 253 275 160 0 281-109 281-300v-670h181V0H879v-209C806-46 684 14 537 14" id="G"/><path d="M338-670V0H158v-1118h173l1 207c72-158 192-221 342-221 226 0 378 139 378 422V0H872v-695c0-172-96-275-252-275-161 0-282 109-282 300" id="H"/><path d="M611 442c-248 0-391-105-460-228l146-94c47 65 117 165 314 165 178 0 307-82 307-266v-224h-17C863-141 792-18 576-18c-268 0-472-195-472-546 0-346 197-568 476-568 216 0 288 133 326 193h17v-179h175V29c0 289-215 413-487 413zm-5-620c203 0 314-146 314-390 0-237-108-403-314-403-213 0-319 180-319 403 0 230 109 390 319 390" id="I"/><g id="g"><use transform="matrix(0.010850694444444444,0,0,0.010850694444444444,0,0)" xlink:href="#E"/><use transform="matrix(0.010850694444444444,0,0,0.010850694444444444,12.055121527777777,0)" xlink:href="#F"/><use transform="matrix(0.010850694444444444,0,0,0.010850694444444444,25.379774305555554,0)" xlink:href="#G"/><use transform="matrix(0.010850694444444444,0,0,0.010850694444444444,38.51996527777777,0)" xlink:href="#H"/><use transform="matrix(0.010850694444444444,0,0,0.010850694444444444,51.64930555555556,0)" xlink:href="#I"/></g><path d="M158 0v-1118h180V0H158zm91-1301c-68 0-125-53-125-119s57-119 125-119c69 0 126 53 126 119s-57 119-126 119" id="J"/><path d="M158 0v-1118h174v172h12c41-113 157-188 290-188 26 0 70 2 91 3v181c-11-2-60-10-108-10-161 0-279 109-279 260V0H158" id="K"/><path d="M338-1490V0H158v-1490h180" id="L"/><g id="h"><use transform="matrix(0.010850694444444444,0,0,0.010850694444444444,0,0)" xlink:href="#I"/><use transform="matrix(0.010850694444444444,0,0,0.010850694444444444,13.628472222222221,0)" xlink:href="#J"/><use transform="matrix(0.010850694444444444,0,0,0.010850694444444444,19.010416666666664,0)" xlink:href="#K"/><use transform="matrix(0.010850694444444444,0,0,0.010850694444444444,27.72352430555555,0)" xlink:href="#L"/></g><path d="M538 24C308 24 148-78 108-271l171-41c32 123 123 178 257 178 156 0 256-77 256-169 0-77-54-128-164-154l-186-44c-203-48-300-148-300-305 0-192 176-326 414-326 230 0 351 112 402 269l-163 42c-31-80-94-158-238-158-133 0-233 69-233 162 0 83 57 129 188 160l169 40c203 48 298 149 298 302 0 196-179 339-441 339" id="M"/><path d="M598-1118v154H368v674c0 100 37 144 132 144 23 0 62-6 92-12L629-6c-37 13-88 20-134 20-193 0-307-107-307-290v-688H20v-154h168v-266h180v266h230" id="N"/><path d="M471 26C259 26 90-98 90-318c0-256 228-303 435-329 202-27 287-16 287-108 0-139-79-219-234-219-161 0-248 86-283 164l-173-57c86-203 278-265 451-265 150 0 419 46 419 395V0H815v-152h-12C765-73 660 26 471 26zm31-159c199 0 310-134 310-271v-155c-30 35-226 55-295 64-131 17-246 59-246 186 0 116 97 176 231 176" id="O"/><path d="M577 24c-279 0-473-224-473-580 0-354 195-576 474-576 218 0 287 134 324 193h14v-551h180V0H922v-173h-20C865-111 790 24 577 24zm27-161c203 0 314-172 314-421 0-247-108-413-314-413-212 0-317 181-317 413 0 235 108 421 317 421" id="P"/><g id="i"><use transform="matrix(0.010850694444444444,0,0,0.010850694444444444,0,0)" xlink:href="#M"/><use transform="matrix(0.010850694444444444,0,0,0.010850694444444444,11.729600694444445,0)" xlink:href="#N"/><use transform="matrix(0.010850694444444444,0,0,0.010850694444444444,19.108072916666668,0)" xlink:href="#O"/><use transform="matrix(0.010850694444444444,0,0,0.010850694444444444,31.586371527777775,0)" xlink:href="#H"/><use transform="matrix(0.010850694444444444,0,0,0.010850694444444444,44.71571180555556,0)" xlink:href="#P"/><use transform="matrix(0.010850694444444444,0,0,0.010850694444444444,58.322482638888886,0)" xlink:href="#J"/><use transform="matrix(0.010850694444444444,0,0,0.010850694444444444,63.70442708333333,0)" xlink:href="#H"/><use transform="matrix(0.010850694444444444,0,0,0.010850694444444444,76.8337673611111,0)" xlink:href="#I"/></g><g id="j"><use transform="matrix(0.010850694444444444,0,0,0.010850694444444444,0,0)" xlink:href="#F"/><use transform="matrix(0.010850694444444444,0,0,0.010850694444444444,13.324652777777777,0)" xlink:href="#H"/></g><path d="M158 418v-1536h174v179h20c37-59 106-193 324-193 279 0 474 222 474 576 0 356-194 580-473 580-213 0-288-135-325-197h-14v591H158zm492-555c209 0 317-186 317-421 0-232-105-413-317-413-206 0-314 166-314 413 0 249 111 421 314 421" id="Q"/><g id="k"><use transform="matrix(0.010850694444444444,0,0,0.010850694444444444,0,0)" xlink:href="#N"/><use transform="matrix(0.010850694444444444,0,0,0.010850694444444444,7.052951388888888,0)" xlink:href="#F"/><use transform="matrix(0.010850694444444444,0,0,0.010850694444444444,20.377604166666664,0)" xlink:href="#Q"/></g><path d="M678-1118v154H420V0H240v-964H20v-154h220v-149c0-194 155-293 318-293 85 0 141 18 168 30l-50 154c-19-6-47-17-97-17-111 0-159 58-159 166v109h258" id="R"/><g id="l"><use transform="matrix(0.010850694444444444,0,0,0.010850694444444444,0,0)" xlink:href="#F"/><use transform="matrix(0.010850694444444444,0,0,0.010850694444444444,13.324652777777777,0)" xlink:href="#R"/></g><use transform="matrix(0.010850694444444444,0,0,0.010850694444444444,0,0)" xlink:href="#O" id="m"/><path d="M628 24c-324 0-524-230-524-574 0-343 198-582 503-582 237 0 487 146 487 559v75H286c9 234 145 362 343 362 132 0 231-58 273-172l174 48C1024-91 857 24 628 24zM287-650h624c-17-190-120-322-304-322-192 0-309 151-320 322" id="S"/><g id="n"><use transform="matrix(0.010850694444444444,0,0,0.010850694444444444,0,0)" xlink:href="#N"/><use transform="matrix(0.010850694444444444,0,0,0.010850694444444444,7.052951388888888,0)" xlink:href="#S"/><use transform="matrix(0.010850694444444444,0,0,0.010850694444444444,20.008680555555554,0)" xlink:href="#H"/><use transform="matrix(0.010850694444444444,0,0,0.010850694444444444,33.13802083333333,0)" xlink:href="#H"/><use transform="matrix(0.010850694444444444,0,0,0.010850694444444444,46.26736111111111,0)" xlink:href="#J"/><use transform="matrix(0.010850694444444444,0,0,0.010850694444444444,51.64930555555556,0)" xlink:href="#M"/></g><path d="M613 24c-304 0-509-231-509-576 0-350 205-580 509-580 216 0 392 114 453 309l-173 49c-33-115-133-197-280-197-223 0-326 196-326 419 0 220 103 415 326 415 150 0 252-85 285-206l172 49C1010-95 832 24 613 24" id="T"/><g id="o"><use transform="matrix(0.010850694444444444,0,0,0.010850694444444444,0,0)" xlink:href="#T"/><use transform="matrix(0.010850694444444444,0,0,0.010850694444444444,12.6953125,0)" xlink:href="#F"/><use transform="matrix(0.010850694444444444,0,0,0.010850694444444444,26.01996527777778,0)" xlink:href="#G"/><use transform="matrix(0.010850694444444444,0,0,0.010850694444444444,39.16015625,0)" xlink:href="#K"/><use transform="matrix(0.010850694444444444,0,0,0.010850694444444444,47.873263888888886,0)" xlink:href="#N"/></g><path fill="#333" d="M537 19C279 19 81-185 81-557c0-382 206-575 454-575 190 0 278 113 318 202h10v-560h300V0H868v-179h-15C812-89 719 19 537 19zm92-241c153 0 240-134 240-336 0-203-86-334-240-334-158 0-240 138-240 334 0 197 84 336 240 336" id="U"/><path fill="#333" d="M633 22C291 22 81-200 81-553c0-345 210-579 537-579 292 0 525 185 525 567v84H378c7 183 109 277 260 277 105 0 184-46 216-132l272 51C1071-99 893 22 633 22zM380-669h474c-15-146-94-237-233-237-143 0-229 99-241 237" id="V"/><path fill="#333" d="M683-1118v229H474v562c0 71 29 104 102 104 23 0 73-7 95-13l43 225C647 9 580 16 520 16 296 16 174-96 174-301v-588H20v-229h154v-266h300v266h209" id="W"/><g id="p"><use transform="matrix(0.008680555555555556,0,0,0.008680555555555556,0,0)" xlink:href="#U"/><use transform="matrix(0.008680555555555556,0,0,0.008680555555555556,11.206597222222223,0)" xlink:href="#V"/><use transform="matrix(0.008680555555555556,0,0,0.008680555555555556,21.796875,0)" xlink:href="#W"/></g><path fill="#333" d="M440 22C227 22 68-92 68-313c0-250 202-322 422-343 195-21 271-24 271-105 0-95-63-149-175-149-116 0-187 57-211 129l-275-46c57-194 237-305 487-305 240 0 474 108 474 379V0H777v-155h-10C713-51 605 22 440 22zm85-211c140 0 238-93 238-211v-121c-37 26-156 42-222 51-111 16-185 59-185 149 0 87 70 132 169 132" id="X"/><path fill="#333" d="M128 0v-1118h278l12 217c60-163 185-234 319-234 143 0 236 81 288 251 63-172 205-251 359-251 205 0 357 138 357 381V0h-301v-697c0-126-76-187-177-187-114 0-184 79-184 196V0H789v-705c0-109-72-179-174-179-106 0-187 74-187 208V0H128" id="Y"/><path fill="#333" d="M628 22C291 22 81-210 81-554c0-346 210-578 547-578 336 0 547 232 547 578 0 344-211 576-547 576zm0-236c160 0 242-146 242-341 0-197-82-341-242-341S387-753 387-555c0 195 81 341 241 341" id="Z"/><g id="q"><use transform="matrix(0.008680555555555556,0,0,0.008680555555555556,0,0)" xlink:href="#X"/><use transform="matrix(0.008680555555555556,0,0,0.008680555555555556,10.321180555555555,0)" xlink:href="#Y"/><use transform="matrix(0.008680555555555556,0,0,0.008680555555555556,26.545138888888893,0)" xlink:href="#Z"/><use transform="matrix(0.008680555555555556,0,0,0.008680555555555556,37.44791666666667,0)" xlink:href="#U"/></g><path fill="#333" d="M428-647V0H128v-1118h283l4 231c63-156 176-245 348-245 232 0 384 159 384 421V0H847v-659c0-139-76-222-202-222-128 0-217 86-217 234" id="aa"/><path fill="#333" d="M572 22C302 22 117-98 78-306l279-48c29 105 101 156 224 156 114 0 185-48 185-115 0-118-228-130-337-155-215-49-322-150-322-317 0-215 187-347 470-347 265 0 424 116 466 298l-266 47c-24-76-87-130-196-130-98 0-174 46-174 113 0 56 38 95 144 117l201 40c216 44 320 143 320 302 0 220-207 367-500 367" id="ab"/><path fill="#333" d="M513 14c-232 0-385-159-385-421v-711h300v659c0 139 76 222 202 222 127 0 217-86 217-234v-647h301V0H864l-4-232C797-74 683 14 513 14" id="ac"/><path fill="#333" d="M754 19C571 19 479-89 437-179h-14V0H128v-1490h300v560h9c41-89 129-202 319-202 248 0 453 193 453 575 0 372-197 576-455 576zm-92-241c156 0 240-139 240-336 0-196-83-334-240-334-154 0-241 131-241 334 0 202 88 336 241 336" id="ad"/><path fill="#333" d="M127-1118h301V57c1 278-186 374-478 361V182c116 8 177-28 177-129v-1171zm151-146c-90 0-165-68-165-154 0-85 75-154 165-154s165 69 165 154c0 86-75 154-165 154" id="ae"/><g id="r"><use transform="matrix(0.008680555555555556,0,0,0.008680555555555556,0,0)" xlink:href="#aa"/><use transform="matrix(0.008680555555555556,0,0,0.008680555555555556,11.067708333333334,0)" xlink:href="#ab"/><use transform="matrix(0.008680555555555556,0,0,0.008680555555555556,21.024305555555557,0)" xlink:href="#ac"/><use transform="matrix(0.008680555555555556,0,0,0.008680555555555556,32.09201388888889,0)" xlink:href="#ad"/><use transform="matrix(0.008680555555555556,0,0,0.008680555555555556,43.298611111111114,0)" xlink:href="#ae"/></g><path fill="#333" d="M128 418v-1536h295v188h14c41-89 129-202 319-202 248 0 453 193 453 575 0 372-197 576-455 576-183 0-275-108-317-198h-9v597H128zm534-640c156 0 240-139 240-336 0-196-83-334-240-334-154 0-241 131-241 334 0 202 88 336 241 336" id="af"/><path fill="#333" d="M128 0v-1118h290v195h12c54-169 184-238 367-200v268c-27-8-86-15-130-15-138 0-239 95-239 234V0H128" id="ag"/><g id="s"><use transform="matrix(0.008680555555555556,0,0,0.008680555555555556,0,0)" xlink:href="#af"/><use transform="matrix(0.008680555555555556,0,0,0.008680555555555556,11.206597222222223,0)" xlink:href="#ag"/><use transform="matrix(0.008680555555555556,0,0,0.008680555555555556,18.01215277777778,0)" xlink:href="#V"/><use transform="matrix(0.008680555555555556,0,0,0.008680555555555556,28.602430555555557,0)" xlink:href="#af"/></g><g id="t"><use transform="matrix(0.008680555555555556,0,0,0.008680555555555556,0,0)" xlink:href="#af"/><use transform="matrix(0.008680555555555556,0,0,0.008680555555555556,11.206597222222223,0)" xlink:href="#Z"/><use transform="matrix(0.008680555555555556,0,0,0.008680555555555556,22.109375,0)" xlink:href="#ad"/><use transform="matrix(0.008680555555555556,0,0,0.008680555555555556,33.31597222222222,0)" xlink:href="#ae"/></g><g id="u"><use transform="matrix(0.008680555555555556,0,0,0.008680555555555556,0,0)" xlink:href="#aa"/><use transform="matrix(0.008680555555555556,0,0,0.008680555555555556,11.067708333333334,0)" xlink:href="#aa"/></g></defs></g></svg>