<svg xmlns="http://www.w3.org/2000/svg" xmlns:xlink="http://www.w3.org/1999/xlink" xmlns:lucid="lucid" width="790.69" height="412.87"><g transform="translate(281 -859.6847442026012)" lucid:page-tab-id="0_0"><path d="M192.46 1231.55c0 22.1-17.9 40-40 40s-40-17.9-40-40 17.9-40 40-40 40 17.9 40 40z" stroke="#3a414a" stroke-width="2" fill="#e81313"/><use xlink:href="#a" transform="matrix(1,0,0,1,117.46001661494711,1196.5510387932409) translate(10.956790123456791 39.65277777777778)"/><path d="M36.23 1068.33c0 22.1-17.9 40-40 40s-40-17.9-40-40 17.9-40 40-40 40 17.9 40 40z" stroke="#3a414a" stroke-width="2" fill="#6db1ff"/><use xlink:href="#b" transform="matrix(1,0,0,1,-38.769991692526446,1033.3327096136454) translate(11.574074074074076 39.65277777777778)"/><use xlink:href="#c" transform="matrix(1,0,0,1,-38.769991692526446,1033.3327096136454) translate(39.907407407407405 39.65277777777778)"/><path d="M272.46 1068.33c0 22.1-17.9 40-40 40s-40-17.9-40-40 17.9-40 40-40 40 17.9 40 40z" stroke="#3a414a" stroke-width="2" fill="#6db1ff"/><use xlink:href="#d" transform="matrix(1,0,0,1,197.4600166149471,1033.3327096136454) translate(26.38888888888889 39.65277777777778)"/><path d="M74.34 1231.55c0 22.1-17.9 40-40 40s-40-17.9-40-40 17.9-40 40-40 40 17.9 40 40z" stroke="#3a414a" stroke-width="2" fill="#54c45e"/><use xlink:href="#e" transform="matrix(1,0,0,1,-0.6549875387896691,1196.5510387932409) translate(9.135802469135804 39.65277777777778)"/><path d="M110.96 1231.55H91.73" stroke="#3a414a" fill="none"/><path d="M111.46 1231.54l.02.5h-.53v-.96h.54z" stroke="#3a414a" stroke-width=".05" fill="#3a414a"/><path d="M76.96 1231.55l14.27-4.63v9.27z" stroke="#3a414a" fill="#3a414a"/><path d="M153.26 1190.22l67.74-69.18" stroke="#3a414a" fill="none"/><path d="M153.6 1190.54l-.06.08-1.07-.07h-.2l.66-.67z" stroke="#3a414a" stroke-width=".05" fill="#3a414a"/><path d="M231.33 1110.5l-6.67 13.43-6.62-6.5z" stroke="#3a414a" fill="#3a414a"/><path d="M140.72 1182.05l-115.8-83.86" stroke="#3a414a" fill="none"/><path d="M151.65 1189.96l-14.92-1.54 8.8-12.15z" stroke="#3a414a" fill="#3a414a"/><path d="M25.22 1097.8l-.56.78-.48-.35.7-.67z" stroke="#3a414a" stroke-width=".05" fill="#3a414a"/><path d="M390.57 900.68c0 22.1-17.9 40-40 40s-40-17.9-40-40 17.9-40 40-40 40 17.9 40 40z" stroke="#3a414a" stroke-width="2" fill="#e81313"/><use xlink:href="#f" transform="matrix(1,0,0,1,315.5750207686839,865.6847442026012) translate(10.33950617283951 39.65277777777778)"/><path d="M390.57 1068.33c0 22.1-17.9 40-40 40s-40-17.9-40-40 17.9-40 40-40 40 17.9 40 40z" stroke="#3a414a" stroke-width="2" fill="#54c45e"/><use xlink:href="#g" transform="matrix(1,0,0,1,315.5750207686839,1033.3327096136454) translate(9.166666666666668 39.65277777777778)"/><path d="M350.57 942.18v68.77" stroke="#3a414a" fill="none"/><path d="M350.56 941.7l.5-.03v.53h-.96v-.54z" stroke="#3a414a" stroke-width=".05" fill="#3a414a"/><path d="M350.57 1025.7l-4.63-14.25h9.27z" stroke="#3a414a" fill="#3a414a"/><path d="M241.17 1027.92l87.55-76.6" stroke="#3a414a" fill="none"/><path d="M241.5 1028.27l-.12.1-1.18-.23.66-.58z" stroke="#3a414a" stroke-width=".05" fill="#3a414a"/><path d="M339.84 941.6l-7.7 12.9-6.1-7z" stroke="#3a414a" fill="#3a414a"/><path d="M154.34 900.68c0 22.1-17.9 40-40 40s-40-17.9-40-40 17.9-40 40-40 40 17.9 40 40z" stroke="#3a414a" stroke-width="2" fill="#e81313"/><use xlink:href="#h" transform="matrix(1,0,0,1,79.34501246121033,865.6847442026012) translate(-0.7407407407407405 39.44444444444444)"/><path d="M112.7 941.96l-81.28 81.3" stroke="#3a414a" fill="none"/><path d="M113.7 941.65l-.67.65-.67-.67.07-.06z" stroke="#3a414a" stroke-width=".05" fill="#3a414a"/><path d="M20.98 1033.7l6.8-13.38 6.56 6.56z" stroke="#3a414a" fill="#3a414a"/><path d="M272.46 900.68c0 22.1-17.9 40-40 40s-40-17.9-40-40 17.9-40 40-40 40 17.9 40 40z" stroke="#3a414a" stroke-width="2" fill="#6db1ff"/><use xlink:href="#b" transform="matrix(1,0,0,1,197.4600166149471,865.6847442026012) translate(12.222222222222221 39.65277777777778)"/><use xlink:href="#i" transform="matrix(1,0,0,1,197.4600166149471,865.6847442026012) translate(40.55555555555556 39.65277777777778)"/><path d="M155.85 900.68h19.23" stroke="#3a414a" fill="none"/><path d="M155.86 901.16h-.54l.03-.46-.02-.5h.53z" stroke="#3a414a" stroke-width=".05" fill="#3a414a"/><path d="M189.84 900.68l-14.26 4.64v-9.27z" stroke="#3a414a" fill="#3a414a"/><path d="M273.96 900.68h19.23" stroke="#3a414a" fill="none"/><path d="M273.97 901.16h-.54l.03-.46-.02-.5h.53z" stroke="#3a414a" stroke-width=".05" fill="#3a414a"/><path d="M307.96 900.68l-14.27 4.64v-9.27z" stroke="#3a414a" fill="#3a414a"/><path d="M154.34 1068.33c0 22.1-17.9 40-40 40s-40-17.9-40-40 17.9-40 40-40 40 17.9 40 40z" stroke="#3a414a" stroke-width="2" fill="#54c45e"/><use xlink:href="#j" transform="matrix(1,0,0,1,79.34501246121033,1033.3327096136454) translate(17.746913580246915 39.65277777777778)"/><path d="M114.34 942.18v68.77" stroke="#3a414a" fill="none"/><path d="M114.33 941.7l.5-.03v.53h-.96v-.54z" stroke="#3a414a" stroke-width=".05" fill="#3a414a"/><path d="M114.34 1025.7l-4.63-14.25H119z" stroke="#3a414a" fill="#3a414a"/><path d="M508.7 900.68c0 22.1-17.92 40-40 40-22.1 0-40-17.9-40-40s17.9-40 40-40c22.08 0 40 17.9 40 40z" stroke="#3a414a" stroke-width="2" fill="#6db1ff"/><use xlink:href="#k" transform="matrix(1,0,0,1,433.69002492242066,865.6847442026012) translate(18.395061728395063 39.65277777777778)"/><path d="M508.7 1068.33c0 22.1-17.92 40-40 40-22.1 0-40-17.9-40-40s17.9-40 40-40c22.08 0 40 17.9 40 40z" stroke="#3a414a" stroke-width="2" fill="#e81313"/><use xlink:href="#l" transform="matrix(1,0,0,1,433.69002492242066,1033.3327096136454) translate(4.342592592592592 38.69444444444444)"/><path d="M392.08 900.68h19.23" stroke="#3a414a" fill="none"/><path d="M392.1 901.16h-.55l.03-.46-.02-.5h.53z" stroke="#3a414a" stroke-width=".05" fill="#3a414a"/><path d="M426.07 900.68l-14.26 4.64v-9.27z" stroke="#3a414a" fill="#3a414a"/><path d="M468.7 942.18v68.77" stroke="#3a414a" fill="none"/><path d="M468.68 941.7l.5-.03v.53h-.97v-.54z" stroke="#3a414a" stroke-width=".05" fill="#3a414a"/><path d="M468.7 1025.7l-4.64-14.25h9.26z" stroke="#3a414a" fill="#3a414a"/><path d="M36.23 900.68c0 22.1-17.9 40-40 40s-40-17.9-40-40 17.9-40 40-40 40 17.9 40 40z" stroke="#3a414a" stroke-width="2" fill="#6db1ff"/><use xlink:href="#m" transform="matrix(1,0,0,1,-38.769991692526446,865.6847442026012) translate(23.924753086419756 22.15277777777778)"/><use xlink:href="#n" transform="matrix(1,0,0,1,-38.769991692526446,865.6847442026012) translate(2.319814814814814 48.81944444444444)"/><path d="M72.84 900.68H53.6" stroke="#3a414a" fill="none"/><path d="M73.34 900.67l.02.5h-.53v-.96h.54z" stroke="#3a414a" stroke-width=".05" fill="#3a414a"/><path d="M38.85 900.68l14.27-4.63v9.27z" stroke="#3a414a" fill="#3a414a"/><path d="M-81.89 900.68c.02 22.1-17.9 40-39.98 40-22.1 0-40-17.9-40-40s17.9-40 40-40 40 17.9 40 40z" stroke="#3a414a" stroke-width="2" fill="#e81313"/><use xlink:href="#o" transform="matrix(1,0,0,1,-156.88499584626322,865.6847442026012) translate(9.166666666666668 39.65277777777778)"/><path d="M-45.27 900.68H-64.5" stroke="#3a414a" fill="none"/><path d="M-44.77 900.67l.02.5h-.53v-.96h.54z" stroke="#3a414a" stroke-width=".05" fill="#3a414a"/><path d="M-79.27 900.68l14.27-4.63v9.27z" stroke="#3a414a" fill="#3a414a"/><path d="M-200 900.68c0 22.1-17.9 40-40 40s-40-17.9-40-40 17.9-40 40-40 40 17.9 40 40z" stroke="#3a414a" stroke-width="2" fill="#54c45e"/><use xlink:href="#p" transform="matrix(1,0,0,1,-275,865.6847442026012) translate(9.722222222222225 39.65277777777778)"/><path d="M-163.4 900.68h-19.22" stroke="#3a414a" fill="none"/><path d="M-162.9 900.67l.03.5h-.53v-.96h.54z" stroke="#3a414a" stroke-width=".05" fill="#3a414a"/><path d="M-197.38 900.68l14.26-4.63v9.27z" stroke="#3a414a" fill="#3a414a"/><path d="M-81.89 1068.33c.02 22.1-17.9 40-39.98 40-22.1 0-40-17.9-40-40s17.9-40 40-40 40 17.9 40 40z" stroke="#3a414a" stroke-width="2" fill="#6db1ff"/><use xlink:href="#q" transform="matrix(1,0,0,1,-156.88499584626322,1033.3327096136454) translate(22.067901234567902 39.65277777777778)"/><path d="M-121.89 942.18l.02 68.77" stroke="#3a414a" fill="none"/><path d="M-121.9 941.7l.5-.03v.53h-.96v-.54z" stroke="#3a414a" stroke-width=".05" fill="#3a414a"/><path d="M-121.89 1025.7l-4.62-14.25h9.27z" stroke="#3a414a" fill="#3a414a"/><path d="M-200 1068.33c0 22.1-17.9 40-40 40s-40-17.9-40-40 17.9-40 40-40 40 17.9 40 40z" stroke="#3a414a" stroke-width="2" fill="#e81313"/><use xlink:href="#r" transform="matrix(1,0,0,1,-275,1033.3327096136454) translate(1.3148148148148167 36.91666666666667)"/><path d="M-163.4 1068.33h-19.22" stroke="#3a414a" fill="none"/><path d="M-162.9 1068.32l.03.5h-.53v-.96h.54z" stroke="#3a414a" stroke-width=".05" fill="#3a414a"/><path d="M-197.38 1068.33l14.26-4.63v9.27z" stroke="#3a414a" fill="#3a414a"/><defs><path d="M59-47c-2 24 18 29 38 22v24C64 9 27 4 27-40v-127H5v-23h24l9-43h21v43h35v23H59v120" id="s"/><path d="M141-36C126-15 110 5 73 4 37 3 15-17 15-53c-1-64 63-63 125-63 3-35-9-54-41-54-24 1-41 7-42 31l-33-3c5-37 33-52 76-52 45 0 72 20 72 64v82c-1 20 7 32 28 27v20c-31 9-61-2-59-35zM48-53c0 20 12 33 32 33 41-3 63-29 60-74-43 2-92-5-92 41" id="t"/><path d="M115-194c53 0 69 39 70 98 0 66-23 100-70 100C84 3 66-7 56-30L54 0H23l1-261h32v101c10-23 28-34 59-34zm-8 174c40 0 45-34 45-75 0-40-5-75-45-74-42 0-51 32-51 76 0 43 10 73 51 73" id="u"/><path d="M24 0v-261h32V0H24" id="v"/><path d="M100-194c63 0 86 42 84 106H49c0 40 14 67 53 68 26 1 43-12 49-29l28 8c-11 28-37 45-77 45C44 4 14-33 15-96c1-61 26-98 85-98zm52 81c6-60-76-77-97-28-3 7-6 17-6 28h103" id="w"/><g id="a"><use transform="matrix(0.06172839506172839,0,0,0.06172839506172839,0,0)" xlink:href="#s"/><use transform="matrix(0.06172839506172839,0,0,0.06172839506172839,6.172839506172839,0)" xlink:href="#t"/><use transform="matrix(0.06172839506172839,0,0,0.06172839506172839,18.51851851851852,0)" xlink:href="#u"/><use transform="matrix(0.06172839506172839,0,0,0.06172839506172839,30.864197530864196,0)" xlink:href="#v"/><use transform="matrix(0.06172839506172839,0,0,0.06172839506172839,35.74074074074074,0)" xlink:href="#w"/></g><path d="M135-143c-3-34-86-38-87 0 15 53 115 12 119 90S17 21 10-45l28-5c4 36 97 45 98 0-10-56-113-15-118-90-4-57 82-63 122-42 12 7 21 19 24 35" id="x"/><path d="M24-231v-30h32v30H24zM24 0v-190h32V0H24" id="y"/><g id="b"><use transform="matrix(0.06172839506172839,0,0,0.06172839506172839,0,0)" xlink:href="#x"/><use transform="matrix(0.06172839506172839,0,0,0.06172839506172839,11.11111111111111,0)" xlink:href="#y"/><use transform="matrix(0.06172839506172839,0,0,0.06172839506172839,15.987654320987653,0)" xlink:href="#s"/></g><g id="c"><use transform="matrix(0.06172839506172839,0,0,0.06172839506172839,0,0)" xlink:href="#t"/><use transform="matrix(0.06172839506172839,0,0,0.06172839506172839,12.345679012345679,0)" xlink:href="#s"/></g><path d="M117-194c89-4 53 116 60 194h-32v-121c0-31-8-49-39-48C34-167 62-67 57 0H25l-1-190h30c1 10-1 24 2 32 11-22 29-35 61-36" id="z"/><g id="d"><use transform="matrix(0.06172839506172839,0,0,0.06172839506172839,0,0)" xlink:href="#y"/><use transform="matrix(0.06172839506172839,0,0,0.06172839506172839,4.876543209876543,0)" xlink:href="#z"/></g><path d="M206 0h-36l-40-164L89 0H53L-1-190h32L70-26l43-164h34l41 164 42-164h31" id="A"/><path d="M106-169C34-169 62-67 57 0H25v-261h32l-1 103c12-21 28-36 61-36 89 0 53 116 60 194h-32v-121c2-32-8-49-39-48" id="B"/><g id="e"><use transform="matrix(0.06172839506172839,0,0,0.06172839506172839,0,0)" xlink:href="#A"/><use transform="matrix(0.06172839506172839,0,0,0.06172839506172839,15.987654320987653,0)" xlink:href="#B"/><use transform="matrix(0.06172839506172839,0,0,0.06172839506172839,28.333333333333332,0)" xlink:href="#y"/><use transform="matrix(0.06172839506172839,0,0,0.06172839506172839,33.20987654320987,0)" xlink:href="#s"/><use transform="matrix(0.06172839506172839,0,0,0.06172839506172839,39.382716049382715,0)" xlink:href="#w"/></g><path d="M100-194c62-1 85 37 85 99 1 63-27 99-86 99S16-35 15-95c0-66 28-99 85-99zM99-20c44 1 53-31 53-75 0-43-8-75-51-75s-53 32-53 75 10 74 51 75" id="C"/><path d="M114-163C36-179 61-72 57 0H25l-1-190h30c1 12-1 29 2 39 6-27 23-49 58-41v29" id="D"/><g id="f"><use transform="matrix(0.06172839506172839,0,0,0.06172839506172839,0,0)" xlink:href="#x"/><use transform="matrix(0.06172839506172839,0,0,0.06172839506172839,11.11111111111111,0)" xlink:href="#s"/><use transform="matrix(0.06172839506172839,0,0,0.06172839506172839,17.28395061728395,0)" xlink:href="#C"/><use transform="matrix(0.06172839506172839,0,0,0.06172839506172839,29.629629629629626,0)" xlink:href="#D"/><use transform="matrix(0.06172839506172839,0,0,0.06172839506172839,36.9753086419753,0)" xlink:href="#w"/></g><path d="M210-169c-67 3-38 105-44 169h-31v-121c0-29-5-50-35-48C34-165 62-65 56 0H25l-1-190h30c1 10-1 24 2 32 10-44 99-50 107 0 11-21 27-35 58-36 85-2 47 119 55 194h-31v-121c0-29-5-49-35-48" id="E"/><g id="g"><use transform="matrix(0.06172839506172839,0,0,0.06172839506172839,0,0)" xlink:href="#x"/><use transform="matrix(0.06172839506172839,0,0,0.06172839506172839,11.11111111111111,0)" xlink:href="#E"/><use transform="matrix(0.06172839506172839,0,0,0.06172839506172839,29.5679012345679,0)" xlink:href="#t"/><use transform="matrix(0.06172839506172839,0,0,0.06172839506172839,41.913580246913575,0)" xlink:href="#v"/><use transform="matrix(0.06172839506172839,0,0,0.06172839506172839,46.79012345679012,0)" xlink:href="#v"/></g><g id="h"><use transform="matrix(0.06172839506172839,0,0,0.06172839506172839,0,0)" xlink:href="#A"/><use transform="matrix(0.06172839506172839,0,0,0.06172839506172839,15.987654320987653,0)" xlink:href="#C"/><use transform="matrix(0.06172839506172839,0,0,0.06172839506172839,28.333333333333332,0)" xlink:href="#E"/><use transform="matrix(0.06172839506172839,0,0,0.06172839506172839,46.79012345679012,0)" xlink:href="#t"/><use transform="matrix(0.06172839506172839,0,0,0.06172839506172839,59.1358024691358,0)" xlink:href="#z"/></g><g id="i"><use transform="matrix(0.06172839506172839,0,0,0.06172839506172839,0,0)" xlink:href="#y"/><use transform="matrix(0.06172839506172839,0,0,0.06172839506172839,4.876543209876543,0)" xlink:href="#z"/></g><g id="j"><use transform="matrix(0.06172839506172839,0,0,0.06172839506172839,0,0)" xlink:href="#s"/><use transform="matrix(0.06172839506172839,0,0,0.06172839506172839,6.172839506172839,0)" xlink:href="#A"/><use transform="matrix(0.06172839506172839,0,0,0.06172839506172839,22.160493827160494,0)" xlink:href="#C"/></g><path d="M143 0L79-87 56-68V0H24v-261h32v163l83-92h37l-77 82L181 0h-38" id="F"/><g id="k"><use transform="matrix(0.06172839506172839,0,0,0.06172839506172839,0,0)" xlink:href="#v"/><use transform="matrix(0.06172839506172839,0,0,0.06172839506172839,4.876543209876543,0)" xlink:href="#y"/><use transform="matrix(0.06172839506172839,0,0,0.06172839506172839,9.753086419753085,0)" xlink:href="#F"/><use transform="matrix(0.06172839506172839,0,0,0.06172839506172839,20.864197530864196,0)" xlink:href="#w"/></g><path d="M84 4C-5 8 30-112 23-190h32v120c0 31 7 50 39 49 72-2 45-101 50-169h31l1 190h-30c-1-10 1-25-2-33-11 22-28 36-60 37" id="G"/><g id="l"><use transform="matrix(0.04320987654320988,0,0,0.04320987654320988,0,0)" xlink:href="#u"/><use transform="matrix(0.04320987654320988,0,0,0.04320987654320988,8.641975308641976,0)" xlink:href="#G"/><use transform="matrix(0.04320987654320988,0,0,0.04320987654320988,17.283950617283953,0)" xlink:href="#x"/><use transform="matrix(0.04320987654320988,0,0,0.04320987654320988,25.06172839506173,0)" xlink:href="#y"/><use transform="matrix(0.04320987654320988,0,0,0.04320987654320988,28.47530864197531,0)" xlink:href="#z"/><use transform="matrix(0.04320987654320988,0,0,0.04320987654320988,37.117283950617285,0)" xlink:href="#w"/><use transform="matrix(0.04320987654320988,0,0,0.04320987654320988,45.75925925925927,0)" xlink:href="#x"/><use transform="matrix(0.04320987654320988,0,0,0.04320987654320988,53.537037037037045,0)" xlink:href="#x"/></g><g id="m"><use transform="matrix(0.06172839506172839,0,0,0.06172839506172839,0,0)" xlink:href="#x"/><use transform="matrix(0.06172839506172839,0,0,0.06172839506172839,11.11111111111111,0)" xlink:href="#y"/><use transform="matrix(0.06172839506172839,0,0,0.06172839506172839,15.987654320987653,0)" xlink:href="#s"/></g><path d="M96-169c-40 0-48 33-48 73s9 75 48 75c24 0 41-14 43-38l32 2c-6 37-31 61-74 61-59 0-76-41-82-99-10-93 101-131 147-64 4 7 5 14 7 22l-32 3c-4-21-16-35-41-35" id="H"/><g id="n"><use transform="matrix(0.06172839506172839,0,0,0.06172839506172839,0,0)" xlink:href="#t"/><use transform="matrix(0.06172839506172839,0,0,0.06172839506172839,12.345679012345679,0)" xlink:href="#H"/><use transform="matrix(0.06172839506172839,0,0,0.06172839506172839,23.45679012345679,0)" xlink:href="#D"/><use transform="matrix(0.06172839506172839,0,0,0.06172839506172839,30.80246913580247,0)" xlink:href="#C"/><use transform="matrix(0.06172839506172839,0,0,0.06172839506172839,43.148148148148145,0)" xlink:href="#x"/><use transform="matrix(0.06172839506172839,0,0,0.06172839506172839,54.25925925925925,0)" xlink:href="#x"/></g><g id="o"><use transform="matrix(0.06172839506172839,0,0,0.06172839506172839,0,0)" xlink:href="#x"/><use transform="matrix(0.06172839506172839,0,0,0.06172839506172839,11.11111111111111,0)" xlink:href="#E"/><use transform="matrix(0.06172839506172839,0,0,0.06172839506172839,29.5679012345679,0)" xlink:href="#y"/><use transform="matrix(0.06172839506172839,0,0,0.06172839506172839,34.44444444444444,0)" xlink:href="#v"/><use transform="matrix(0.06172839506172839,0,0,0.06172839506172839,39.32098765432099,0)" xlink:href="#w"/></g><g id="p"><use transform="matrix(0.06172839506172839,0,0,0.06172839506172839,0,0)" xlink:href="#C"/><use transform="matrix(0.06172839506172839,0,0,0.06172839506172839,12.345679012345679,0)" xlink:href="#s"/><use transform="matrix(0.06172839506172839,0,0,0.06172839506172839,18.51851851851852,0)" xlink:href="#B"/><use transform="matrix(0.06172839506172839,0,0,0.06172839506172839,30.864197530864196,0)" xlink:href="#w"/><use transform="matrix(0.06172839506172839,0,0,0.06172839506172839,43.20987654320987,0)" xlink:href="#D"/></g><path d="M101-234c-31-9-42 10-38 44h38v23H63V0H32v-167H5v-23h27c-7-52 17-82 69-68v24" id="I"/><g id="q"><use transform="matrix(0.06172839506172839,0,0,0.06172839506172839,0,0)" xlink:href="#I"/><use transform="matrix(0.06172839506172839,0,0,0.06172839506172839,6.172839506172839,0)" xlink:href="#C"/><use transform="matrix(0.06172839506172839,0,0,0.06172839506172839,18.51851851851852,0)" xlink:href="#D"/></g><path d="M115-194c55 1 70 41 70 98S169 2 115 4C84 4 66-9 55-30l1 105H24l-1-265h31l2 30c10-21 28-34 59-34zm-8 174c40 0 45-34 45-75s-6-73-45-74c-42 0-51 32-51 76 0 43 10 73 51 73" id="J"/><path d="M177-190C167-65 218 103 67 71c-23-6-38-20-44-43l32-5c15 47 100 32 89-28v-30C133-14 115 1 83 1 29 1 15-40 15-95c0-56 16-97 71-98 29-1 48 16 59 35 1-10 0-23 2-32h30zM94-22c36 0 50-32 50-73 0-42-14-75-50-75-39 0-46 34-46 75s6 73 46 73" id="K"/><g id="r"><use transform="matrix(0.03703703703703704,0,0,0.03703703703703704,0,0)" xlink:href="#J"/><use transform="matrix(0.03703703703703704,0,0,0.03703703703703704,7.407407407407408,0)" xlink:href="#B"/><use transform="matrix(0.03703703703703704,0,0,0.03703703703703704,14.814814814814817,0)" xlink:href="#C"/><use transform="matrix(0.03703703703703704,0,0,0.03703703703703704,22.222222222222225,0)" xlink:href="#s"/><use transform="matrix(0.03703703703703704,0,0,0.03703703703703704,25.92592592592593,0)" xlink:href="#C"/><use transform="matrix(0.03703703703703704,0,0,0.03703703703703704,33.33333333333334,0)" xlink:href="#K"/><use transform="matrix(0.03703703703703704,0,0,0.03703703703703704,40.74074074074075,0)" xlink:href="#D"/><use transform="matrix(0.03703703703703704,0,0,0.03703703703703704,45.14814814814815,0)" xlink:href="#t"/><use transform="matrix(0.03703703703703704,0,0,0.03703703703703704,52.55555555555556,0)" xlink:href="#J"/><use transform="matrix(0.03703703703703704,0,0,0.03703703703703704,59.96296296296296,0)" xlink:href="#B"/></g></defs></g></svg>