<svg xmlns="http://www.w3.org/2000/svg" xmlns:xlink="http://www.w3.org/1999/xlink" xmlns:lucid="lucid" width="714.69" height="517.2"><g transform="translate(-320 -1025.7963325356213)" lucid:page-tab-id="0_0"><path d="M400 1095.56a6 6 0 0 1 6-6h328a6 6 0 0 1 6 6v388a6 6 0 0 1-6 6H406a6 6 0 0 1-6-6z" fill-opacity="0"/><path d="M425.88 1089.56h19.88m9.94 0h19.88m9.94 0h19.87m9.93 0h19.88m9.95 0h19.88m9.94 0h19.88m9.94 0h19.87m9.94 0h19.88m9.94 0h19.88m9.94 0h19.88m9.94 0H734a6 6 0 0 1 6 6v9.95m0 9.96v19.9m0 9.95v19.9m0 9.95v19.9m0 9.95v19.9m0 9.94v19.9m0 9.95v19.9m0 9.94v19.9m0 9.94v19.9m0 9.95v19.9m0 9.95v19.9m0 9.94v19.9m0 9.95v19.9m0 9.94v9.96a6 6 0 0 1-6 6h-9.94m-9.94 0h-19.88m-9.94 0h-19.88m-9.93 0h-19.9m-9.93 0H604.8m-9.95 0h-19.88m-9.94 0h-19.88m-9.94 0h-19.87m-9.94 0H485.5m-9.94 0H455.7m-9.94 0h-19.88m-9.94 0H406a6 6 0 0 1-6-6v-9.95m0-9.93v-19.9m0-9.95v-19.9m0-9.95v-19.9m0-9.94v-19.9m0-9.95v-19.9m0-9.95v-19.9m0-9.94v-19.9m0-9.96v-19.9m0-9.94V1205m0-9.95v-19.9m0-9.95v-19.9m0-9.94v-19.9m0-9.95v-9.94a6 6 0 0 1 6-6h9.94" stroke="#1071e5" stroke-width="2" fill="none"/><path d="M360.5 1415.2h7.23a6 6 0 0 1 6 6v28.5a6 6 0 0 0 6 6h307.64a6 6 0 0 0 6-6v-17.2" stroke="#3a414a" fill="none"/><path d="M360.5 1415.67h-.5v-.95h.5z" stroke="#3a414a" stroke-width=".05" fill="#3a414a"/><path d="M693.37 1417.74L698 1432h-9.27z" stroke="#3a414a" fill="#3a414a"/><path d="M787.27 1114.03a6 6 0 0 1 6-6h26.5a6 6 0 0 1 6 6v28a6 6 0 0 1-6 6h-26.5a6 6 0 0 1-6-6z" fill="none"/><use xlink:href="#a" transform="matrix(1,0,0,1,787.2744886098432,1108.033263258864) translate(13.275499131944443 25.65863715277778)"/><path d="M320 1114.03a6 6 0 0 1 6-6h28a6 6 0 0 1 6 6v28a6 6 0 0 1-6 6h-28a6 6 0 0 1-6-6z" fill="none"/><use xlink:href="#b" transform="matrix(1,0,0,1,320,1108.033263258864) translate(9.163140190972221 25.65863715277778)"/><path d="M636.08 1128.68l134.8-.52" stroke="#3a414a" fill="none"/><path d="M636.1 1129.16h-.58l.06-.43-.02-.52h.53z" stroke="#3a414a" stroke-width=".05" fill="#3a414a"/><path d="M785.66 1128.1l-14.25 4.7-.03-9.27z" stroke="#3a414a" fill="#3a414a"/><path d="M486.47 1128.04l91.72.55" stroke="#3a414a" fill="none"/><path stroke="#3a414a" stroke-width=".05" fill="#3a414a"/><path d="M592.96 1128.68l-14.3 4.55.06-9.27z" stroke="#3a414a" fill="#3a414a"/><path d="M360.5 1128.03h68.08" stroke="#3a414a" fill="none"/><path d="M360.5 1128.5h-.5v-.94h.5z" stroke="#3a414a" stroke-width=".05" fill="#3a414a"/><path d="M443.35 1128.03l-14.27 4.64v-9.27z" stroke="#3a414a" fill="#3a414a"/><path d="M485.97 1128.03c0 11.05-8.96 20-20 20-11.05 0-20-8.95-20-20 0-11.04 8.95-20 20-20 11.04 0 20 8.96 20 20zm-34.15-14.14l28.3 28.28m-28.3 0l28.3-28.3M634.58 1128.7c0 11.03-8.96 20-20 20-11.05 0-20-8.97-20-20 0-11.06 8.95-20 20-20 11.04 0 20 8.94 20 20zm-40 0h40m-20-20v40" stroke="#000" stroke-width="2" fill="#fff"/><path d="M634.58 1393.95c0 11.05-8.96 20-20 20-11.05 0-20-8.95-20-20s8.95-20 20-20c11.04 0 20 8.95 20 20z" stroke="#000" stroke-width="2" fill="#cfe4ff"/><use xlink:href="#c" transform="matrix(1,0,0,1,599.5765629474317,1378.9506841093767) translate(3.1548394097222214 20.694444444444446)"/><path d="M713.37 1208.8c0 11.03-8.96 20-20 20-11.05 0-20-8.97-20-20 0-11.06 8.95-20 20-20 11.04 0 20 8.94 20 20z" stroke="#000" stroke-width="2" fill="#cfe4ff"/><use xlink:href="#c" transform="matrix(1,0,0,1,678.3693674353929,1193.788658881914) translate(3.1548394097222214 20.694444444444446)"/><path d="M465.97 1372.97v-207.55" stroke="#3a414a" fill="none"/><path d="M466.44 1373.53l-.43-.06-.5.02v-.54h.94z" stroke="#3a414a" stroke-width=".05" fill="#3a414a"/><path d="M465.97 1150.65l4.63 14.27h-9.27z" stroke="#3a414a" fill="#3a414a"/><path d="M540 1373.63v-79.5a6 6 0 0 1 6-6h31.2" stroke="#3a414a" fill="none"/><path d="M540.48 1374.18l-.44-.06-.5.02v-.53h.94z" stroke="#3a414a" stroke-width=".05" fill="#3a414a"/><path d="M591.96 1288.13l-14.27 4.63v-9.27z" stroke="#3a414a" fill="#3a414a"/><path d="M634.58 1288.13c0 11.04-8.96 20-20 20-11.05 0-20-8.96-20-20 0-11.05 8.95-20 20-20 11.04 0 20 8.95 20 20zm-34.15-14.15l28.3 28.3m-28.3 0l28.3-28.3" stroke="#000" stroke-width="2" fill="#fff"/><path d="M614.58 1372.95V1325" stroke="#3a414a" fill="none"/><path d="M615.05 1373l-.43-.05-.52.02v-.03h.95z" stroke="#3a414a" stroke-width=".05" fill="#3a414a"/><path d="M614.58 1310.24l4.63 14.27h-9.26z" stroke="#3a414a" fill="#3a414a"/><path d="M614.58 1267.13v-101.56" stroke="#3a414a" fill="none"/><path d="M615.05 1267.18l-.43-.06-.52.02v-.03h.95z" stroke="#3a414a" stroke-width=".05" fill="#3a414a"/><path d="M614.58 1150.8l4.63 14.27h-9.26z" stroke="#3a414a" fill="#3a414a"/><path d="M506 1337.15a6 6 0 0 1 6-6h28a6 6 0 0 1 6 6v28a6 6 0 0 1-6 6h-28a6 6 0 0 1-6-6z" fill="none"/><use xlink:href="#d" transform="matrix(1,0,0,1,506.00005000041665,1331.1541223916986) translate(16.33517795138889 25.65863715277778)"/><path d="M693.37 1373.63v-47.34" stroke="#3a414a" fill="none"/><path d="M693.84 1374.18l-.43-.06-.5.02v-.53h.94z" stroke="#3a414a" stroke-width=".05" fill="#3a414a"/><path d="M693.37 1311.5l4.63 14.28h-9.27z" stroke="#3a414a" fill="#3a414a"/><path d="M320 1396.2a6 6 0 0 1 6-6h28a6 6 0 0 1 6 6v38a6 6 0 0 1-6 6h-28a6 6 0 0 1-6-6z" fill="none"/><use xlink:href="#e" transform="matrix(1,0,0,1,320,1390.1919408684414) translate(9.007432725694443 30.65863715277778)"/><path d="M713.37 1288.9c0 11.04-8.96 20-20 20-11.05 0-20-8.96-20-20 0-11.06 8.95-20 20-20 11.04 0 20 8.94 20 20zm-34.14-14.15l28.28 28.28m-28.27 0l28.28-28.28" stroke="#000" stroke-width="2" fill="#fff"/><path d="M693.37 1229.8v21.7" stroke="#3a414a" fill="none"/><path d="M693.33 1229.8l.5-.03v.03h-.94v-.06z" stroke="#3a414a" stroke-width=".05" fill="#3a414a"/><path d="M693.37 1266.27l-4.64-14.26H698z" stroke="#3a414a" fill="#3a414a"/><path d="M320 1461a6 6 0 0 1 6-6h28a6 6 0 0 1 6 6v76a6 6 0 0 1-6 6h-28a6 6 0 0 1-6-6z" fill="none"/><use xlink:href="#f" transform="matrix(1,0,0,1,320,1455) translate(13.972981770833332 49.65863715277777)"/><path d="M360.5 1498.24h7.23a6 6 0 0 0 6-6v-30.53a6 6 0 0 1 6-6h18.5" stroke="#3a414a" fill="none"/><path d="M360.5 1498.7h-.5v-.93h.5z" stroke="#3a414a" stroke-width=".05" fill="#3a414a"/><path d="M398.23 1455.7h.5" stroke="#3a414a" fill="none"/><path d="M780 1275.56a6 6 0 0 1 6-6h28a6 6 0 0 1 6 6v28a6 6 0 0 1-6 6h-28a6 6 0 0 1-6-6z" fill="none"/><use xlink:href="#g" transform="matrix(1,0,0,1,780,1269.5631530142075) translate(13.619791666666666 25.65863715277778)"/><path d="M714.37 1288.9l49.25.5" stroke="#3a414a" fill="none"/><path d="M714.4 1288.42l-.02.95h-.06l.05-.43-.02-.52z" stroke="#3a414a" stroke-width=".05" fill="#3a414a"/><path d="M778.38 1289.55l-14.3 4.5.08-9.28z" stroke="#3a414a" fill="#3a414a"/><path d="M485.97 1394.47c0 11.05-8.96 20-20 20-11.05 0-20-8.95-20-20 0-11.04 8.95-20 20-20 11.04 0 20 8.96 20 20z" stroke="#000" stroke-width="2" fill="#cfe4ff"/><path d="M453.2 1379.62h25.53v29.7H453.2z" fill="#cfe4ff"/><path d="M478.7 1383.38l-.93 3.4h-8.06c1.04 2.93 3.93 3.17 3.93 6.66 0 5.22-5.18 10.4-11.94 10.4-4.8 0-6.63-4.1-6.63-7.46 0-7.93 6.06-13 12.12-13h11.5m-12.16 3.4h-.1c-3.12.28-7.6 4.3-7.6 10.9 0 1.5.52 4.76 3.04 4.76 4.6 0 8.02-5.87 8.02-9.65 0-3-1.82-5.1-3.36-6.02"/><path d="M480.85 1031.8a6 6 0 0 1 6-6H694a6 6 0 0 1 6 6v48a6 6 0 0 1-6 6H486.85a6 6 0 0 1-6-6z" fill="none"/><use xlink:href="#h" transform="matrix(1,0,0,1,480.8469249451646,1025.7963325356213) translate(17.43815104166667 38.083767361111114)"/><use xlink:href="#i" transform="matrix(1,0,0,1,480.8469249451646,1025.7963325356213) translate(139.90993923611111 38.083767361111114)"/><path d="M713.37 1395.13c0 11.04-8.96 20-20 20-11.05 0-20-8.96-20-20 0-11.05 8.95-20 20-20 11.04 0 20 8.95 20 20z" stroke="#000" stroke-width="2" fill="#cfe4ff"/><path d="M680.6 1380.28h25.53v29.7H680.6z" fill="#cfe4ff"/><path d="M706.1 1384.03l-.93 3.4h-8.06c1.03 2.94 3.92 3.17 3.92 6.67 0 5.22-5.17 10.4-11.93 10.4-4.8 0-6.63-4.1-6.63-7.47 0-7.92 6.06-13 12.12-13h11.5m-12.16 3.4h-.1c-3.12.28-7.6 4.3-7.6 10.9 0 1.5.52 4.76 3.04 4.76 4.6 0 8.02-5.88 8.02-9.66 0-2.98-1.82-5.08-3.36-6"/><path d="M560 1395.13c0 11.04-8.95 20-20 20s-20-8.96-20-20c0-11.05 8.95-20 20-20s20 8.95 20 20z" stroke="#000" stroke-width="2" fill="#cfe4ff"/><path d="M527.24 1380.28h25.52v29.7h-25.52z" fill="#cfe4ff"/><path d="M552.74 1384.03l-.94 3.4h-8.06c1.03 2.94 3.92 3.17 3.92 6.67 0 5.22-5.18 10.4-11.94 10.4-4.8 0-6.62-4.1-6.62-7.47 0-7.92 6.06-13 12.12-13h11.52m-12.17 3.4h-.1c-3.12.28-7.6 4.3-7.6 10.9 0 1.5.52 4.76 3.04 4.76 4.62 0 8.03-5.88 8.03-9.66 0-2.98-1.82-5.08-3.36-6"/><path d="M360.5 1415.2h7.23a6 6 0 0 1 6 6v28.5a6 6 0 0 0 6 6h80.24a6 6 0 0 0 6-6v-17.84" stroke="#3a414a" fill="none"/><path d="M360.5 1415.67h-.5v-.95h.5z" stroke="#3a414a" stroke-width=".05" fill="#3a414a"/><path d="M465.97 1417.1l4.63 14.26h-9.27z" stroke="#3a414a" fill="#3a414a"/><path d="M360.5 1415.2h7.23a6 6 0 0 1 6 6v28.5a6 6 0 0 0 6 6H534a6 6 0 0 0 6-6v-17.2" stroke="#3a414a" fill="none"/><path d="M360.5 1415.67h-.5v-.95h.5z" stroke="#3a414a" stroke-width=".05" fill="#3a414a"/><path d="M540 1417.74l4.63 14.27h-9.26z" stroke="#3a414a" fill="#3a414a"/><path d="M360.5 1415.2h7.23a6 6 0 0 1 6 6v28.5a6 6 0 0 0 6 6h228.85a6 6 0 0 0 6-6v-18.37" stroke="#3a414a" fill="none"/><path d="M360.5 1415.67h-.5v-.95h.5z" stroke="#3a414a" stroke-width=".05" fill="#3a414a"/><path d="M614.58 1416.57l4.63 14.27h-9.26z" stroke="#3a414a" fill="#3a414a"/><path d="M360.5 1415.2h7.23a6 6 0 0 1 6 6v28.5a6 6 0 0 0 6 6h307.64a6 6 0 0 0 6-6v-17.2" stroke="#3a414a" fill="none"/><path d="M360.5 1415.67h-.5v-.95h.5z" stroke="#3a414a" stroke-width=".05" fill="#3a414a"/><path d="M693.37 1417.74L698 1432h-9.27z" stroke="#3a414a" fill="#3a414a"/><path d="M660 1337.15a6 6 0 0 1 6-6h28a6 6 0 0 1 6 6v28a6 6 0 0 1-6 6h-28a6 6 0 0 1-6-6z" fill="none"/><use xlink:href="#j" transform="matrix(1,0,0,1,660.0000500004166,1331.1541223916986) translate(13.555230034722221 25.65863715277778)"/><path d="M430.97 1336.5a6 6 0 0 1 6-6h28a6 6 0 0 1 6 6v28a6 6 0 0 1-6 6h-28a6 6 0 0 1-6-6z" fill="none"/><use xlink:href="#k" transform="matrix(1,0,0,1,430.9694443619502,1330.5002850067124) translate(15.340169270833332 25.65863715277778)"/><path d="M594.58 1343.63h14.5v20h-14.5z" fill="#fff" fill-opacity="0"/><path d="M601.7 1356.42l.25.26c-1 1.18-2.22 2.14-3.9 2.14-1.9 0-2.7-1.53-2.7-3.04 0-2.76 2.4-5.85 5.18-5.85 1 0 1.9.54 1.9 1.5 0 .75-.3 1.38-1.05 1.38-.5 0-.75-.4-.75-.74 0-.47.57-.7.57-1.14 0-.24-.2-.4-.67-.4-2.33 0-3.46 3.5-3.46 5.08 0 1.7.97 2.14 1.85 2.14 1.2 0 2.1-.65 2.8-1.32M600.67 1345.96h.57c-.4 1.5-.98 2.1-2.06 2.1-.5 0-.8-.1-1.6-.48-.74-.36-.9-.44-1.25-.44-.46 0-.8.3-1 .9h-.58c.3-1.27 1-1.98 2-1.98.42 0 .9.12 1.37.36.84.43 1.12.55 1.5.55.46 0 .72-.28 1.05-1M606.67 1355.48l-.14.53h-.97l-1.08 4.46c-.02.04-.03.1-.03.15 0 .1.04.18.22.18 0 0 .32-.03.83-.73l.18.16c-.33.44-1.02 1.5-1.84 1.5-.44 0-.55-.35-.55-.73 0-.18.02-.36.06-.5l1.13-4.46h-1.08l.07-.4c1.03-.2 1.88-.7 2.45-1.9h.18l-.43 1.78h.97"/><path d="M636.08 1128.7h52.78a6 6 0 0 1 6 6v36.88" stroke="#3a414a" fill="none"/><path d="M636.1 1129.16h-.58l.06-.43-.02-.52h.53z" stroke="#3a414a" stroke-width=".05" fill="#3a414a"/><path d="M694.86 1186.35l-4.64-14.27h9.27z" stroke="#3a414a" fill="#3a414a"/><path d="M864.07 1129.96c0 11.05-8.95 20-20 20s-20-8.95-20-20 8.95-20 20-20 20 8.95 20 20zm-34.14-14.14l28.28 28.3m-28.27 0l28.28-28.3M864.07 1211.84c0 11.05-8.95 20-20 20s-20-8.95-20-20c0-11.04 8.95-20 20-20s20 8.96 20 20zm-40 0h40m-20-20v40" stroke="#000" stroke-width="2" fill="#fff"/><path d="M864.07 1293.73c0 11.04-8.95 20-20 20s-20-8.96-20-20c0-11.05 8.95-20 20-20s20 8.95 20 20z" stroke="#000" stroke-width="2" fill="#cfe4ff"/><use xlink:href="#l" transform="matrix(1,0,0,1,829.0702527656707,1278.727399233256) translate(3.1548394097222214 20.694444444444446)"/><path d="M900.58 1346.8a6 6 0 0 1 6-6h108a6 6 0 0 1 6 6v47.7a6 6 0 0 1-6 6h-108a6 6 0 0 1-6-6z" fill="none"/><use xlink:href="#m" transform="matrix(1,0,0,1,900.5837316656543,1340.8108899125643) translate(19.804687499999993 24.365668402777775)"/><use xlink:href="#n" transform="matrix(1,0,0,1,900.5837316656543,1340.8108899125643) translate(5.718858506944436 46.95160590277778)"/><path d="M900.9 1184a6 6 0 0 1 6-6h108a6 6 0 0 1 6 6v48a6 6 0 0 1-6 6h-108a6 6 0 0 1-6-6z" fill="none"/><use xlink:href="#o" transform="matrix(1,0,0,1,900.8851780754649,1177.9903476807663) translate(12.953559027777771 24.365668402777775)"/><use xlink:href="#p" transform="matrix(1,0,0,1,900.8851780754649,1177.9903476807663) translate(10.029296874999993 46.95160590277778)"/><path d="M900.58 1265.87a6 6 0 0 1 6-6h108a6 6 0 0 1 6 6v48a6 6 0 0 1-6 6h-108a6 6 0 0 1-6-6z" fill="none"/><use xlink:href="#m" transform="matrix(1,0,0,1,900.5837316656543,1259.8737579200595) translate(19.804687499999993 15.069444444444446)"/><use xlink:href="#q" transform="matrix(1,0,0,1,900.5837316656543,1259.8737579200595) translate(17.719726562499993 37.65538194444445)"/><use xlink:href="#r" transform="matrix(1,0,0,1,900.5837316656543,1259.8737579200595) translate(-12.8976779513889 60.24131944444446)"/><path d="M900.58 1102.1a6 6 0 0 1 6-6h108a6 6 0 0 1 6 6v48a6 6 0 0 1-6 6h-108a6 6 0 0 1-6-6z" fill="none"/><use xlink:href="#s" transform="matrix(1,0,0,1,900.5837316656543,1096.106937441473) translate(18.976779513888886 24.365668402777775)"/><use xlink:href="#p" transform="matrix(1,0,0,1,900.5837316656543,1096.106937441473) translate(10.029296874999993 46.95160590277778)"/><path d="M864.07 1374.5c0 11.06-8.95 20-20 20s-20-8.94-20-20c0-11.04 8.95-20 20-20s20 8.96 20 20z" stroke="#000" stroke-width="2" fill="#cfe4ff"/><path d="M831.3 1359.66h25.53v29.7H831.3z" fill="#cfe4ff"/><path d="M856.8 1363.4l-.93 3.4-8.06.02c1.04 2.93 3.93 3.16 3.93 6.66 0 5.22-5.18 10.4-11.94 10.4-4.8 0-6.63-4.1-6.63-7.46 0-7.93 6.06-13 12.12-13h11.5m-12.16 3.4h-.1c-3.12.28-7.6 4.28-7.6 10.9 0 1.5.52 4.76 3.04 4.76 4.62 0 8.02-5.88 8.02-9.65 0-2.98-1.82-5.08-3.36-6"/><path d="M820 1055.4a6 6 0 0 1 6-6h168a6 6 0 0 1 6 6v34.7a6 6 0 0 1-6 6H826a6 6 0 0 1-6-6z" fill="none"/><use xlink:href="#t" transform="matrix(1,0,0,1,820,1049.3881399386169) translate(53.29101562499999 29.15863715277778)"/><path d="M894.22 1415.74a6 6 0 0 1 6-6h128a6 6 0 0 1 6 6v48a6 6 0 0 1-6 6h-128a6 6 0 0 1-6-6z" fill="none"/><use xlink:href="#u" transform="matrix(1,0,0,1,894.220975970576,1409.738166089798) translate(28.96918402777778 24.365668402777775)"/><use xlink:href="#v" transform="matrix(1,0,0,1,894.220975970576,1409.738166089798) translate(10.432400173611107 46.95160590277778)"/><path d="M877.84 1439.24h-12.7a6 6 0 0 1-6-6v-5.07a6 6 0 0 0-6-6h-28.57" stroke="#3a414a" fill="none"/><path d="M892.6 1439.24l-14.26 4.63v-9.27z" stroke="#3a414a" fill="#3a414a"/><path d="M824.58 1422.17h-.5M824.57 1439.14l53.27.23M824.58 1439.14h-.5" stroke="#3a414a" fill="none"/><path d="M892.6 1439.43l-14.28 4.58.04-9.26z" stroke="#3a414a" fill="#3a414a"/><path d="M894.22 1475.74a6 6 0 0 1 6-6h128a6 6 0 0 1 6 6v48a6 6 0 0 1-6 6h-128a6 6 0 0 1-6-6z" fill="none"/><use xlink:href="#u" transform="matrix(1,0,0,1,894.220975970576,1469.738166089798) translate(28.96918402777778 24.365668402777775)"/><use xlink:href="#w" transform="matrix(1,0,0,1,894.220975970576,1469.738166089798) translate(20.181206597222214 46.95160590277778)"/><path d="M893.72 1499.24h-28.57a6 6 0 0 1-6-6v-5.07a6 6 0 0 0-6-6h-12.7" stroke="#3a414a" fill="none"/><path d="M894.22 1499.7h-.5v-.94h.5z" stroke="#3a414a" stroke-width=".05" fill="#3a414a"/><path d="M825.7 1482.17l14.25-4.63v9.27z" stroke="#3a414a" fill="#3a414a"/><path d="M840.45 1499.2l53.27.24" stroke="#3a414a" fill="none"/><path d="M825.7 1499.15l14.27-4.58-.04 9.28z" stroke="#3a414a" fill="#3a414a"/><path d="M894.22 1498.97v.95h-.5v-.96z" stroke="#3a414a" stroke-width=".05" fill="#3a414a"/><defs><path d="M613 24c-304 0-509-231-509-576 0-350 205-580 509-580 216 0 392 114 453 309l-173 49c-33-115-133-197-280-197-223 0-326 196-326 419 0 220 103 415 326 415 150 0 252-85 285-206l172 49C1010-95 832 24 613 24" id="x"/><path d="M598-1118v154H368v674c0 100 37 144 132 144 23 0 62-6 92-12L629-6c-37 13-88 20-134 20-193 0-307-107-307-290v-688H20v-154h168v-266h180v266h230" id="y"/><g id="a"><use transform="matrix(0.007595486111111112,0,0,0.007595486111111112,0,0)" xlink:href="#x"/><use transform="matrix(0.005316840277777778,0,0,0.005316840277777778,8.886718750000002,2.6371527777777777)" xlink:href="#y"/></g><path d="M798-719v166H144v-166h654" id="z"/><path d="M653-1490V0H466v-1314h-10L96-1047v-204l324-239h233" id="A"/><g id="b"><use transform="matrix(0.007595486111111112,0,0,0.007595486111111112,0,0)" xlink:href="#x"/><use transform="matrix(0.005316840277777778,0,0,0.005316840277777778,8.886718750000002,2.6371527777777777)" xlink:href="#y"/><use transform="matrix(0.005316840277777778,0,0,0.005316840277777778,12.236328125000002,2.6371527777777777)" xlink:href="#z"/><use transform="matrix(0.005316840277777778,0,0,0.005316840277777778,17.244791666666668,2.6371527777777777)" xlink:href="#A"/></g><path d="M691-1118l-25 154H437L325-290c-17 103 16 144 108 144 23 0 63-6 94-12L538-6c-36 12-87 20-136 20-196 0-290-109-260-290l114-688H88l25-154h169l44-266h180l-44 266h229" id="B"/><path d="M456 442C197 442 73 327 25 209l155-84c33 60 86 160 280 160 184 0 332-89 363-272l37-218-16 4C793-134 707-18 498-18 260-18 96-170 96-443c0-341 216-689 568-689 222 0 274 139 301 198l21-5 30-179h175L999 35c-48 288-275 407-543 407zm75-620c274 0 401-267 401-512 0-170-80-281-247-281-260 0-408 269-408 518 0 167 83 275 254 275" id="C"/><path d="M356-670L245 0H65l247-1490h180l-94 565c97-150 219-207 362-207 226 0 365 139 318 422L960 0H779l116-695c29-174-53-275-208-275-158 0-299 107-331 300" id="D"/><g id="c"><use transform="matrix(0.007595486111111112,0,0,0.007595486111111112,0,0)" xlink:href="#B"/><use transform="matrix(0.007595486111111112,0,0,0.007595486111111112,4.952256944444445,0)" xlink:href="#C"/><use transform="matrix(0.007595486111111112,0,0,0.007595486111111112,14.492187500000002,0)" xlink:href="#D"/></g><path d="M158 0v-1118h180V0H158zm91-1301c-68 0-125-53-125-119s57-119 125-119c69 0 126 53 126 119s-57 119-126 119" id="E"/><g id="d"><use transform="matrix(0.007595486111111112,0,0,0.007595486111111112,0,0)" xlink:href="#E"/><use transform="matrix(0.005316840277777778,0,0,0.005316840277777778,3.7673611111111116,2.6371527777777777)" xlink:href="#y"/></g><path d="M338-670V0H158v-1490h180v566c73-149 190-208 336-208 226 0 379 139 379 422V0H872v-695c0-172-96-275-252-275-161 0-282 109-282 300" id="F"/><g id="e"><use transform="matrix(0.007595486111111112,0,0,0.007595486111111112,0,0)" xlink:href="#F"/><use transform="matrix(0.005316840277777778,0,0,0.005316840277777778,9.198133680555557,2.6371527777777777)" xlink:href="#y"/><use transform="matrix(0.005316840277777778,0,0,0.005316840277777778,12.547743055555555,2.6371527777777777)" xlink:href="#z"/><use transform="matrix(0.005316840277777778,0,0,0.005316840277777778,17.556206597222225,2.6371527777777777)" xlink:href="#A"/></g><path d="M65 0l393-574-370-544h210c88 136 192 297 267 435 67-142 176-302 264-435h206L661-564 1053 0H844c-94-144-206-310-287-458C484-308 366-142 273 0H65" id="G"/><g id="f"><use transform="matrix(0.007595486111111112,0,0,0.007595486111111112,0,0)" xlink:href="#G"/><use transform="matrix(0.005316840277777778,0,0,0.005316840277777778,8.491753472222223,2.6371527777777777)" xlink:href="#y"/></g><g id="g"><use transform="matrix(0.007595486111111112,0,0,0.007595486111111112,0,0)" xlink:href="#F"/><use transform="matrix(0.005316840277777778,0,0,0.005316840277777778,9.198133680555557,2.6371527777777777)" xlink:href="#y"/></g><path d="M135 0v-1490h305c1 251 0 501-5 746 157-254 405-512 598-746h373L849-845 1422 0h-361L638-644 440-426V0H135" id="H"/><path d="M789 20C394 20 94-260 94-744c0-487 300-766 695-766s695 279 695 766c0 485-300 764-695 764zm0-271c231 0 385-174 385-493 0-321-154-495-385-495s-385 175-385 495c0 319 154 493 385 493" id="I"/><path d="M135 0v-1490h468l242 684c30 94 76 293 111 455 34-161 80-360 110-455l238-684h470V0h-307c0-447-3-765 11-1227-122 503-246 788-395 1227H826C676-435 552-717 427-1215c15 453 11 775 11 1215H135" id="J"/><path d="M789 20C394 20 94-260 94-744c0-487 300-766 695-766s695 279 695 766c0 485-300 764-695 764zm0-271c231 0 385-174 385-493 0-321-154-495-385-495s-385 175-385 495c0 319 154 493 385 493zM681-1632l139-311h278l-207 311H681" id="K"/><path d="M135 0v-1490h581c339 0 533 192 533 485 0 204-94 351-264 424L1302 0H964L680-532H440V0H135zm305-779h220c186 0 274-77 274-226 0-150-88-233-275-233H440v459" id="L"/><path d="M49 0l509-1490h400L1480 0h-339l-115-346H497L386 0H49zm524-585h374c-75-213-124-402-192-666-66 268-110 453-182 666" id="M"/><g id="h"><use transform="matrix(0.010850694444444444,0,0,0.010850694444444444,0,0)" xlink:href="#H"/><use transform="matrix(0.010850694444444444,0,0,0.010850694444444444,15.093315972222221,0)" xlink:href="#I"/><use transform="matrix(0.010850694444444444,0,0,0.010850694444444444,32.21571180555556,0)" xlink:href="#J"/><use transform="matrix(0.010850694444444444,0,0,0.010850694444444444,52.91883680555556,0)" xlink:href="#K"/><use transform="matrix(0.010850694444444444,0,0,0.010850694444444444,70.04123263888889,0)" xlink:href="#L"/><use transform="matrix(0.010850694444444444,0,0,0.010850694444444444,84.63541666666666,0)" xlink:href="#H"/><use transform="matrix(0.010850694444444444,0,0,0.010850694444444444,100.61848958333333,0)" xlink:href="#M"/></g><path d="M135 0v-1490h305v1237h643V0H135" id="N"/><path d="M681 22C323 22 94-145 85-462h297c10 151 131 226 296 226 163 0 271-77 271-190 0-102-95-149-257-189l-164-41c-252-61-403-188-403-405 0-269 236-449 560-449 330 0 546 183 551 445H941c-11-119-106-188-259-188-156 0-244 72-244 172-3 156 226 185 373 221 250 61 445 186 445 436 0 271-213 446-575 446" id="O"/><path d="M75-1237v-253h1217v253H837V0H531v-1237H75" id="P"/><g id="i"><use transform="matrix(0.010850694444444444,0,0,0.010850694444444444,0,0)" xlink:href="#N"/><use transform="matrix(0.010850694444444444,0,0,0.010850694444444444,12.565104166666666,0)" xlink:href="#O"/><use transform="matrix(0.010850694444444444,0,0,0.010850694444444444,27.115885416666664,0)" xlink:href="#P"/><use transform="matrix(0.010850694444444444,0,0,0.010850694444444444,41.94878472222222,0)" xlink:href="#J"/></g><path d="M613 24c-304 0-509-231-509-576 0-350 205-580 509-580 305 0 511 230 511 580 0 345-206 576-511 576zm0-161c226 0 329-195 329-415 0-222-103-419-329-419-223 0-326 196-326 419 0 220 103 415 326 415" id="Q"/><g id="j"><use transform="matrix(0.007595486111111112,0,0,0.007595486111111112,0,0)" xlink:href="#Q"/><use transform="matrix(0.005316840277777778,0,0,0.005316840277777778,9.327256944444445,2.6371527777777777)" xlink:href="#y"/></g><path d="M678-1118v154H420V0H240v-964H20v-154h220v-149c0-194 155-293 318-293 85 0 141 18 168 30l-50 154c-19-6-47-17-97-17-111 0-159 58-159 166v109h258" id="R"/><g id="k"><use transform="matrix(0.007595486111111112,0,0,0.007595486111111112,0,0)" xlink:href="#R"/><use transform="matrix(0.005316840277777778,0,0,0.005316840277777778,5.757378472222224,2.6371527777777777)" xlink:href="#y"/></g><g id="l"><use transform="matrix(0.007595486111111112,0,0,0.007595486111111112,0,0)" xlink:href="#B"/><use transform="matrix(0.007595486111111112,0,0,0.007595486111111112,4.952256944444445,0)" xlink:href="#C"/><use transform="matrix(0.007595486111111112,0,0,0.007595486111111112,14.492187500000002,0)" xlink:href="#D"/></g><path d="M458 0L52-1490h194c108 439 233 855 324 1313 92-459 221-873 331-1313h216c110 438 234 854 330 1307 92-455 216-869 323-1307h196L1558 0h-221l-256-944c-26-95-50-200-73-331-22 122-44 223-73 331L680 0H458" id="S"/><path d="M52 0l541-1490h220L1361 0h-200l-149-416H398L254 0H52zm404-582h497c-103-290-145-390-251-756-108 377-145 460-246 756" id="T"/><path d="M180 0v-1490h510c348 0 508 194 508 460 0 198-88 351-276 417L1256 0h-220L726-579c-117 2-238 0-356 1V0H180zm190-747h312c235 0 327-108 327-283 0-177-92-293-329-293H370v576" id="U"/><path d="M657 26c-323 0-524-166-541-416h195c15 169 171 246 346 246 202 0 356-106 356-265 5-203-294-238-475-293-239-73-380-191-380-389 0-252 224-419 512-419 294 0 499 171 508 396H992c-17-145-151-228-328-228-193 0-321 102-321 242 0 156 175 211 284 241l149 41c160 44 422 134 422 412 0 244-197 432-541 432" id="V"/><path d="M98-1322v-168h1126v168H757V0H567v-1322H98" id="W"/><g id="m"><use transform="matrix(0.007595486111111112,0,0,0.007595486111111112,0,0)" xlink:href="#S"/><use transform="matrix(0.007595486111111112,0,0,0.007595486111111112,14.446614583333334,0)" xlink:href="#T"/><use transform="matrix(0.007595486111111112,0,0,0.007595486111111112,25.179036458333336,0)" xlink:href="#U"/><use transform="matrix(0.007595486111111112,0,0,0.007595486111111112,35.18988715277778,0)" xlink:href="#V"/><use transform="matrix(0.007595486111111112,0,0,0.007595486111111112,45.17035590277778,0)" xlink:href="#W"/><use transform="matrix(0.007595486111111112,0,0,0.007595486111111112,55.21158854166667,0)" xlink:href="#S"/><use transform="matrix(0.007595486111111112,0,0,0.007595486111111112,69.65820312500001,0)" xlink:href="#T"/></g><path d="M370-1490V0H180v-1490h190" id="X"/><path d="M789 20c-398 0-667-293-667-764 0-473 273-766 655-766 315 0 558 198 612 487h-196c-61-191-204-311-415-311-262 0-471 207-471 590 0 380 208 588 482 588 249 0 420-165 425-427H828v-166h572v163c0 370-256 606-611 606" id="Y"/><path d="M180 0v-1490h270l367 940c28 72 75 218 110 339 35-117 81-264 110-339l362-940h271V0h-187c2-448-5-837 7-1287-157 497-311 829-483 1287H842C666-458 514-784 354-1284c12 438 5 843 7 1284H180" id="Z"/><path d="M784 20c-382 0-662-292-662-764 0-473 280-766 662-766s660 293 660 766c0 472-278 764-660 764zm0-176c266 0 475-207 475-588 0-383-209-590-475-590-268 0-477 208-477 590 0 380 209 588 477 588" id="aa"/><path d="M645 0H180v-1490h484c435 0 692 280 692 742 0 466-257 748-711 748zM370-168h263c363 0 539-218 539-580 0-358-176-574-521-574H370v1154" id="ab"/><path d="M180 0v-1490h190v1322h690V0H180" id="ac"/><path d="M180 0v-1490h224l606 953c40 63 108 177 176 312-27-437-7-821-13-1265h190V0h-226C860-448 622-778 356-1262c27 476 11 792 15 1262H180" id="ad"/><g id="n"><use transform="matrix(0.007595486111111112,0,0,0.007595486111111112,0,0)" xlink:href="#V"/><use transform="matrix(0.007595486111111112,0,0,0.007595486111111112,9.980468750000002,0)" xlink:href="#X"/><use transform="matrix(0.007595486111111112,0,0,0.007595486111111112,14.157986111111114,0)" xlink:href="#Y"/><use transform="matrix(0.007595486111111112,0,0,0.007595486111111112,25.763888888888893,0)" xlink:href="#Z"/><use transform="matrix(0.007595486111111112,0,0,0.007595486111111112,39.81553819444445,0)" xlink:href="#aa"/><use transform="matrix(0.007595486111111112,0,0,0.007595486111111112,51.71006944444445,0)" xlink:href="#X"/><use transform="matrix(0.007595486111111112,0,0,0.007595486111111112,55.887586805555564,0)" xlink:href="#ab"/><use transform="matrix(0.007595486111111112,0,0,0.007595486111111112,66.58203125000001,0)" xlink:href="#T"/><use transform="matrix(0.007595486111111112,0,0,0.007595486111111112,77.31445312500001,0)" xlink:href="#ac"/><use transform="matrix(0.007595486111111112,0,0,0.007595486111111112,86.11002604166669,0)" xlink:href="#ad"/><use transform="matrix(0.007595486111111112,0,0,0.007595486111111112,97.82986111111113,0)" xlink:href="#T"/></g><path d="M180 0v-1490h908v168H370v486h669v168H370v500h727V0H180" id="ae"/><g id="o"><use transform="matrix(0.007595486111111112,0,0,0.007595486111111112,0,0)" xlink:href="#ab"/><use transform="matrix(0.007595486111111112,0,0,0.007595486111111112,11.226128472222223,0)" xlink:href="#aa"/><use transform="matrix(0.007595486111111112,0,0,0.007595486111111112,23.120659722222225,0)" xlink:href="#ab"/><use transform="matrix(0.007595486111111112,0,0,0.007595486111111112,33.81510416666667,0)" xlink:href="#T"/><use transform="matrix(0.007595486111111112,0,0,0.007595486111111112,43.666449652777786,0)" xlink:href="#S"/><use transform="matrix(0.007595486111111112,0,0,0.007595486111111112,58.11306423611112,0)" xlink:href="#T"/><use transform="matrix(0.007595486111111112,0,0,0.007595486111111112,68.84548611111113,0)" xlink:href="#ad"/><use transform="matrix(0.007595486111111112,0,0,0.007595486111111112,80.56532118055557,0)" xlink:href="#X"/><use transform="matrix(0.007595486111111112,0,0,0.007595486111111112,84.74283854166669,0)" xlink:href="#ae"/></g><path d="M180 0v-1490h190v644h782v-644h190V0h-190v-678H370V0H180" id="af"/><g id="p"><use transform="matrix(0.007595486111111112,0,0,0.007595486111111112,0,0)" xlink:href="#af"/><use transform="matrix(0.007595486111111112,0,0,0.007595486111111112,11.560329861111112,0)" xlink:href="#T"/><use transform="matrix(0.007595486111111112,0,0,0.007595486111111112,22.292751736111114,0)" xlink:href="#ab"/><use transform="matrix(0.007595486111111112,0,0,0.007595486111111112,32.98719618055556,0)" xlink:href="#T"/><use transform="matrix(0.007595486111111112,0,0,0.007595486111111112,43.71961805555556,0)" xlink:href="#Z"/><use transform="matrix(0.007595486111111112,0,0,0.007595486111111112,57.771267361111114,0)" xlink:href="#T"/><use transform="matrix(0.007595486111111112,0,0,0.007595486111111112,68.50368923611111,0)" xlink:href="#U"/><use transform="matrix(0.007595486111111112,0,0,0.007595486111111112,78.51453993055556,0)" xlink:href="#ab"/><use transform="matrix(0.007595486111111112,0,0,0.007595486111111112,89.20898437500001,0)" xlink:href="#T"/></g><g id="q"><use transform="matrix(0.007595486111111112,0,0,0.007595486111111112,0,0)" xlink:href="#W"/><use transform="matrix(0.007595486111111112,0,0,0.007595486111111112,8.719618055555555,0)" xlink:href="#T"/><use transform="matrix(0.007595486111111112,0,0,0.007595486111111112,19.452039930555557,0)" xlink:href="#ad"/><use transform="matrix(0.007595486111111112,0,0,0.007595486111111112,31.171875000000004,0)" xlink:href="#Y"/><use transform="matrix(0.007595486111111112,0,0,0.007595486111111112,42.777777777777786,0)" xlink:href="#ae"/><use transform="matrix(0.007595486111111112,0,0,0.007595486111111112,52.127821180555564,0)" xlink:href="#ad"/><use transform="matrix(0.007595486111111112,0,0,0.007595486111111112,63.84765625000002,0)" xlink:href="#V"/><use transform="matrix(0.007595486111111112,0,0,0.007595486111111112,73.82812500000001,0)" xlink:href="#T"/></g><path d="M180 0v-1490h510c348 0 508 209 508 474 0 266-160 477-507 477H370V0H180zm190-706h312c236 0 327-133 327-310 0-176-91-307-329-307H370v617" id="ag"/><path d="M180 0v-1490h528c311 0 458 177 458 395 0 191-114 278-244 313v14c139 9 302 137 302 371 0 225-148 397-499 397H180zm190-168h350c232 0 321-102 321-231 0-149-120-277-311-277H370v508zm0-668h328c160 0 286-101 286-255 0-129-87-231-280-231H370v486" id="ah"/><path d="M783 20c-382 0-661-292-661-764 0-473 279-766 661-766 302 0 548 182 601 489h-190c-42-204-217-313-411-313-268 0-476 208-476 590 0 381 209 588 476 588 195 0 369-110 411-313h190c-52 303-296 489-601 489" id="ai"/><path d="M130 0v-134l666-991c45-67 96-135 147-202-269 9-546 3-821 5v-168h1036v136L502-379c-49 72-103 145-157 216 268-9 546-3 821-5V0H130" id="aj"/><g id="r"><use transform="matrix(0.007595486111111112,0,0,0.007595486111111112,0,0)" xlink:href="#af"/><use transform="matrix(0.007595486111111112,0,0,0.007595486111111112,11.560329861111112,0)" xlink:href="#X"/><use transform="matrix(0.007595486111111112,0,0,0.007595486111111112,15.737847222222223,0)" xlink:href="#ag"/><use transform="matrix(0.007595486111111112,0,0,0.007595486111111112,25.672743055555557,0)" xlink:href="#ae"/><use transform="matrix(0.007595486111111112,0,0,0.007595486111111112,35.022786458333336,0)" xlink:href="#U"/><use transform="matrix(0.007595486111111112,0,0,0.007595486111111112,45.03363715277778,0)" xlink:href="#ah"/><use transform="matrix(0.007595486111111112,0,0,0.007595486111111112,55.21158854166667,0)" xlink:href="#aa"/><use transform="matrix(0.007595486111111112,0,0,0.007595486111111112,67.10611979166667,0)" xlink:href="#ac"/><use transform="matrix(0.007595486111111112,0,0,0.007595486111111112,75.90169270833334,0)" xlink:href="#X"/><use transform="matrix(0.007595486111111112,0,0,0.007595486111111112,80.07921006944446,0)" xlink:href="#ai"/><use transform="matrix(0.007595486111111112,0,0,0.007595486111111112,91.44205729166669,0)" xlink:href="#aj"/><use transform="matrix(0.007595486111111112,0,0,0.007595486111111112,101.2250434027778,0)" xlink:href="#ad"/><use transform="matrix(0.007595486111111112,0,0,0.007595486111111112,112.94487847222224,0)" xlink:href="#ae"/><use transform="matrix(0.007595486111111112,0,0,0.007595486111111112,122.29492187500003,0)" xlink:href="#Y"/><use transform="matrix(0.007595486111111112,0,0,0.007595486111111112,133.9008246527778,0)" xlink:href="#aa"/></g><path d="M130 0v-134l666-991c45-67 96-135 147-202-269 9-546 3-821 5v-168h1036v136L502-379c-49 72-103 145-157 216 268-9 546-3 821-5V0H130zm514-1673c-68 0-125-53-125-119s57-119 125-119c69 0 126 53 126 119s-57 119-126 119" id="ak"/><g id="s"><use transform="matrix(0.007595486111111112,0,0,0.007595486111111112,0,0)" xlink:href="#Z"/><use transform="matrix(0.007595486111111112,0,0,0.007595486111111112,14.051649305555557,0)" xlink:href="#ad"/><use transform="matrix(0.007595486111111112,0,0,0.007595486111111112,25.771484375000004,0)" xlink:href="#aa"/><use transform="matrix(0.007595486111111112,0,0,0.007595486111111112,37.66601562500001,0)" xlink:href="#ak"/><use transform="matrix(0.007595486111111112,0,0,0.007595486111111112,47.44900173611112,0)" xlink:href="#ae"/><use transform="matrix(0.007595486111111112,0,0,0.007595486111111112,56.7990451388889,0)" xlink:href="#ad"/><use transform="matrix(0.007595486111111112,0,0,0.007595486111111112,68.51888020833334,0)" xlink:href="#X"/><use transform="matrix(0.007595486111111112,0,0,0.007595486111111112,72.69639756944446,0)" xlink:href="#ae"/></g><path d="M135 0v-1490h997v253H440v360h640v249H440v375h694V0H135" id="al"/><path d="M795 20C377 20 94-272 94-743c0-483 302-767 694-767 335 0 593 206 635 500h-310c-42-142-154-229-320-229-230 0-389 177-389 493s154 495 393 495c212 0 340-120 345-311H818v-232h620v186c0 391-269 628-643 628" id="am"/><path d="M135 0v-1490h340l471 754c59 97 122 210 187 365-32-387-14-721-19-1119h312V0h-341C855-382 627-689 427-1113c32 420 16 695 20 1113H135" id="an"/><path d="M659 0H135v-1490h529c448 0 721 280 721 744 0 466-273 746-726 746zM440-263h204c287 0 437-148 437-483 0-333-150-481-435-481H440v964" id="ao"/><g id="t"><use transform="matrix(0.007595486111111112,0,0,0.007595486111111112,0,0)" xlink:href="#N"/><use transform="matrix(0.007595486111111112,0,0,0.007595486111111112,8.795572916666668,0)" xlink:href="#al"/><use transform="matrix(0.007595486111111112,0,0,0.007595486111111112,18.244357638888893,0)" xlink:href="#am"/><use transform="matrix(0.007595486111111112,0,0,0.007595486111111112,29.91861979166667,0)" xlink:href="#al"/><use transform="matrix(0.007595486111111112,0,0,0.007595486111111112,39.36740451388889,0)" xlink:href="#an"/><use transform="matrix(0.007595486111111112,0,0,0.007595486111111112,51.22395833333334,0)" xlink:href="#ao"/><use transform="matrix(0.007595486111111112,0,0,0.007595486111111112,61.80447048611112,0)" xlink:href="#M"/></g><path d="M545 20c-263 0-445-160-445-446v-80h190v80c0 182 102 279 255 279 152 0 254-97 254-279v-1064h190v1064c0 286-181 446-444 446" id="ap"/><g id="u"><use transform="matrix(0.007595486111111112,0,0,0.007595486111111112,0,0)" xlink:href="#aa"/><use transform="matrix(0.007595486111111112,0,0,0.007595486111111112,11.894531250000002,0)" xlink:href="#ag"/><use transform="matrix(0.007595486111111112,0,0,0.007595486111111112,21.829427083333336,0)" xlink:href="#ae"/><use transform="matrix(0.007595486111111112,0,0,0.007595486111111112,31.179470486111114,0)" xlink:href="#U"/><use transform="matrix(0.007595486111111112,0,0,0.007595486111111112,41.19032118055556,0)" xlink:href="#T"/><use transform="matrix(0.007595486111111112,0,0,0.007595486111111112,51.39105902777778,0)" xlink:href="#ai"/><use transform="matrix(0.007595486111111112,0,0,0.007595486111111112,62.75390625000001,0)" xlink:href="#ap"/><use transform="matrix(0.007595486111111112,0,0,0.007595486111111112,71.32921006944444,0)" xlink:href="#T"/></g><path d="M180 0v-1490h190c0 262 1 526-3 784 217-279 467-523 702-784h249L716-845 1319 0h-225L585-716 370-489V0H180" id="aq"/><g id="v"><use transform="matrix(0.007595486111111112,0,0,0.007595486111111112,0,0)" xlink:href="#aq"/><use transform="matrix(0.007595486111111112,0,0,0.007595486111111112,9.927300347222223,0)" xlink:href="#aa"/><use transform="matrix(0.007595486111111112,0,0,0.007595486111111112,21.821831597222225,0)" xlink:href="#ad"/><use transform="matrix(0.007595486111111112,0,0,0.007595486111111112,33.54166666666667,0)" xlink:href="#aq"/><use transform="matrix(0.007595486111111112,0,0,0.007595486111111112,43.99305555555556,0)" xlink:href="#T"/><use transform="matrix(0.007595486111111112,0,0,0.007595486111111112,53.40386284722222,0)" xlink:href="#W"/><use transform="matrix(0.007595486111111112,0,0,0.007595486111111112,63.445095486111114,0)" xlink:href="#ae"/><use transform="matrix(0.007595486111111112,0,0,0.007595486111111112,72.79513888888889,0)" xlink:href="#ad"/><use transform="matrix(0.007595486111111112,0,0,0.007595486111111112,84.51497395833333,0)" xlink:href="#T"/><use transform="matrix(0.007595486111111112,0,0,0.007595486111111112,94.71571180555556,0)" xlink:href="#ai"/><use transform="matrix(0.007595486111111112,0,0,0.007595486111111112,106.07855902777779,0)" xlink:href="#ap"/><use transform="matrix(0.007595486111111112,0,0,0.007595486111111112,114.95768229166667,0)" xlink:href="#X"/></g><g id="w"><use transform="matrix(0.007595486111111112,0,0,0.007595486111111112,0,0)" xlink:href="#aq"/><use transform="matrix(0.007595486111111112,0,0,0.007595486111111112,9.927300347222223,0)" xlink:href="#aa"/><use transform="matrix(0.007595486111111112,0,0,0.007595486111111112,21.821831597222225,0)" xlink:href="#ag"/><use transform="matrix(0.007595486111111112,0,0,0.007595486111111112,31.756727430555557,0)" xlink:href="#X"/><use transform="matrix(0.007595486111111112,0,0,0.007595486111111112,35.93424479166667,0)" xlink:href="#aa"/><use transform="matrix(0.007595486111111112,0,0,0.007595486111111112,47.82877604166667,0)" xlink:href="#S"/><use transform="matrix(0.007595486111111112,0,0,0.007595486111111112,62.27539062500001,0)" xlink:href="#T"/><use transform="matrix(0.007595486111111112,0,0,0.007595486111111112,73.00781250000001,0)" xlink:href="#ad"/><use transform="matrix(0.007595486111111112,0,0,0.007595486111111112,84.72764756944446,0)" xlink:href="#X"/><use transform="matrix(0.007595486111111112,0,0,0.007595486111111112,88.90516493055557,0)" xlink:href="#T"/></g></defs></g></svg>