<svg xmlns="http://www.w3.org/2000/svg" xmlns:xlink="http://www.w3.org/1999/xlink" xmlns:lucid="lucid" width="531" height="192.86"><g transform="translate(-199.15215117627162 -1000.1857127084022)" lucid:page-tab-id="0_0"><path d="M311.36 1066.2a6 6 0 0 1 6-6H414a6 6 0 0 1 6 6v68a6 6 0 0 1-6 6h-96.64a6 6 0 0 1-6-6z" fill-opacity="0"/><path d="M338.83 1060.2h21.48m10.75 0h21.47m10.74 0H414a6 6 0 0 1 6 6v11.32m0 11.33v22.67m0 11.33v11.34a6 6 0 0 1-6 6h-10.74m-10.74 0h-21.47m-10.74 0h-21.47m-10.74 0h-10.75a6 6 0 0 1-6-6v-11.35m0-11.33v-22.67m0-11.33v-11.33a6 6 0 0 1 6-6h10.74" stroke="#1071e5" stroke-width="2" fill="none"/><path d="M199.15 1087.1a6 6 0 0 1 6-6h28a6 6 0 0 1 6 6v28a6 6 0 0 1-6 6h-28a6 6 0 0 1-6-6z" fill="none"/><use xlink:href="#a" transform="matrix(1,0,0,1,199.15215117627162,1081.1076173153992) translate(9.007432725694443 25.65863715277778)"/><path d="M391.9 1101.1c0 11.05-8.94 20-20 20-11.03 0-20-8.95-20-20 0-11.04 8.97-20 20-20 11.06 0 20 8.96 20 20z" stroke="#000" stroke-width="2" fill="#cfe4ff"/><path d="M359.15 1086.26h25.52v29.7h-25.52z" fill="#cfe4ff"/><path d="M384.65 1090l-.93 3.4h-8.07c1.03 2.95 3.92 3.18 3.92 6.68 0 5.22-5.18 10.4-11.94 10.4-4.8 0-6.6-4.1-6.6-7.47 0-7.9 6.05-13 12.1-13h11.52m-12.17 3.4h-.1c-3.1.3-7.6 4.3-7.6 10.92 0 1.5.53 4.75 3.04 4.75 4.62 0 8.02-5.87 8.02-9.64 0-3-1.82-5.1-3.36-6.02"/><path d="M473.62 1087.1a6 6 0 0 1 6-6h28a6 6 0 0 1 6 6v28a6 6 0 0 1-6 6h-28a6 6 0 0 1-6-6z" fill="none"/><use xlink:href="#b" transform="matrix(1,0,0,1,473.6201175664387,1081.1076173153995) translate(13.619791666666666 25.65863715277778)"/><path d="M457.24 1101.1H393.4" stroke="#3a414a" fill="none"/><path d="M472 1101.1l-14.26 4.64v-9.27z" stroke="#3a414a" fill="#3a414a"/><path d="M393.43 1101.58h-.57l.05-.43v-.52h.53z" stroke="#3a414a" stroke-width=".05" fill="#3a414a"/><path d="M261.2 1146.2a6 6 0 0 1 6-6h28a6 6 0 0 1 6 6v28a6 6 0 0 1-6 6h-28a6 6 0 0 1-6-6z" fill="none"/><use xlink:href="#c" transform="matrix(1,0,0,1,261.19875894293097,1140.1857127084022) translate(12.913411458333332 25.65863715277778)"/><path d="M239.65 1101.1h94.88" stroke="#3a414a" fill="none"/><path d="M239.66 1101.58h-.5v-.95h.5z" stroke="#3a414a" stroke-width=".05" fill="#3a414a"/><path d="M349.3 1101.1l-14.27 4.64v-9.27z" stroke="#3a414a" fill="#3a414a"/><path d="M281.2 1139.7v-32.6a6 6 0 0 1 6-6h47.33" stroke="#3a414a" fill="none"/><path d="M281.67 1140.2h-.95v-.53h.95z" stroke="#3a414a" stroke-width=".05" fill="#3a414a"/><path d="M349.3 1101.1l-14.27 4.64v-9.27z" stroke="#3a414a" fill="#3a414a"/><path d="M270.56 1006.2a6 6 0 0 1 6-6h228a6 6 0 0 1 6 6v48a6 6 0 0 1-6 6h-228a6 6 0 0 1-6-6z" fill="none"/><use xlink:href="#d" transform="matrix(1,0,0,1,270.55518046433036,1000.1857127084022) translate(34.529079861111114 38.083767361111114)"/><use xlink:href="#e" transform="matrix(1,0,0,1,270.55518046433036,1000.1857127084022) translate(157.00086805555554 38.083767361111114)"/><path d="M596.5 1070.12a6 6 0 0 1 6-6h108a6 6 0 0 1 6 6v47.7a6 6 0 0 1-6 6h-108a6 6 0 0 1-6-6z" fill="none"/><use xlink:href="#f" transform="matrix(1,0,0,1,596.5134788999836,1064.1167006112125) translate(19.804687499999993 24.365668402777775)"/><use xlink:href="#g" transform="matrix(1,0,0,1,596.5134788999836,1064.1167006112125) translate(5.718858506944436 46.95160590277778)"/><path d="M560 1097.82c0 11.04-8.95 20-20 20s-20-8.96-20-20c0-11.05 8.95-20 20-20s20 8.95 20 20z" stroke="#000" stroke-width="2" fill="#cfe4ff"/><path d="M527.24 1082.97h25.52v29.7h-25.52z" fill="#cfe4ff"/><path d="M552.74 1086.72l-.94 3.4h-8.06c1.03 2.94 3.92 3.17 3.92 6.67 0 5.2-5.18 10.38-11.94 10.38-4.8 0-6.62-4.1-6.62-7.46 0-7.92 6.06-13 12.12-13h11.52m-12.17 3.4h-.1c-3.12.28-7.6 4.3-7.6 10.9 0 1.5.52 4.76 3.04 4.76 4.62 0 8.03-5.87 8.03-9.65 0-2.98-1.82-5.08-3.36-6"/><path d="M590.15 1139.04a6 6 0 0 1 6-6h128a6 6 0 0 1 6 6v48a6 6 0 0 1-6 6h-128a6 6 0 0 1-6-6z" fill="none"/><use xlink:href="#h" transform="matrix(1,0,0,1,590.1507232049053,1133.0439767884463) translate(28.96918402777778 24.365668402777775)"/><use xlink:href="#i" transform="matrix(1,0,0,1,590.1507232049053,1133.0439767884463) translate(10.432400173611107 46.95160590277778)"/><path d="M573.77 1162.54h-12.7a6 6 0 0 1-6-6v-5.06a6 6 0 0 0-6-6H520.5" stroke="#3a414a" fill="none"/><path d="M588.53 1162.54l-14.26 4.64v-9.27z" stroke="#3a414a" fill="#3a414a"/><path d="M520.5 1145.48h-.5M520.5 1162.45l53.27.23M520.5 1162.45h-.5" stroke="#3a414a" fill="none"/><path d="M588.53 1162.74l-14.28 4.57.04-9.26z" stroke="#3a414a" fill="#3a414a"/><path d="M552.76 1028.94a6 6 0 0 1 6-6H716.9a6 6 0 0 1 6 6v28a6 6 0 0 1-6 6H558.77a6 6 0 0 1-6-6z" fill="none"/><g><use xlink:href="#j" transform="matrix(1,0,0,1,552.7597648671226,1022.937455686143) translate(48.79101562499999 25.65863715277778)"/></g><defs><path d="M338-670V0H158v-1490h180v566c73-149 190-208 336-208 226 0 379 139 379 422V0H872v-695c0-172-96-275-252-275-161 0-282 109-282 300" id="k"/><path d="M598-1118v154H368v674c0 100 37 144 132 144 23 0 62-6 92-12L629-6c-37 13-88 20-134 20-193 0-307-107-307-290v-688H20v-154h168v-266h180v266h230" id="l"/><path d="M798-719v166H144v-166h654" id="m"/><path d="M653-1490V0H466v-1314h-10L96-1047v-204l324-239h233" id="n"/><g id="a"><use transform="matrix(0.007595486111111112,0,0,0.007595486111111112,0,0)" xlink:href="#k"/><use transform="matrix(0.005316840277777778,0,0,0.005316840277777778,9.198133680555557,2.6371527777777777)" xlink:href="#l"/><use transform="matrix(0.005316840277777778,0,0,0.005316840277777778,12.547743055555555,2.6371527777777777)" xlink:href="#m"/><use transform="matrix(0.005316840277777778,0,0,0.005316840277777778,17.556206597222225,2.6371527777777777)" xlink:href="#n"/></g><g id="b"><use transform="matrix(0.007595486111111112,0,0,0.007595486111111112,0,0)" xlink:href="#k"/><use transform="matrix(0.005316840277777778,0,0,0.005316840277777778,9.198133680555557,2.6371527777777777)" xlink:href="#l"/></g><path d="M57 0l534-763-501-727h220c122 187 296 416 391 605 94-191 272-419 396-605h215L811-770 1340 0h-219C986-204 811-426 699-640 588-430 407-202 273 0H57" id="o"/><g id="c"><use transform="matrix(0.007595486111111112,0,0,0.007595486111111112,0,0)" xlink:href="#o"/><use transform="matrix(0.005316840277777778,0,0,0.005316840277777778,10.610894097222223,2.6371527777777777)" xlink:href="#l"/></g><path d="M135 0v-1490h305c1 251 0 501-5 746 157-254 405-512 598-746h373L849-845 1422 0h-361L638-644 440-426V0H135" id="p"/><path d="M789 20C394 20 94-260 94-744c0-487 300-766 695-766s695 279 695 766c0 485-300 764-695 764zm0-271c231 0 385-174 385-493 0-321-154-495-385-495s-385 175-385 495c0 319 154 493 385 493" id="q"/><path d="M135 0v-1490h468l242 684c30 94 76 293 111 455 34-161 80-360 110-455l238-684h470V0h-307c0-447-3-765 11-1227-122 503-246 788-395 1227H826C676-435 552-717 427-1215c15 453 11 775 11 1215H135" id="r"/><path d="M789 20C394 20 94-260 94-744c0-487 300-766 695-766s695 279 695 766c0 485-300 764-695 764zm0-271c231 0 385-174 385-493 0-321-154-495-385-495s-385 175-385 495c0 319 154 493 385 493zM681-1632l139-311h278l-207 311H681" id="s"/><path d="M135 0v-1490h581c339 0 533 192 533 485 0 204-94 351-264 424L1302 0H964L680-532H440V0H135zm305-779h220c186 0 274-77 274-226 0-150-88-233-275-233H440v459" id="t"/><path d="M49 0l509-1490h400L1480 0h-339l-115-346H497L386 0H49zm524-585h374c-75-213-124-402-192-666-66 268-110 453-182 666" id="u"/><g id="d"><use transform="matrix(0.010850694444444444,0,0,0.010850694444444444,0,0)" xlink:href="#p"/><use transform="matrix(0.010850694444444444,0,0,0.010850694444444444,15.093315972222221,0)" xlink:href="#q"/><use transform="matrix(0.010850694444444444,0,0,0.010850694444444444,32.21571180555556,0)" xlink:href="#r"/><use transform="matrix(0.010850694444444444,0,0,0.010850694444444444,52.91883680555556,0)" xlink:href="#s"/><use transform="matrix(0.010850694444444444,0,0,0.010850694444444444,70.04123263888889,0)" xlink:href="#t"/><use transform="matrix(0.010850694444444444,0,0,0.010850694444444444,84.63541666666666,0)" xlink:href="#p"/><use transform="matrix(0.010850694444444444,0,0,0.010850694444444444,100.61848958333333,0)" xlink:href="#u"/></g><path d="M135 0v-1490h340l471 754c59 97 122 210 187 365-32-387-14-721-19-1119h312V0h-341C855-382 627-689 427-1113c32 420 16 695 20 1113H135" id="v"/><g id="e"><use transform="matrix(0.010850694444444444,0,0,0.010850694444444444,0,0)" xlink:href="#t"/><use transform="matrix(0.010850694444444444,0,0,0.010850694444444444,14.594184027777777,0)" xlink:href="#v"/><use transform="matrix(0.010850694444444444,0,0,0.010850694444444444,31.53211805555556,0)" xlink:href="#v"/></g><path d="M458 0L52-1490h194c108 439 233 855 324 1313 92-459 221-873 331-1313h216c110 438 234 854 330 1307 92-455 216-869 323-1307h196L1558 0h-221l-256-944c-26-95-50-200-73-331-22 122-44 223-73 331L680 0H458" id="w"/><path d="M52 0l541-1490h220L1361 0h-200l-149-416H398L254 0H52zm404-582h497c-103-290-145-390-251-756-108 377-145 460-246 756" id="x"/><path d="M180 0v-1490h510c348 0 508 194 508 460 0 198-88 351-276 417L1256 0h-220L726-579c-117 2-238 0-356 1V0H180zm190-747h312c235 0 327-108 327-283 0-177-92-293-329-293H370v576" id="y"/><path d="M657 26c-323 0-524-166-541-416h195c15 169 171 246 346 246 202 0 356-106 356-265 5-203-294-238-475-293-239-73-380-191-380-389 0-252 224-419 512-419 294 0 499 171 508 396H992c-17-145-151-228-328-228-193 0-321 102-321 242 0 156 175 211 284 241l149 41c160 44 422 134 422 412 0 244-197 432-541 432" id="z"/><path d="M98-1322v-168h1126v168H757V0H567v-1322H98" id="A"/><g id="f"><use transform="matrix(0.007595486111111112,0,0,0.007595486111111112,0,0)" xlink:href="#w"/><use transform="matrix(0.007595486111111112,0,0,0.007595486111111112,14.446614583333334,0)" xlink:href="#x"/><use transform="matrix(0.007595486111111112,0,0,0.007595486111111112,25.179036458333336,0)" xlink:href="#y"/><use transform="matrix(0.007595486111111112,0,0,0.007595486111111112,35.18988715277778,0)" xlink:href="#z"/><use transform="matrix(0.007595486111111112,0,0,0.007595486111111112,45.17035590277778,0)" xlink:href="#A"/><use transform="matrix(0.007595486111111112,0,0,0.007595486111111112,55.21158854166667,0)" xlink:href="#w"/><use transform="matrix(0.007595486111111112,0,0,0.007595486111111112,69.65820312500001,0)" xlink:href="#x"/></g><path d="M370-1490V0H180v-1490h190" id="B"/><path d="M789 20c-398 0-667-293-667-764 0-473 273-766 655-766 315 0 558 198 612 487h-196c-61-191-204-311-415-311-262 0-471 207-471 590 0 380 208 588 482 588 249 0 420-165 425-427H828v-166h572v163c0 370-256 606-611 606" id="C"/><path d="M180 0v-1490h270l367 940c28 72 75 218 110 339 35-117 81-264 110-339l362-940h271V0h-187c2-448-5-837 7-1287-157 497-311 829-483 1287H842C666-458 514-784 354-1284c12 438 5 843 7 1284H180" id="D"/><path d="M784 20c-382 0-662-292-662-764 0-473 280-766 662-766s660 293 660 766c0 472-278 764-660 764zm0-176c266 0 475-207 475-588 0-383-209-590-475-590-268 0-477 208-477 590 0 380 209 588 477 588" id="E"/><path d="M645 0H180v-1490h484c435 0 692 280 692 742 0 466-257 748-711 748zM370-168h263c363 0 539-218 539-580 0-358-176-574-521-574H370v1154" id="F"/><path d="M180 0v-1490h190v1322h690V0H180" id="G"/><path d="M180 0v-1490h224l606 953c40 63 108 177 176 312-27-437-7-821-13-1265h190V0h-226C860-448 622-778 356-1262c27 476 11 792 15 1262H180" id="H"/><g id="g"><use transform="matrix(0.007595486111111112,0,0,0.007595486111111112,0,0)" xlink:href="#z"/><use transform="matrix(0.007595486111111112,0,0,0.007595486111111112,9.980468750000002,0)" xlink:href="#B"/><use transform="matrix(0.007595486111111112,0,0,0.007595486111111112,14.157986111111114,0)" xlink:href="#C"/><use transform="matrix(0.007595486111111112,0,0,0.007595486111111112,25.763888888888893,0)" xlink:href="#D"/><use transform="matrix(0.007595486111111112,0,0,0.007595486111111112,39.81553819444445,0)" xlink:href="#E"/><use transform="matrix(0.007595486111111112,0,0,0.007595486111111112,51.71006944444445,0)" xlink:href="#B"/><use transform="matrix(0.007595486111111112,0,0,0.007595486111111112,55.887586805555564,0)" xlink:href="#F"/><use transform="matrix(0.007595486111111112,0,0,0.007595486111111112,66.58203125000001,0)" xlink:href="#x"/><use transform="matrix(0.007595486111111112,0,0,0.007595486111111112,77.31445312500001,0)" xlink:href="#G"/><use transform="matrix(0.007595486111111112,0,0,0.007595486111111112,86.11002604166669,0)" xlink:href="#H"/><use transform="matrix(0.007595486111111112,0,0,0.007595486111111112,97.82986111111113,0)" xlink:href="#x"/></g><path d="M180 0v-1490h510c348 0 508 209 508 474 0 266-160 477-507 477H370V0H180zm190-706h312c236 0 327-133 327-310 0-176-91-307-329-307H370v617" id="I"/><path d="M180 0v-1490h908v168H370v486h669v168H370v500h727V0H180" id="J"/><path d="M783 20c-382 0-661-292-661-764 0-473 279-766 661-766 302 0 548 182 601 489h-190c-42-204-217-313-411-313-268 0-476 208-476 590 0 381 209 588 476 588 195 0 369-110 411-313h190c-52 303-296 489-601 489" id="K"/><path d="M545 20c-263 0-445-160-445-446v-80h190v80c0 182 102 279 255 279 152 0 254-97 254-279v-1064h190v1064c0 286-181 446-444 446" id="L"/><g id="h"><use transform="matrix(0.007595486111111112,0,0,0.007595486111111112,0,0)" xlink:href="#E"/><use transform="matrix(0.007595486111111112,0,0,0.007595486111111112,11.894531250000002,0)" xlink:href="#I"/><use transform="matrix(0.007595486111111112,0,0,0.007595486111111112,21.829427083333336,0)" xlink:href="#J"/><use transform="matrix(0.007595486111111112,0,0,0.007595486111111112,31.179470486111114,0)" xlink:href="#y"/><use transform="matrix(0.007595486111111112,0,0,0.007595486111111112,41.19032118055556,0)" xlink:href="#x"/><use transform="matrix(0.007595486111111112,0,0,0.007595486111111112,51.39105902777778,0)" xlink:href="#K"/><use transform="matrix(0.007595486111111112,0,0,0.007595486111111112,62.75390625000001,0)" xlink:href="#L"/><use transform="matrix(0.007595486111111112,0,0,0.007595486111111112,71.32921006944444,0)" xlink:href="#x"/></g><path d="M180 0v-1490h190c0 262 1 526-3 784 217-279 467-523 702-784h249L716-845 1319 0h-225L585-716 370-489V0H180" id="M"/><g id="i"><use transform="matrix(0.007595486111111112,0,0,0.007595486111111112,0,0)" xlink:href="#M"/><use transform="matrix(0.007595486111111112,0,0,0.007595486111111112,9.927300347222223,0)" xlink:href="#E"/><use transform="matrix(0.007595486111111112,0,0,0.007595486111111112,21.821831597222225,0)" xlink:href="#H"/><use transform="matrix(0.007595486111111112,0,0,0.007595486111111112,33.54166666666667,0)" xlink:href="#M"/><use transform="matrix(0.007595486111111112,0,0,0.007595486111111112,43.99305555555556,0)" xlink:href="#x"/><use transform="matrix(0.007595486111111112,0,0,0.007595486111111112,53.40386284722222,0)" xlink:href="#A"/><use transform="matrix(0.007595486111111112,0,0,0.007595486111111112,63.445095486111114,0)" xlink:href="#J"/><use transform="matrix(0.007595486111111112,0,0,0.007595486111111112,72.79513888888889,0)" xlink:href="#H"/><use transform="matrix(0.007595486111111112,0,0,0.007595486111111112,84.51497395833333,0)" xlink:href="#x"/><use transform="matrix(0.007595486111111112,0,0,0.007595486111111112,94.71571180555556,0)" xlink:href="#K"/><use transform="matrix(0.007595486111111112,0,0,0.007595486111111112,106.07855902777779,0)" xlink:href="#L"/><use transform="matrix(0.007595486111111112,0,0,0.007595486111111112,114.95768229166667,0)" xlink:href="#B"/></g><path d="M135 0v-1490h305v1237h643V0H135" id="N"/><path d="M135 0v-1490h997v253H440v360h640v249H440v375h694V0H135" id="O"/><path d="M795 20C377 20 94-272 94-743c0-483 302-767 694-767 335 0 593 206 635 500h-310c-42-142-154-229-320-229-230 0-389 177-389 493s154 495 393 495c212 0 340-120 345-311H818v-232h620v186c0 391-269 628-643 628" id="P"/><path d="M659 0H135v-1490h529c448 0 721 280 721 744 0 466-273 746-726 746zM440-263h204c287 0 437-148 437-483 0-333-150-481-435-481H440v964" id="Q"/><g id="j"><use transform="matrix(0.007595486111111112,0,0,0.007595486111111112,0,0)" xlink:href="#N"/><use transform="matrix(0.007595486111111112,0,0,0.007595486111111112,8.795572916666668,0)" xlink:href="#O"/><use transform="matrix(0.007595486111111112,0,0,0.007595486111111112,18.244357638888893,0)" xlink:href="#P"/><use transform="matrix(0.007595486111111112,0,0,0.007595486111111112,29.91861979166667,0)" xlink:href="#O"/><use transform="matrix(0.007595486111111112,0,0,0.007595486111111112,39.36740451388889,0)" xlink:href="#v"/><use transform="matrix(0.007595486111111112,0,0,0.007595486111111112,51.22395833333334,0)" xlink:href="#Q"/><use transform="matrix(0.007595486111111112,0,0,0.007595486111111112,61.80447048611112,0)" xlink:href="#u"/></g></defs></g></svg>