<svg xmlns="http://www.w3.org/2000/svg" xmlns:xlink="http://www.w3.org/1999/xlink" xmlns:lucid="lucid" width="714.69" height="527.2"><g transform="translate(-200 -1785.9326911136313)" lucid:page-tab-id="0_0"><path d="M260 1851.93a6 6 0 0 1 6-6h328a6 6 0 0 1 6 6V2234a6 6 0 0 1-6 6H266a6 6 0 0 1-6-6z" fill-opacity="0"/><path d="M285.88 1845.93h19.88m9.94 0h19.88m9.94 0h19.87m9.93 0h19.88m9.95 0h19.88m9.94 0h19.88m9.94 0h19.87m9.94 0h19.88m9.94 0h19.88m9.94 0h19.88m9.94 0H594a6 6 0 0 1 6 6v9.8m0 9.8v19.6m0 9.8v19.58m0 9.8v19.6m0 9.8v19.6m0 9.8v19.58m0 9.8v19.6m0 9.8v19.58m0 9.8v19.6m0 9.78v19.6m0 9.8v19.6m0 9.78v19.6m0 9.8v19.6m0 9.78v9.8a6 6 0 0 1-6 6h-9.94m-9.94 0h-19.88m-9.94 0h-19.88m-9.93 0h-19.9m-9.93 0H464.8m-9.95 0h-19.88m-9.94 0h-19.88m-9.94 0h-19.87m-9.94 0H345.5m-9.94 0H315.7m-9.94 0h-19.88m-9.94 0H266a6 6 0 0 1-6-6v-9.8m0-9.8v-19.6m0-9.78v-19.6m0-9.8v-19.6m0-9.78v-19.6m0-9.8v-19.6m0-9.78v-19.6m0-9.8v-19.6m0-9.78v-19.6m0-9.8v-19.6m0-9.78v-19.6m0-9.8v-19.58m0-9.8v-19.6m0-9.8v-9.8a6 6 0 0 1 6-6h9.94" stroke="#1071e5" stroke-width="2" fill="none"/><path d="M200 1868.5a6 6 0 0 1 6-6h28a6 6 0 0 1 6 6v28a6 6 0 0 1-6 6h-28a6 6 0 0 1-6-6z" fill="none"/><use xlink:href="#a" transform="matrix(1,0,0,1,200,1862.5000000000002) translate(9.007432725694443 25.65863715277778)"/><path d="M240.5 1882.8h39.35a.15.15 0 0 0 .15-.15.15.15 0 0 1 .15-.15h142.47" stroke="#3a414a" fill="none"/><path d="M240.5 1883.27h-.5v-.95h.5z" stroke="#3a414a" stroke-width=".05" fill="#3a414a"/><path d="M437.38 1882.5l-14.26 4.63v-9.27z" stroke="#3a414a" fill="#3a414a"/><path d="M481.5 1882.5h21.12" stroke="#3a414a" fill="none"/><path d="M481.5 1882.97h-.55l.05-.42-.02-.52h.53z" stroke="#3a414a" stroke-width=".05" fill="#3a414a"/><path d="M517.38 1882.5l-14.26 4.63v-9.27z" stroke="#3a414a" fill="#3a414a"/><path d="M480 1882.5c0 11.05-8.95 20-20 20s-20-8.95-20-20 8.95-20 20-20 20 8.95 20 20zm-34.14-14.14l28.28 28.28m-28.28 0l28.28-28.28M560 1882.5c0 11.05-8.95 20-20 20s-20-8.95-20-20 8.95-20 20-20 20 8.95 20 20zm-40 0h40m-20-20v40" stroke="#000" stroke-width="2" fill="#fff"/><path d="M640 1868.5a6 6 0 0 1 6-6h28a6 6 0 0 1 6 6v28a6 6 0 0 1-6 6h-28a6 6 0 0 1-6-6z" fill="none"/><use xlink:href="#b" transform="matrix(1,0,0,1,640,1862.4999499995836) translate(13.619791666666666 25.65863715277778)"/><path d="M325.3 1976v-87.5a6 6 0 0 1 6-6h91.32" stroke="#3a414a" fill="none"/><path d="M325.78 1976.55l-.43-.05-.52.02v-.53h.95z" stroke="#3a414a" stroke-width=".05" fill="#3a414a"/><path d="M437.38 1882.5l-14.26 4.63v-9.27z" stroke="#3a414a" fill="#3a414a"/><path d="M390.7 2103.03v-99.53a6 6 0 0 0-6-6h-22" stroke="#3a414a" fill="none"/><path d="M391.18 2103.6l-.43-.07-.52.02v-.53h.95z" stroke="#3a414a" stroke-width=".05" fill="#3a414a"/><path d="M347.92 1997.5l14.27-4.63v9.27z" stroke="#3a414a" fill="#3a414a"/><path d="M240.5 1882.8H274a6 6 0 0 1 6 6V2174a6 6 0 0 0 6 6h98.7a6 6 0 0 0 6-6v-12.08" stroke="#3a414a" fill="none"/><path d="M240.5 1883.27h-.5v-.95h.5z" stroke="#3a414a" stroke-width=".05" fill="#3a414a"/><path d="M390.7 2147.15l4.64 14.27h-9.27z" stroke="#3a414a" fill="#3a414a"/><path d="M320 1906a6 6 0 0 1 6-6h28a6 6 0 0 1 6 6v28a6 6 0 0 1-6 6h-28a6 6 0 0 1-6-6z" fill="none"/><use xlink:href="#c" transform="matrix(1,0,0,1,320,1900) translate(15.29079861111111 25.65863715277778)"/><path d="M560 2045.93c0 11.05-8.95 20-20 20-11.04 0-20-8.95-20-20 0-11.04 8.96-20 20-20 11.05 0 20 8.96 20 20zm-34.14-14.14l28.28 28.28m-28.28 0l28.28-28.3" stroke="#000" stroke-width="2" fill="#fff"/><path d="M540 2008.55V1904" stroke="#3a414a" fill="none"/><path d="M540 2023.3l-4.63-14.25h9.27z" stroke="#3a414a" fill="#3a414a"/><path d="M539.96 1903.5l.5-.02v.53h-.94v-.55z" stroke="#3a414a" stroke-width=".05" fill="#3a414a"/><path d="M560 2124.53c0 11.05-8.95 20-20 20s-20-8.95-20-20c0-11.04 8.95-20 20-20s20 8.96 20 20z" stroke="#000" stroke-width="2" fill="#cfe4ff"/><use xlink:href="#d" transform="matrix(1,0,0,1,525.0001714735622,2109.533191429973) translate(3.1548394097222214 20.694444444444446)"/><path d="M540 2103.03v-19.7" stroke="#3a414a" fill="none"/><path d="M540.48 2103.6l-.44-.07-.5.02v-.53h.94z" stroke="#3a414a" stroke-width=".05" fill="#3a414a"/><path d="M540 2068.55l4.64 14.27h-9.27z" stroke="#3a414a" fill="#3a414a"/><path d="M260 2279.13a6 6 0 0 1 6-6h28a6 6 0 0 1 6 6v28a6 6 0 0 1-6 6h-28a6 6 0 0 1-6-6z" fill="none"/><use xlink:href="#e" transform="matrix(1,0,0,1,260,2273.133691746315) translate(12.913411458333332 25.65863715277778)"/><path d="M480 1970c0 11.05-8.95 20-20 20s-20-8.95-20-20 8.95-20 20-20 20 8.95 20 20z" stroke="#000" stroke-width="2" fill="#fff"/><use xlink:href="#f" transform="matrix(1,0,0,1,445.00014699600507,1954.9999499995836) translate(8.25900607638889 20.694444444444446)"/><path d="M460 2103.03v-95.64" stroke="#3a414a" fill="none"/><path d="M460.48 2103.6l-.44-.07-.52.02v-.53h.96z" stroke="#3a414a" stroke-width=".05" fill="#3a414a"/><path d="M460 1992.62l4.63 14.27-9.26-.02z" stroke="#3a414a" fill="#3a414a"/><path d="M460 1948.5v-28.62" stroke="#3a414a" fill="none"/><path d="M460.48 1949.05l-.44-.05-.52.02v-.53h.96z" stroke="#3a414a" stroke-width=".05" fill="#3a414a"/><path d="M460 1905.12l4.63 14.27-9.26-.02z" stroke="#3a414a" fill="#3a414a"/><path d="M345.3 1997.5c0 11.05-8.95 20-20 20-11.04 0-20-8.95-20-20s8.96-20 20-20c11.05 0 20 8.95 20 20zm-34.14-14.14l28.3 28.28m-28.3 0l28.3-28.28" stroke="#000" stroke-width="2" fill="#fff"/><path d="M460 1908.5a6 6 0 0 1 6-6h28a6 6 0 0 1 6 6v28a6 6 0 0 1-6 6h-28a6 6 0 0 1-6-6z" fill="none"/><use xlink:href="#g" transform="matrix(1,0,0,1,460,1902.5000000000002) translate(13.619791666666666 25.65863715277778)"/><path d="M502.62 2045.93H466a6 6 0 0 0-6 6v51.1" stroke="#3a414a" fill="none"/><path d="M517.38 2045.93l-14.26 4.64v-9.27z" stroke="#3a414a" fill="#3a414a"/><path d="M460.48 2103.6l-.44-.07-.52.02v-.53h.96z" stroke="#3a414a" stroke-width=".05" fill="#3a414a"/><path d="M410.7 2124.53c0 11.05-8.95 20-20 20-11.04 0-20-8.95-20-20 0-11.04 8.96-20 20-20 11.05 0 20 8.96 20 20z" stroke="#000" stroke-width="2" fill="#cfe4ff"/><path d="M377.94 2109.68h25.52v29.7h-25.52z" fill="#cfe4ff"/><path d="M403.44 2113.43l-.93 3.4h-8.06c1.03 2.94 3.92 3.18 3.92 6.67 0 5.22-5.18 10.4-11.93 10.4-4.8 0-6.62-4.1-6.62-7.46 0-7.92 6.07-13 12.13-13h11.5m-12.16 3.4h-.1c-3.1.28-7.6 4.3-7.6 10.9 0 1.5.53 4.76 3.04 4.76 4.63 0 8.03-5.87 8.03-9.65 0-2.98-1.82-5.08-3.36-6"/><path d="M480 2124.53c0 11.05-8.95 20-20 20s-20-8.95-20-20c0-11.04 8.95-20 20-20s20 8.96 20 20z" stroke="#000" stroke-width="2" fill="#cfe4ff"/><path d="M447.24 2109.68h25.52v29.7h-25.52z" fill="#cfe4ff"/><path d="M472.74 2113.43l-.94 3.4h-8.06c1.03 2.94 3.92 3.18 3.92 6.67 0 5.22-5.18 10.4-11.94 10.4-4.8 0-6.62-4.1-6.62-7.46 0-7.92 6.06-13 12.12-13h11.52m-12.17 3.4h-.1c-3.12.28-7.6 4.3-7.6 10.9 0 1.5.52 4.76 3.04 4.76 4.63 0 8.03-5.87 8.03-9.65 0-2.98-1.82-5.08-3.36-6"/><path d="M280 2272.63V2186a6 6 0 0 1 6-6h98.7a6 6 0 0 0 6-6v-12.08" stroke="#3a414a" fill="none"/><path d="M280.48 2273.13h-.96v-.5h.96z" stroke="#3a414a" stroke-width=".05" fill="#3a414a"/><path d="M390.7 2147.15l4.64 14.27h-9.27z" stroke="#3a414a" fill="#3a414a"/><path d="M280 2272.63V2186a6 6 0 0 1 6-6h168a6 6 0 0 0 6-6v-12.08" stroke="#3a414a" fill="none"/><path d="M280.48 2273.13h-.96v-.5h.96z" stroke="#3a414a" stroke-width=".05" fill="#3a414a"/><path d="M460 2147.15l4.63 14.27h-9.26z" stroke="#3a414a" fill="#3a414a"/><path d="M280 2272.63V2216a6 6 0 0 1 6-6h33.3a6 6 0 0 0 6-6v-19c-2.76 0-5-2.24-5-5s2.24-5 5-5v-140.12" stroke="#3a414a" fill="none"/><path d="M280.48 2273.13h-.96v-.5h.96z" stroke="#3a414a" stroke-width=".05" fill="#3a414a"/><path d="M325.3 2020.12l4.64 14.27-9.27-.02z" stroke="#3a414a" fill="#3a414a"/><path d="M280 2272.63V2216a6 6 0 0 1 6-6h248a6 6 0 0 0 6-6v-42.08" stroke="#3a414a" fill="none"/><path d="M280.48 2273.13h-.96v-.5h.96z" stroke="#3a414a" stroke-width=".05" fill="#3a414a"/><path d="M540 2147.15l4.63 14.27h-9.26z" stroke="#3a414a" fill="#3a414a"/><path d="M320 1791.93a6 6 0 0 1 6-6h228a6 6 0 0 1 6 6v48a6 6 0 0 1-6 6H326a6 6 0 0 1-6-6z" fill="none"/><use xlink:href="#h" transform="matrix(1,0,0,1,320.0002939920098,1785.9326911136313) translate(34.99565972222223 38.083767361111114)"/><use xlink:href="#i" transform="matrix(1,0,0,1,320.0002939920098,1785.9326911136313) translate(157.46744791666669 38.083767361111114)"/><path d="M623.62 1882.5H561.5" stroke="#3a414a" fill="none"/><path d="M638.38 1882.5l-14.26 4.63v-9.27z" stroke="#3a414a" fill="#3a414a"/><path d="M561.5 1882.97h-.55l.05-.42-.02-.52h.53z" stroke="#3a414a" stroke-width=".05" fill="#3a414a"/><path d="M744.07 1913.36c0 11.04-8.95 20-20 20s-20-8.96-20-20c0-11.05 8.95-20 20-20s20 8.95 20 20zm-34.14-14.15l28.28 28.3m-28.27 0l28.28-28.3M744.07 1995.24c0 11.05-8.95 20-20 20s-20-8.95-20-20 8.95-20 20-20 20 8.95 20 20zm-40 0h40m-20-20v40" stroke="#000" stroke-width="2" fill="#fff"/><path d="M744.07 2077.12c0 11.05-8.95 20-20 20s-20-8.95-20-20c0-11.04 8.95-20 20-20s20 8.96 20 20z" stroke="#000" stroke-width="2" fill="#cfe4ff"/><use xlink:href="#j" transform="matrix(1,0,0,1,709.0702527656707,2062.122924889773) translate(3.1548394097222214 20.694444444444446)"/><path d="M780.58 2130.2a6 6 0 0 1 6-6h108a6 6 0 0 1 6 6v47.7a6 6 0 0 1-6 6h-108a6 6 0 0 1-6-6z" fill="none"/><use xlink:href="#k" transform="matrix(1,0,0,1,780.5837316656543,2124.2064155690814) translate(19.804687499999993 24.365668402777775)"/><use xlink:href="#l" transform="matrix(1,0,0,1,780.5837316656543,2124.2064155690814) translate(5.718858506944436 46.95160590277778)"/><path d="M780.9 1967.4a6 6 0 0 1 6-6h108a6 6 0 0 1 6 6v48a6 6 0 0 1-6 6h-108a6 6 0 0 1-6-6z" fill="none"/><use xlink:href="#m" transform="matrix(1,0,0,1,780.8851780754649,1961.3858733372833) translate(12.953559027777771 24.365668402777775)"/><use xlink:href="#n" transform="matrix(1,0,0,1,780.8851780754649,1961.3858733372833) translate(10.029296874999993 46.95160590277778)"/><path d="M780.58 2049.27a6 6 0 0 1 6-6h108a6 6 0 0 1 6 6v48a6 6 0 0 1-6 6h-108a6 6 0 0 1-6-6z" fill="none"/><use xlink:href="#k" transform="matrix(1,0,0,1,780.5837316656543,2043.2692835765765) translate(19.804687499999993 15.069444444444446)"/><use xlink:href="#o" transform="matrix(1,0,0,1,780.5837316656543,2043.2692835765765) translate(17.719726562499993 37.65538194444445)"/><use xlink:href="#p" transform="matrix(1,0,0,1,780.5837316656543,2043.2692835765765) translate(-12.8976779513889 60.24131944444446)"/><path d="M780.58 1885.5a6 6 0 0 1 6-6h108a6 6 0 0 1 6 6v48a6 6 0 0 1-6 6h-108a6 6 0 0 1-6-6z" fill="none"/><use xlink:href="#q" transform="matrix(1,0,0,1,780.5837316656543,1879.5024630979901) translate(18.976779513888886 24.365668402777775)"/><use xlink:href="#n" transform="matrix(1,0,0,1,780.5837316656543,1879.5024630979901) translate(10.029296874999993 46.95160590277778)"/><path d="M744.07 2157.9c0 11.05-8.95 20-20 20s-20-8.95-20-20c0-11.04 8.95-20 20-20s20 8.96 20 20z" stroke="#000" stroke-width="2" fill="#cfe4ff"/><path d="M711.3 2143.06h25.53v29.7H711.3z" fill="#cfe4ff"/><path d="M736.8 2146.8l-.93 3.4h-8.06c1.04 2.95 3.93 3.18 3.93 6.68 0 5.22-5.18 10.4-11.94 10.4-4.8 0-6.63-4.1-6.63-7.47 0-7.9 6.06-13 12.12-13h11.5m-12.16 3.4h-.1c-3.12.3-7.6 4.3-7.6 10.92 0 1.5.52 4.75 3.04 4.75 4.62 0 8.02-5.87 8.02-9.65 0-2.98-1.82-5.08-3.36-6"/><path d="M700 1838.78a6 6 0 0 1 6-6h168a6 6 0 0 1 6 6v34.72a6 6 0 0 1-6 6H706a6 6 0 0 1-6-6z" fill="none"/><use xlink:href="#r" transform="matrix(1,0,0,1,700,1832.783665595134) translate(53.29101562499999 29.15863715277778)"/><path d="M774.22 2199.13a6 6 0 0 1 6-6h128a6 6 0 0 1 6 6v48a6 6 0 0 1-6 6h-128a6 6 0 0 1-6-6z" fill="none"/><use xlink:href="#s" transform="matrix(1,0,0,1,774.220975970576,2193.133691746315) translate(28.96918402777778 24.365668402777775)"/><use xlink:href="#t" transform="matrix(1,0,0,1,774.220975970576,2193.133691746315) translate(10.432400173611107 46.95160590277778)"/><path d="M757.84 2222.63h-12.7a6 6 0 0 1-6-6v-5.06a6 6 0 0 0-6-6h-28.57" stroke="#3a414a" fill="none"/><path d="M772.6 2222.63l-14.26 4.64V2218z" stroke="#3a414a" fill="#3a414a"/><path d="M704.58 2205.57h-.5M704.57 2222.54l53.27.23M704.58 2222.54h-.5" stroke="#3a414a" fill="none"/><path d="M772.6 2222.83l-14.28 4.57.04-9.27z" stroke="#3a414a" fill="#3a414a"/><path d="M774.22 2259.13a6 6 0 0 1 6-6h128a6 6 0 0 1 6 6v48a6 6 0 0 1-6 6h-128a6 6 0 0 1-6-6z" fill="none"/><use xlink:href="#s" transform="matrix(1,0,0,1,774.220975970576,2253.133691746315) translate(28.96918402777778 24.365668402777775)"/><use xlink:href="#u" transform="matrix(1,0,0,1,774.220975970576,2253.133691746315) translate(20.181206597222214 46.95160590277778)"/><path d="M773.72 2282.63h-28.57a6 6 0 0 1-6-6v-5.06a6 6 0 0 0-6-6h-12.7" stroke="#3a414a" fill="none"/><path d="M774.22 2283.1h-.5v-.94h.5z" stroke="#3a414a" stroke-width=".05" fill="#3a414a"/><path d="M705.7 2265.57l14.25-4.64v9.28z" stroke="#3a414a" fill="#3a414a"/><path d="M720.45 2282.6l53.27.23" stroke="#3a414a" fill="none"/><path d="M705.7 2282.55l14.27-4.58-.04 9.27z" stroke="#3a414a" fill="#3a414a"/><path d="M774.22 2282.36v.95h-.5v-.94z" stroke="#3a414a" stroke-width=".05" fill="#3a414a"/><defs><path d="M338-670V0H158v-1490h180v566c73-149 190-208 336-208 226 0 379 139 379 422V0H872v-695c0-172-96-275-252-275-161 0-282 109-282 300" id="v"/><path d="M598-1118v154H368v674c0 100 37 144 132 144 23 0 62-6 92-12L629-6c-37 13-88 20-134 20-193 0-307-107-307-290v-688H20v-154h168v-266h180v266h230" id="w"/><path d="M798-719v166H144v-166h654" id="x"/><path d="M653-1490V0H466v-1314h-10L96-1047v-204l324-239h233" id="y"/><g id="a"><use transform="matrix(0.007595486111111112,0,0,0.007595486111111112,0,0)" xlink:href="#v"/><use transform="matrix(0.005316840277777778,0,0,0.005316840277777778,9.198133680555557,2.6371527777777777)" xlink:href="#w"/><use transform="matrix(0.005316840277777778,0,0,0.005316840277777778,12.547743055555555,2.6371527777777777)" xlink:href="#x"/><use transform="matrix(0.005316840277777778,0,0,0.005316840277777778,17.556206597222225,2.6371527777777777)" xlink:href="#y"/></g><g id="b"><use transform="matrix(0.007595486111111112,0,0,0.007595486111111112,0,0)" xlink:href="#v"/><use transform="matrix(0.005316840277777778,0,0,0.005316840277777778,9.198133680555557,2.6371527777777777)" xlink:href="#w"/></g><path d="M158 0v-1118h174v172h12c41-113 157-188 290-188 26 0 70 2 91 3v181c-11-2-60-10-108-10-161 0-279 109-279 260V0H158" id="z"/><g id="c"><use transform="matrix(0.007595486111111112,0,0,0.007595486111111112,0,0)" xlink:href="#z"/><use transform="matrix(0.005316840277777778,0,0,0.005316840277777778,5.856119791666666,2.6371527777777777)" xlink:href="#w"/></g><path d="M691-1118l-25 154H437L325-290c-17 103 16 144 108 144 23 0 63-6 94-12L538-6c-36 12-87 20-136 20-196 0-290-109-260-290l114-688H88l25-154h169l44-266h180l-44 266h229" id="A"/><path d="M456 442C197 442 73 327 25 209l155-84c33 60 86 160 280 160 184 0 332-89 363-272l37-218-16 4C793-134 707-18 498-18 260-18 96-170 96-443c0-341 216-689 568-689 222 0 274 139 301 198l21-5 30-179h175L999 35c-48 288-275 407-543 407zm75-620c274 0 401-267 401-512 0-170-80-281-247-281-260 0-408 269-408 518 0 167 83 275 254 275" id="B"/><path d="M356-670L245 0H65l247-1490h180l-94 565c97-150 219-207 362-207 226 0 365 139 318 422L960 0H779l116-695c29-174-53-275-208-275-158 0-299 107-331 300" id="C"/><g id="d"><use transform="matrix(0.007595486111111112,0,0,0.007595486111111112,0,0)" xlink:href="#A"/><use transform="matrix(0.007595486111111112,0,0,0.007595486111111112,4.952256944444445,0)" xlink:href="#B"/><use transform="matrix(0.007595486111111112,0,0,0.007595486111111112,14.492187500000002,0)" xlink:href="#C"/></g><path d="M57 0l534-763-501-727h220c122 187 296 416 391 605 94-191 272-419 396-605h215L811-770 1340 0h-219C986-204 811-426 699-640 588-430 407-202 273 0H57" id="D"/><g id="e"><use transform="matrix(0.007595486111111112,0,0,0.007595486111111112,0,0)" xlink:href="#D"/><use transform="matrix(0.005316840277777778,0,0,0.005316840277777778,10.610894097222223,2.6371527777777777)" xlink:href="#w"/></g><g id="f"><use transform="matrix(0.007595486111111112,0,0,0.007595486111111112,0,0)" xlink:href="#y"/><use transform="matrix(0.007595486111111112,0,0,0.007595486111111112,6.327039930555556,0)" xlink:href="#x"/></g><path d="M537 14c-226 0-379-139-379-422v-710h180v695c0 172 97 275 253 275 160 0 281-109 281-300v-670h181V0H879v-209C806-46 684 14 537 14" id="E"/><g id="g"><use transform="matrix(0.007595486111111112,0,0,0.007595486111111112,0,0)" xlink:href="#E"/><use transform="matrix(0.005316840277777778,0,0,0.005316840277777778,9.198133680555557,2.6371527777777777)" xlink:href="#w"/></g><path d="M135 0v-1490h305c1 251 0 501-5 746 157-254 405-512 598-746h373L849-845 1422 0h-361L638-644 440-426V0H135" id="F"/><path d="M789 20C394 20 94-260 94-744c0-487 300-766 695-766s695 279 695 766c0 485-300 764-695 764zm0-271c231 0 385-174 385-493 0-321-154-495-385-495s-385 175-385 495c0 319 154 493 385 493" id="G"/><path d="M135 0v-1490h468l242 684c30 94 76 293 111 455 34-161 80-360 110-455l238-684h470V0h-307c0-447-3-765 11-1227-122 503-246 788-395 1227H826C676-435 552-717 427-1215c15 453 11 775 11 1215H135" id="H"/><path d="M789 20C394 20 94-260 94-744c0-487 300-766 695-766s695 279 695 766c0 485-300 764-695 764zm0-271c231 0 385-174 385-493 0-321-154-495-385-495s-385 175-385 495c0 319 154 493 385 493zM681-1632l139-311h278l-207 311H681" id="I"/><path d="M135 0v-1490h581c339 0 533 192 533 485 0 204-94 351-264 424L1302 0H964L680-532H440V0H135zm305-779h220c186 0 274-77 274-226 0-150-88-233-275-233H440v459" id="J"/><path d="M49 0l509-1490h400L1480 0h-339l-115-346H497L386 0H49zm524-585h374c-75-213-124-402-192-666-66 268-110 453-182 666" id="K"/><g id="h"><use transform="matrix(0.010850694444444444,0,0,0.010850694444444444,0,0)" xlink:href="#F"/><use transform="matrix(0.010850694444444444,0,0,0.010850694444444444,15.093315972222221,0)" xlink:href="#G"/><use transform="matrix(0.010850694444444444,0,0,0.010850694444444444,32.21571180555556,0)" xlink:href="#H"/><use transform="matrix(0.010850694444444444,0,0,0.010850694444444444,52.91883680555556,0)" xlink:href="#I"/><use transform="matrix(0.010850694444444444,0,0,0.010850694444444444,70.04123263888889,0)" xlink:href="#J"/><use transform="matrix(0.010850694444444444,0,0,0.010850694444444444,84.63541666666666,0)" xlink:href="#F"/><use transform="matrix(0.010850694444444444,0,0,0.010850694444444444,100.61848958333333,0)" xlink:href="#K"/></g><path d="M795 20C377 20 94-272 94-743c0-483 302-767 694-767 335 0 593 206 635 500h-310c-42-142-154-229-320-229-230 0-389 177-389 493s154 495 393 495c212 0 340-120 345-311H818v-232h620v186c0 391-269 628-643 628" id="L"/><path d="M750 21c-371 0-615-218-615-544v-967h305v942c0 174 123 299 310 299s309-125 309-299v-942h306v967c0 326-247 544-615 544" id="M"/><g id="i"><use transform="matrix(0.010850694444444444,0,0,0.010850694444444444,0,0)" xlink:href="#L"/><use transform="matrix(0.010850694444444444,0,0,0.010850694444444444,16.67751736111111,0)" xlink:href="#J"/><use transform="matrix(0.010850694444444444,0,0,0.010850694444444444,31.27170138888889,0)" xlink:href="#M"/></g><g id="j"><use transform="matrix(0.007595486111111112,0,0,0.007595486111111112,0,0)" xlink:href="#A"/><use transform="matrix(0.007595486111111112,0,0,0.007595486111111112,4.952256944444445,0)" xlink:href="#B"/><use transform="matrix(0.007595486111111112,0,0,0.007595486111111112,14.492187500000002,0)" xlink:href="#C"/></g><path d="M458 0L52-1490h194c108 439 233 855 324 1313 92-459 221-873 331-1313h216c110 438 234 854 330 1307 92-455 216-869 323-1307h196L1558 0h-221l-256-944c-26-95-50-200-73-331-22 122-44 223-73 331L680 0H458" id="N"/><path d="M52 0l541-1490h220L1361 0h-200l-149-416H398L254 0H52zm404-582h497c-103-290-145-390-251-756-108 377-145 460-246 756" id="O"/><path d="M180 0v-1490h510c348 0 508 194 508 460 0 198-88 351-276 417L1256 0h-220L726-579c-117 2-238 0-356 1V0H180zm190-747h312c235 0 327-108 327-283 0-177-92-293-329-293H370v576" id="P"/><path d="M657 26c-323 0-524-166-541-416h195c15 169 171 246 346 246 202 0 356-106 356-265 5-203-294-238-475-293-239-73-380-191-380-389 0-252 224-419 512-419 294 0 499 171 508 396H992c-17-145-151-228-328-228-193 0-321 102-321 242 0 156 175 211 284 241l149 41c160 44 422 134 422 412 0 244-197 432-541 432" id="Q"/><path d="M98-1322v-168h1126v168H757V0H567v-1322H98" id="R"/><g id="k"><use transform="matrix(0.007595486111111112,0,0,0.007595486111111112,0,0)" xlink:href="#N"/><use transform="matrix(0.007595486111111112,0,0,0.007595486111111112,14.446614583333334,0)" xlink:href="#O"/><use transform="matrix(0.007595486111111112,0,0,0.007595486111111112,25.179036458333336,0)" xlink:href="#P"/><use transform="matrix(0.007595486111111112,0,0,0.007595486111111112,35.18988715277778,0)" xlink:href="#Q"/><use transform="matrix(0.007595486111111112,0,0,0.007595486111111112,45.17035590277778,0)" xlink:href="#R"/><use transform="matrix(0.007595486111111112,0,0,0.007595486111111112,55.21158854166667,0)" xlink:href="#N"/><use transform="matrix(0.007595486111111112,0,0,0.007595486111111112,69.65820312500001,0)" xlink:href="#O"/></g><path d="M370-1490V0H180v-1490h190" id="S"/><path d="M789 20c-398 0-667-293-667-764 0-473 273-766 655-766 315 0 558 198 612 487h-196c-61-191-204-311-415-311-262 0-471 207-471 590 0 380 208 588 482 588 249 0 420-165 425-427H828v-166h572v163c0 370-256 606-611 606" id="T"/><path d="M180 0v-1490h270l367 940c28 72 75 218 110 339 35-117 81-264 110-339l362-940h271V0h-187c2-448-5-837 7-1287-157 497-311 829-483 1287H842C666-458 514-784 354-1284c12 438 5 843 7 1284H180" id="U"/><path d="M784 20c-382 0-662-292-662-764 0-473 280-766 662-766s660 293 660 766c0 472-278 764-660 764zm0-176c266 0 475-207 475-588 0-383-209-590-475-590-268 0-477 208-477 590 0 380 209 588 477 588" id="V"/><path d="M645 0H180v-1490h484c435 0 692 280 692 742 0 466-257 748-711 748zM370-168h263c363 0 539-218 539-580 0-358-176-574-521-574H370v1154" id="W"/><path d="M180 0v-1490h190v1322h690V0H180" id="X"/><path d="M180 0v-1490h224l606 953c40 63 108 177 176 312-27-437-7-821-13-1265h190V0h-226C860-448 622-778 356-1262c27 476 11 792 15 1262H180" id="Y"/><g id="l"><use transform="matrix(0.007595486111111112,0,0,0.007595486111111112,0,0)" xlink:href="#Q"/><use transform="matrix(0.007595486111111112,0,0,0.007595486111111112,9.980468750000002,0)" xlink:href="#S"/><use transform="matrix(0.007595486111111112,0,0,0.007595486111111112,14.157986111111114,0)" xlink:href="#T"/><use transform="matrix(0.007595486111111112,0,0,0.007595486111111112,25.763888888888893,0)" xlink:href="#U"/><use transform="matrix(0.007595486111111112,0,0,0.007595486111111112,39.81553819444445,0)" xlink:href="#V"/><use transform="matrix(0.007595486111111112,0,0,0.007595486111111112,51.71006944444445,0)" xlink:href="#S"/><use transform="matrix(0.007595486111111112,0,0,0.007595486111111112,55.887586805555564,0)" xlink:href="#W"/><use transform="matrix(0.007595486111111112,0,0,0.007595486111111112,66.58203125000001,0)" xlink:href="#O"/><use transform="matrix(0.007595486111111112,0,0,0.007595486111111112,77.31445312500001,0)" xlink:href="#X"/><use transform="matrix(0.007595486111111112,0,0,0.007595486111111112,86.11002604166669,0)" xlink:href="#Y"/><use transform="matrix(0.007595486111111112,0,0,0.007595486111111112,97.82986111111113,0)" xlink:href="#O"/></g><path d="M180 0v-1490h908v168H370v486h669v168H370v500h727V0H180" id="Z"/><g id="m"><use transform="matrix(0.007595486111111112,0,0,0.007595486111111112,0,0)" xlink:href="#W"/><use transform="matrix(0.007595486111111112,0,0,0.007595486111111112,11.226128472222223,0)" xlink:href="#V"/><use transform="matrix(0.007595486111111112,0,0,0.007595486111111112,23.120659722222225,0)" xlink:href="#W"/><use transform="matrix(0.007595486111111112,0,0,0.007595486111111112,33.81510416666667,0)" xlink:href="#O"/><use transform="matrix(0.007595486111111112,0,0,0.007595486111111112,43.666449652777786,0)" xlink:href="#N"/><use transform="matrix(0.007595486111111112,0,0,0.007595486111111112,58.11306423611112,0)" xlink:href="#O"/><use transform="matrix(0.007595486111111112,0,0,0.007595486111111112,68.84548611111113,0)" xlink:href="#Y"/><use transform="matrix(0.007595486111111112,0,0,0.007595486111111112,80.56532118055557,0)" xlink:href="#S"/><use transform="matrix(0.007595486111111112,0,0,0.007595486111111112,84.74283854166669,0)" xlink:href="#Z"/></g><path d="M180 0v-1490h190v644h782v-644h190V0h-190v-678H370V0H180" id="aa"/><g id="n"><use transform="matrix(0.007595486111111112,0,0,0.007595486111111112,0,0)" xlink:href="#aa"/><use transform="matrix(0.007595486111111112,0,0,0.007595486111111112,11.560329861111112,0)" xlink:href="#O"/><use transform="matrix(0.007595486111111112,0,0,0.007595486111111112,22.292751736111114,0)" xlink:href="#W"/><use transform="matrix(0.007595486111111112,0,0,0.007595486111111112,32.98719618055556,0)" xlink:href="#O"/><use transform="matrix(0.007595486111111112,0,0,0.007595486111111112,43.71961805555556,0)" xlink:href="#U"/><use transform="matrix(0.007595486111111112,0,0,0.007595486111111112,57.771267361111114,0)" xlink:href="#O"/><use transform="matrix(0.007595486111111112,0,0,0.007595486111111112,68.50368923611111,0)" xlink:href="#P"/><use transform="matrix(0.007595486111111112,0,0,0.007595486111111112,78.51453993055556,0)" xlink:href="#W"/><use transform="matrix(0.007595486111111112,0,0,0.007595486111111112,89.20898437500001,0)" xlink:href="#O"/></g><g id="o"><use transform="matrix(0.007595486111111112,0,0,0.007595486111111112,0,0)" xlink:href="#R"/><use transform="matrix(0.007595486111111112,0,0,0.007595486111111112,8.719618055555555,0)" xlink:href="#O"/><use transform="matrix(0.007595486111111112,0,0,0.007595486111111112,19.452039930555557,0)" xlink:href="#Y"/><use transform="matrix(0.007595486111111112,0,0,0.007595486111111112,31.171875000000004,0)" xlink:href="#T"/><use transform="matrix(0.007595486111111112,0,0,0.007595486111111112,42.777777777777786,0)" xlink:href="#Z"/><use transform="matrix(0.007595486111111112,0,0,0.007595486111111112,52.127821180555564,0)" xlink:href="#Y"/><use transform="matrix(0.007595486111111112,0,0,0.007595486111111112,63.84765625000002,0)" xlink:href="#Q"/><use transform="matrix(0.007595486111111112,0,0,0.007595486111111112,73.82812500000001,0)" xlink:href="#O"/></g><path d="M180 0v-1490h510c348 0 508 209 508 474 0 266-160 477-507 477H370V0H180zm190-706h312c236 0 327-133 327-310 0-176-91-307-329-307H370v617" id="ab"/><path d="M180 0v-1490h528c311 0 458 177 458 395 0 191-114 278-244 313v14c139 9 302 137 302 371 0 225-148 397-499 397H180zm190-168h350c232 0 321-102 321-231 0-149-120-277-311-277H370v508zm0-668h328c160 0 286-101 286-255 0-129-87-231-280-231H370v486" id="ac"/><path d="M783 20c-382 0-661-292-661-764 0-473 279-766 661-766 302 0 548 182 601 489h-190c-42-204-217-313-411-313-268 0-476 208-476 590 0 381 209 588 476 588 195 0 369-110 411-313h190c-52 303-296 489-601 489" id="ad"/><path d="M130 0v-134l666-991c45-67 96-135 147-202-269 9-546 3-821 5v-168h1036v136L502-379c-49 72-103 145-157 216 268-9 546-3 821-5V0H130" id="ae"/><g id="p"><use transform="matrix(0.007595486111111112,0,0,0.007595486111111112,0,0)" xlink:href="#aa"/><use transform="matrix(0.007595486111111112,0,0,0.007595486111111112,11.560329861111112,0)" xlink:href="#S"/><use transform="matrix(0.007595486111111112,0,0,0.007595486111111112,15.737847222222223,0)" xlink:href="#ab"/><use transform="matrix(0.007595486111111112,0,0,0.007595486111111112,25.672743055555557,0)" xlink:href="#Z"/><use transform="matrix(0.007595486111111112,0,0,0.007595486111111112,35.022786458333336,0)" xlink:href="#P"/><use transform="matrix(0.007595486111111112,0,0,0.007595486111111112,45.03363715277778,0)" xlink:href="#ac"/><use transform="matrix(0.007595486111111112,0,0,0.007595486111111112,55.21158854166667,0)" xlink:href="#V"/><use transform="matrix(0.007595486111111112,0,0,0.007595486111111112,67.10611979166667,0)" xlink:href="#X"/><use transform="matrix(0.007595486111111112,0,0,0.007595486111111112,75.90169270833334,0)" xlink:href="#S"/><use transform="matrix(0.007595486111111112,0,0,0.007595486111111112,80.07921006944446,0)" xlink:href="#ad"/><use transform="matrix(0.007595486111111112,0,0,0.007595486111111112,91.44205729166669,0)" xlink:href="#ae"/><use transform="matrix(0.007595486111111112,0,0,0.007595486111111112,101.2250434027778,0)" xlink:href="#Y"/><use transform="matrix(0.007595486111111112,0,0,0.007595486111111112,112.94487847222224,0)" xlink:href="#Z"/><use transform="matrix(0.007595486111111112,0,0,0.007595486111111112,122.29492187500003,0)" xlink:href="#T"/><use transform="matrix(0.007595486111111112,0,0,0.007595486111111112,133.9008246527778,0)" xlink:href="#V"/></g><path d="M130 0v-134l666-991c45-67 96-135 147-202-269 9-546 3-821 5v-168h1036v136L502-379c-49 72-103 145-157 216 268-9 546-3 821-5V0H130zm514-1673c-68 0-125-53-125-119s57-119 125-119c69 0 126 53 126 119s-57 119-126 119" id="af"/><g id="q"><use transform="matrix(0.007595486111111112,0,0,0.007595486111111112,0,0)" xlink:href="#U"/><use transform="matrix(0.007595486111111112,0,0,0.007595486111111112,14.051649305555557,0)" xlink:href="#Y"/><use transform="matrix(0.007595486111111112,0,0,0.007595486111111112,25.771484375000004,0)" xlink:href="#V"/><use transform="matrix(0.007595486111111112,0,0,0.007595486111111112,37.66601562500001,0)" xlink:href="#af"/><use transform="matrix(0.007595486111111112,0,0,0.007595486111111112,47.44900173611112,0)" xlink:href="#Z"/><use transform="matrix(0.007595486111111112,0,0,0.007595486111111112,56.7990451388889,0)" xlink:href="#Y"/><use transform="matrix(0.007595486111111112,0,0,0.007595486111111112,68.51888020833334,0)" xlink:href="#S"/><use transform="matrix(0.007595486111111112,0,0,0.007595486111111112,72.69639756944446,0)" xlink:href="#Z"/></g><path d="M135 0v-1490h305v1237h643V0H135" id="ag"/><path d="M135 0v-1490h997v253H440v360h640v249H440v375h694V0H135" id="ah"/><path d="M135 0v-1490h340l471 754c59 97 122 210 187 365-32-387-14-721-19-1119h312V0h-341C855-382 627-689 427-1113c32 420 16 695 20 1113H135" id="ai"/><path d="M659 0H135v-1490h529c448 0 721 280 721 744 0 466-273 746-726 746zM440-263h204c287 0 437-148 437-483 0-333-150-481-435-481H440v964" id="aj"/><g id="r"><use transform="matrix(0.007595486111111112,0,0,0.007595486111111112,0,0)" xlink:href="#ag"/><use transform="matrix(0.007595486111111112,0,0,0.007595486111111112,8.795572916666668,0)" xlink:href="#ah"/><use transform="matrix(0.007595486111111112,0,0,0.007595486111111112,18.244357638888893,0)" xlink:href="#L"/><use transform="matrix(0.007595486111111112,0,0,0.007595486111111112,29.91861979166667,0)" xlink:href="#ah"/><use transform="matrix(0.007595486111111112,0,0,0.007595486111111112,39.36740451388889,0)" xlink:href="#ai"/><use transform="matrix(0.007595486111111112,0,0,0.007595486111111112,51.22395833333334,0)" xlink:href="#aj"/><use transform="matrix(0.007595486111111112,0,0,0.007595486111111112,61.80447048611112,0)" xlink:href="#K"/></g><path d="M545 20c-263 0-445-160-445-446v-80h190v80c0 182 102 279 255 279 152 0 254-97 254-279v-1064h190v1064c0 286-181 446-444 446" id="ak"/><g id="s"><use transform="matrix(0.007595486111111112,0,0,0.007595486111111112,0,0)" xlink:href="#V"/><use transform="matrix(0.007595486111111112,0,0,0.007595486111111112,11.894531250000002,0)" xlink:href="#ab"/><use transform="matrix(0.007595486111111112,0,0,0.007595486111111112,21.829427083333336,0)" xlink:href="#Z"/><use transform="matrix(0.007595486111111112,0,0,0.007595486111111112,31.179470486111114,0)" xlink:href="#P"/><use transform="matrix(0.007595486111111112,0,0,0.007595486111111112,41.19032118055556,0)" xlink:href="#O"/><use transform="matrix(0.007595486111111112,0,0,0.007595486111111112,51.39105902777778,0)" xlink:href="#ad"/><use transform="matrix(0.007595486111111112,0,0,0.007595486111111112,62.75390625000001,0)" xlink:href="#ak"/><use transform="matrix(0.007595486111111112,0,0,0.007595486111111112,71.32921006944444,0)" xlink:href="#O"/></g><path d="M180 0v-1490h190c0 262 1 526-3 784 217-279 467-523 702-784h249L716-845 1319 0h-225L585-716 370-489V0H180" id="al"/><g id="t"><use transform="matrix(0.007595486111111112,0,0,0.007595486111111112,0,0)" xlink:href="#al"/><use transform="matrix(0.007595486111111112,0,0,0.007595486111111112,9.927300347222223,0)" xlink:href="#V"/><use transform="matrix(0.007595486111111112,0,0,0.007595486111111112,21.821831597222225,0)" xlink:href="#Y"/><use transform="matrix(0.007595486111111112,0,0,0.007595486111111112,33.54166666666667,0)" xlink:href="#al"/><use transform="matrix(0.007595486111111112,0,0,0.007595486111111112,43.99305555555556,0)" xlink:href="#O"/><use transform="matrix(0.007595486111111112,0,0,0.007595486111111112,53.40386284722222,0)" xlink:href="#R"/><use transform="matrix(0.007595486111111112,0,0,0.007595486111111112,63.445095486111114,0)" xlink:href="#Z"/><use transform="matrix(0.007595486111111112,0,0,0.007595486111111112,72.79513888888889,0)" xlink:href="#Y"/><use transform="matrix(0.007595486111111112,0,0,0.007595486111111112,84.51497395833333,0)" xlink:href="#O"/><use transform="matrix(0.007595486111111112,0,0,0.007595486111111112,94.71571180555556,0)" xlink:href="#ad"/><use transform="matrix(0.007595486111111112,0,0,0.007595486111111112,106.07855902777779,0)" xlink:href="#ak"/><use transform="matrix(0.007595486111111112,0,0,0.007595486111111112,114.95768229166667,0)" xlink:href="#S"/></g><g id="u"><use transform="matrix(0.007595486111111112,0,0,0.007595486111111112,0,0)" xlink:href="#al"/><use transform="matrix(0.007595486111111112,0,0,0.007595486111111112,9.927300347222223,0)" xlink:href="#V"/><use transform="matrix(0.007595486111111112,0,0,0.007595486111111112,21.821831597222225,0)" xlink:href="#ab"/><use transform="matrix(0.007595486111111112,0,0,0.007595486111111112,31.756727430555557,0)" xlink:href="#S"/><use transform="matrix(0.007595486111111112,0,0,0.007595486111111112,35.93424479166667,0)" xlink:href="#V"/><use transform="matrix(0.007595486111111112,0,0,0.007595486111111112,47.82877604166667,0)" xlink:href="#N"/><use transform="matrix(0.007595486111111112,0,0,0.007595486111111112,62.27539062500001,0)" xlink:href="#O"/><use transform="matrix(0.007595486111111112,0,0,0.007595486111111112,73.00781250000001,0)" xlink:href="#Y"/><use transform="matrix(0.007595486111111112,0,0,0.007595486111111112,84.72764756944446,0)" xlink:href="#S"/><use transform="matrix(0.007595486111111112,0,0,0.007595486111111112,88.90516493055557,0)" xlink:href="#O"/></g></defs></g></svg>