<svg xmlns="http://www.w3.org/2000/svg" xmlns:xlink="http://www.w3.org/1999/xlink" xmlns:lucid="lucid" width="1100" height="589.54"><g transform="translate(50 -123.96356832433943)" lucid:page-tab-id="0_0"><path d="M30 138.3a6 6 0 0 1 6-6h114a6 6 0 0 1 6 6v64a6 6 0 0 1-6 6H36a6 6 0 0 1-6-6z" stroke="#3a414a" stroke-width="2" fill="#fc9432"/><use xlink:href="#a" transform="matrix(1,0,0,1,35,137.29559957433943) translate(26.14236111111111 40.09027777777778)"/><path d="M220.6 130.96a6 6 0 0 1 6-6h164a6 6 0 0 1 6 6v78.67a6 6 0 0 1-6 6h-164a6 6 0 0 1-6-6z" stroke="#3a414a" stroke-width="2" fill="#cfe4ff"/><use xlink:href="#b" transform="matrix(1,0,0,1,225.61398505823854,129.96356832433943) translate(22.87087673611112 24.05902777777778)"/><use xlink:href="#c" transform="matrix(1,0,0,1,225.61398505823854,129.96356832433943) translate(4.055772569444457 50.947048611111114)"/><use xlink:href="#d" transform="matrix(1,0,0,1,225.61398505823854,129.96356832433943) translate(110.45768229166667 50.947048611111114)"/><use xlink:href="#e" transform="matrix(1,0,0,1,225.61398505823854,129.96356832433943) translate(46.406032986111114 77.83506944444446)"/><path d="M440 138.3a6 6 0 0 1 6-6h164a6 6 0 0 1 6 6v64a6 6 0 0 1-6 6H446a6 6 0 0 1-6-6z" stroke="#3a414a" stroke-width="2" fill="#ced4db"/><use xlink:href="#b" transform="matrix(1,0,0,1,445,137.29559957433943) translate(22.87087673611112 27.71527777777778)"/><use xlink:href="#f" transform="matrix(1,0,0,1,445,137.29559957433943) translate(19.27387152777778 54.603298611111114)"/><path d="M233.6 326a6 6 0 0 1 6-6h138a6 6 0 0 1 6 6v64a6 6 0 0 1-6 6h-138a6 6 0 0 1-6-6z" stroke="#3a414a" stroke-width="2" fill="#ced4db"/><use xlink:href="#b" transform="matrix(1,0,0,1,238.61398505823854,325) translate(9.870876736111121 27.71527777777778)"/><use xlink:href="#g" transform="matrix(1,0,0,1,238.61398505823854,325) translate(46.10677083333333 54.603298611111114)"/><path d="M5 326a6 6 0 0 1 6-6h164a6 6 0 0 1 6 6v64a6 6 0 0 1-6 6H11a6 6 0 0 1-6-6z" stroke="#3a414a" stroke-width="2" fill="#cfe4ff"/><use xlink:href="#b" transform="matrix(1,0,0,1,10,325) translate(22.87087673611112 27.71527777777778)"/><use xlink:href="#h" transform="matrix(1,0,0,1,10,325) translate(2.3250868055555713 54.603298611111114)"/><use xlink:href="#i" transform="matrix(1,0,0,1,10,325) translate(115.45442708333333 54.603298611111114)"/><path d="M578.4 320c21 0 38 17 38 38s-17 38-38 38h-100c-20.98 0-38-17-38-38s17.02-38 38-38z" stroke="#3a414a" stroke-width="2" fill="#fff"/><use xlink:href="#b" transform="matrix(1,0,0,1,445.40932337215895,325) translate(22.875876736111117 27.71527777777778)"/><use xlink:href="#j" transform="matrix(1,0,0,1,445.40932337215895,325) translate(60.80447916666667 54.603298611111114)"/><path d="M399.1 170.3h19.28" stroke="#3a414a" stroke-width="3" fill="none"/><path d="M399.15 171.77h-1.54v-2.95h1.55z" stroke="#3a414a" stroke-width=".05" fill="#3a414a"/><path d="M434.15 170.3l-14.27 4.63v-9.27z" stroke="#3a414a" stroke-width="3" fill="#3a414a"/><path d="M183.5 358H212" stroke="#3a414a" stroke-width="3" fill="none"/><path d="M183.54 359.48H182v-2.96h1.54z" stroke="#3a414a" stroke-width=".05" fill="#3a414a"/><path d="M227.76 358l-14.27 4.63v-9.26z" stroke="#3a414a" stroke-width="3" fill="#3a414a"/><path d="M158.5 170.3H199" stroke="#3a414a" stroke-width="3" fill="none"/><path d="M158.54 171.77H157v-2.95h1.54z" stroke="#3a414a" stroke-width=".05" fill="#3a414a"/><path d="M214.76 170.3l-14.27 4.63v-9.27z" stroke="#3a414a" stroke-width="3" fill="#3a414a"/><path d="M386.1 358h32.7" stroke="#3a414a" stroke-width="3" fill="none"/><path d="M386.15 359.48h-1.54v-2.96h1.55z" stroke="#3a414a" stroke-width=".05" fill="#3a414a"/><path d="M434.55 358l-14.26 4.63v-9.26z" stroke="#3a414a" stroke-width="3" fill="#3a414a"/><path d="M528 210.8v53.14a.2.2 0 0 0 .2.2.2.2 0 0 1 .2.2v34.04" stroke="#3a414a" stroke-width="3" fill="none"/><path d="M529.48 210.83h-2.96v-1.53h2.96z" stroke="#3a414a" stroke-width=".05" fill="#3a414a"/><path d="M528.4 314.15l-4.63-14.27h9.27z" stroke="#3a414a" stroke-width="3" fill="#3a414a"/><path d="M-49 269.56h9.9m9.88 0h19.8m9.88 0h19.78m9.9 0h19.78m9.9 0h19.77m9.9 0h19.77m9.9 0h19.78m9.9 0h19.77m9.9 0h19.78m9.9 0h19.77m9.9 0h19.78m9.9 0h19.77m9.9 0H317m9.9 0h19.78m9.9 0h19.77m9.9 0h19.78m9.9 0h19.77m9.9 0h19.78m9.9 0h19.77m9.9 0h19.78m9.9 0h19.77m9.9 0h19.78m9.9 0h19.78m9.9 0h19.77m9.9 0h19.78m9.9 0h19.78m9.9 0h19.78m9.9 0h19.77m9.9 0h19.78m9.9 0h19.8m9.88 0h19.78m9.9 0h19.78m9.9 0h19.77m9.9 0h19.8m9.88 0h19.78m9.9 0h19.78m9.9 0h19.78m9.9 0h9.88" stroke="#3a414a" stroke-width="2" stroke-linecap="round" fill="none"/><path d="M660.2 326a6 6 0 0 1 6-6h164a6 6 0 0 1 6 6v64a6 6 0 0 1-6 6h-164a6 6 0 0 1-6-6z" stroke="#3a414a" stroke-width="2" fill="#ced4db"/><use xlink:href="#b" transform="matrix(1,0,0,1,665.2046616860794,325) translate(22.87087673611112 27.71527777777778)"/><use xlink:href="#k" transform="matrix(1,0,0,1,665.2046616860794,325) translate(7.7504340277777715 54.603298611111114)"/><use xlink:href="#i" transform="matrix(1,0,0,1,665.2046616860794,325) translate(110.0290798611111 54.603298611111114)"/><path d="M618.9 358h19.7" stroke="#3a414a" stroke-width="3" fill="none"/><path d="M618.95 359.48h-1.63l.1-1.48-.1-1.48h1.63z" stroke="#3a414a" stroke-width=".05" fill="#3a414a"/><path d="M654.35 358l-14.26 4.63v-9.26z" stroke="#3a414a" stroke-width="3" fill="#3a414a"/><path d="M880 326a6 6 0 0 1 6-6h114a6 6 0 0 1 6 6v64a6 6 0 0 1-6 6H886a6 6 0 0 1-6-6z" stroke="#3a414a" stroke-width="2" fill="#fc9432"/><use xlink:href="#l" transform="matrix(1,0,0,1,884.9999999999998,325) translate(26.164062499999996 40.09027777777778)"/><path d="M838.7 358h19.68" stroke="#3a414a" stroke-width="3" fill="none"/><path d="M838.74 359.48h-1.53v-2.96h1.54z" stroke="#3a414a" stroke-width=".05" fill="#3a414a"/><path d="M874.15 358l-14.27 4.63v-9.26z" stroke="#3a414a" stroke-width="3" fill="#3a414a"/><path d="M1008.5 358h25.5a6 6 0 0 1 6 6v80a6 6 0 0 1-6 6H-14a6 6 0 0 1-6-6v-82.62a3.38 3.38 0 0 1 3.38-3.38" stroke="#3a414a" stroke-width="3" fill="none"/><path d="M1008.54 359.48H1007v-2.96h1.54z" stroke="#3a414a" stroke-width=".05" fill="#3a414a"/><path d="M-.85 358l-14.27 4.63v-9.26z" stroke="#3a414a" stroke-width="3" fill="#3a414a"/><path d="M797.82 219.83a6 6 0 0 1 6-6H914a6 6 0 0 1 6 6v42.72a6 6 0 0 1-6 6H803.82a6 6 0 0 1-6-6z" stroke="#000" stroke-opacity="0" fill="#fff" fill-opacity="0"/><use xlink:href="#m" transform="matrix(1,0,0,1,802.8156378923125,218.8285910363241) translate(18.32183159722223 29.96527777777778)"/><path d="M797.85 274.56a6 6 0 0 1 6-6H914a6 6 0 0 1 6 6V314a6 6 0 0 1-6 6H803.85a6 6 0 0 1-6-6z" stroke="#000" stroke-opacity="0" stroke-width="2" fill="#fff" fill-opacity="0"/><use xlink:href="#n" transform="matrix(1,0,0,1,802.8510287743541,273.5549212581454) translate(3.5486111111111214 29.40277777777778)"/><path d="M-20 219.83a6 6 0 0 1 6-6h99.28a6 6 0 0 1 6 6v42.72a6 6 0 0 1-6 6H-14a6 6 0 0 1-6-6z" fill="none"/><use xlink:href="#o" transform="matrix(1,0,0,1,-20,213.8285910363241) translate(-0.62977430555555 35.583767361111114)"/><path d="M528.9 451.5v46.88M528.9 451.54V450" stroke="#3a414a" stroke-width="3" fill="none"/><path d="M528.9 514.15l-4.65-14.27h9.27z" stroke="#3a414a" stroke-width="3" fill="#3a414a"/><path d="M38.9 520h140v60h-140z" stroke="#3a414a" stroke-width="2" fill="#fff"/><use xlink:href="#p" transform="matrix(1,0,0,1,43.886601297808284,525) translate(14.951171875 34.02777777777778)"/><path d="M178.9 520h140v60h-140z" stroke="#3a414a" stroke-width="2" fill="#fc9432"/><use xlink:href="#q" transform="matrix(1,0,0,1,183.88660129780828,525) translate(15.2978515625 34.02777777777778)"/><path d="M318.9 520h140v60h-140z" stroke="#3a414a" stroke-width="2" fill="#fc9432"/><use xlink:href="#r" transform="matrix(1,0,0,1,323.8866012978083,525) translate(45.79427083333333 34.02777777777778)"/><path d="M458.9 520h140v60h-140z" stroke="#3a414a" stroke-width="2" fill="#fc9432"/><use xlink:href="#s" transform="matrix(1,0,0,1,463.8866012978084,525) translate(5.556640625 34.02777777777778)"/><path d="M598 520h140v60H598z" stroke="#3a414a" stroke-width="2" fill="#fc9432"/><use xlink:href="#t" transform="matrix(1,0,0,1,603,525) translate(13.866102430555557 34.02777777777778)"/><path d="M877.1 520h140v60h-140z" stroke="#3a414a" stroke-width="2" fill="#fff"/><use xlink:href="#u" transform="matrix(1,0,0,1,882.1133987021917,525) translate(20.734592013888886 34.02777777777778)"/><path d="M769.84 554.38h34.9a.12.12 0 0 0 .1-.12.12.12 0 0 1 .13-.12h17.4M769.86 554.38h-1.02" stroke="#3a414a" stroke-width="2" fill="none"/><path d="M837.63 554.14l-14.26 4.64v-9.27z" stroke="#3a414a" stroke-width="2" fill="#3a414a"/><path d="M725.18 656.32h70v50h-70z" fill="#cfe4ff"/><path d="M418.12 655.1h70v50h-70z" fill="#ced4db"/><path d="M800.98 655.22a6 6 0 0 1 6-6h172.2a6 6 0 0 1 6 6V707a6 6 0 0 1-6 6h-172.2a6 6 0 0 1-6-6z" stroke="#000" stroke-opacity="0" fill="#fff" fill-opacity="0"/><g><use xlink:href="#v" transform="matrix(1,0,0,1,805.9803717025227,654.2232164254765) translate(0 35.02777777777778)"/><use xlink:href="#w" transform="matrix(1,0,0,1,805.9803717025227,654.2232164254765) translate(84.54861111111111 35.02777777777778)"/></g><path d="M493.43 662.32a6 6 0 0 1 6-6H713.4a6 6 0 0 1 6 6v37.6a6 6 0 0 1-6 6H499.42a6 6 0 0 1-6-6z" fill="none"/><g><use xlink:href="#x" transform="matrix(1,0,0,1,493.4260304524125,656.3154039263252) translate(0 33.083767361111114)"/><use xlink:href="#y" transform="matrix(1,0,0,1,493.4260304524125,656.3154039263252) translate(97.86241319444444 33.083767361111114)"/></g><path d="M509.87 601.1a6 6 0 0 1 6-6h86.03a6 6 0 0 1 6 6v30.2a6 6 0 0 1-6 6h-86.03a6 6 0 0 1-6-6z" stroke="#000" stroke-opacity="0" fill="#fff" fill-opacity="0"/><g><use xlink:href="#z" transform="matrix(1,0,0,1,514.8687633536516,600.0904039212339) translate(-6.633897569444443 24.58376736111111)"/></g><path d="M121.43 655.1h70v50h-70z" fill="#fc9432"/><path d="M191.43 662.32a6 6 0 0 1 6-6h161.75a6 6 0 0 1 6 6v37.6a6 6 0 0 1-6 6H197.44a6 6 0 0 1-6-6z" stroke="#000" stroke-opacity="0" fill="#fff" fill-opacity="0"/><g><use xlink:href="#A" transform="matrix(1,0,0,1,196.43361134119664,661.3154039263252) translate(0 28.08376736111111)"/></g><path d="M737.1 520h140v60h-140z" stroke="#3a414a" stroke-width="2" fill-opacity="0"/><defs><path d="M784 20c-382 0-662-292-662-764 0-473 280-766 662-766s660 293 660 766c0 472-278 764-660 764zm0-176c266 0 475-207 475-588 0-383-209-590-475-590-268 0-477 208-477 590 0 380 209 588 477 588" id="B"/><path d="M677 24c-213 0-288-135-325-197h-20V0H158v-1490h180v551h14c37-59 106-193 324-193 279 0 474 222 474 576 0 356-194 580-473 580zm-27-161c209 0 317-186 317-421 0-232-105-413-317-413-206 0-314 166-314 413 0 249 111 421 314 421" id="C"/><path d="M158 0v-1118h174v172h12c41-113 157-188 290-188 26 0 70 2 91 3v181c-11-2-60-10-108-10-161 0-279 109-279 260V0H158" id="D"/><path d="M471 26C259 26 90-98 90-318c0-256 228-303 435-329 202-27 287-16 287-108 0-139-79-219-234-219-161 0-248 86-283 164l-173-57c86-203 278-265 451-265 150 0 419 46 419 395V0H815v-152h-12C765-73 660 26 471 26zm31-159c199 0 310-134 310-271v-155c-30 35-226 55-295 64-131 17-246 59-246 186 0 116 97 176 231 176" id="E"/><path d="M126 0v-134l627-806v-11H146v-167h839v143L376-178v11h629V0H126" id="F"/><g id="a"><use transform="matrix(0.010850694444444444,0,0,0.010850694444444444,0,0)" xlink:href="#B"/><use transform="matrix(0.010850694444444444,0,0,0.010850694444444444,16.9921875,0)" xlink:href="#C"/><use transform="matrix(0.010850694444444444,0,0,0.010850694444444444,30.598958333333332,0)" xlink:href="#D"/><use transform="matrix(0.010850694444444444,0,0,0.010850694444444444,38.96484375,0)" xlink:href="#E"/><use transform="matrix(0.010850694444444444,0,0,0.010850694444444444,51.44314236111112,0)" xlink:href="#F"/></g><path d="M180 0v-1490h190c0 262 1 526-3 784 217-279 467-523 702-784h249L716-845 1319 0h-225L585-716 370-489V0H180" id="G"/><path d="M613 24c-304 0-509-231-509-576 0-350 205-580 509-580 305 0 511 230 511 580 0 345-206 576-511 576zm0-161c226 0 329-195 329-415 0-222-103-419-329-419-223 0-326 196-326 419 0 220 103 415 326 415" id="H"/><path d="M158 0v-1118h175l1 205c55-151 181-225 313-225 147 0 245 90 285 228 53-141 190-228 352-228 194 0 352 125 352 384V0h-181v-749c0-161-105-225-225-225-151 0-243 103-243 244V0H807v-767c0-124-93-207-219-207-131 0-250 92-250 270V0H158" id="I"/><path d="M158 418v-1536h174v179h20c37-59 106-193 324-193 279 0 474 222 474 576 0 356-194 580-473 580-213 0-288-135-325-197h-14v591H158zm492-555c209 0 317-186 317-421 0-232-105-413-317-413-206 0-314 166-314 413 0 249 111 421 314 421" id="J"/><path d="M338-670V0H158v-1118h173l1 207c72-158 192-221 342-221 226 0 378 139 378 422V0H872v-695c0-172-96-275-252-275-161 0-282 109-282 300" id="K"/><path d="M628 24c-324 0-524-230-524-574 0-343 198-582 503-582 237 0 487 146 487 559v75H286c9 234 145 362 343 362 132 0 231-58 273-172l174 48C1024-91 857 24 628 24zM287-650h624c-17-190-120-322-304-322-192 0-309 151-320 322" id="L"/><path d="M598-1118v154H368v674c0 100 37 144 132 144 23 0 62-6 92-12L629-6c-37 13-88 20-134 20-193 0-307-107-307-290v-688H20v-154h168v-266h180v266h230" id="M"/><g id="b"><use transform="matrix(0.010850694444444444,0,0,0.010850694444444444,0,0)" xlink:href="#G"/><use transform="matrix(0.010850694444444444,0,0,0.010850694444444444,14.051649305555555,0)" xlink:href="#H"/><use transform="matrix(0.010850694444444444,0,0,0.010850694444444444,27.376302083333332,0)" xlink:href="#I"/><use transform="matrix(0.010850694444444444,0,0,0.010850694444444444,46.842447916666664,0)" xlink:href="#J"/><use transform="matrix(0.010850694444444444,0,0,0.010850694444444444,60.44921875,0)" xlink:href="#H"/><use transform="matrix(0.010850694444444444,0,0,0.010850694444444444,73.77387152777777,0)" xlink:href="#K"/><use transform="matrix(0.010850694444444444,0,0,0.010850694444444444,86.90321180555554,0)" xlink:href="#L"/><use transform="matrix(0.010850694444444444,0,0,0.010850694444444444,99.85894097222221,0)" xlink:href="#K"/><use transform="matrix(0.010850694444444444,0,0,0.010850694444444444,112.98828124999997,0)" xlink:href="#M"/></g><path d="M158 0v-1490h180v865h22l478-493h223L593-638 1096 0H865L456-523 338-412V0H158" id="N"/><path d="M538 24C308 24 148-78 108-271l171-41c32 123 123 178 257 178 156 0 256-77 256-169 0-77-54-128-164-154l-186-44c-203-48-300-148-300-305 0-192 176-326 414-326 230 0 351 112 402 269l-163 42c-31-80-94-158-238-158-133 0-233 69-233 162 0 83 57 129 188 160l169 40c203 48 298 149 298 302 0 196-179 339-441 339" id="O"/><path d="M613 24c-304 0-509-231-509-576 0-350 205-580 509-580 216 0 392 114 453 309l-173 49c-33-115-133-197-280-197-223 0-326 196-326 419 0 220 103 415 326 415 150 0 252-85 285-206l172 49C1010-95 832 24 613 24" id="P"/><path d="M157-1118h181V80c1 225-123 350-364 338V252c126 9 184-48 183-172v-1198zm91-183c-68 0-125-53-125-119s57-119 125-119c69 0 126 53 126 119s-57 119-126 119" id="Q"/><path d="M158 0v-1118h180V0H158zm91-1301c-68 0-125-53-125-119s57-119 125-119c69 0 126 53 126 119s-57 119-126 119" id="R"/><g id="c"><use transform="matrix(0.010850694444444444,0,0,0.010850694444444444,0,0)" xlink:href="#L"/><use transform="matrix(0.010850694444444444,0,0,0.010850694444444444,12.955729166666666,0)" xlink:href="#N"/><use transform="matrix(0.010850694444444444,0,0,0.010850694444444444,25.15190972222222,0)" xlink:href="#O"/><use transform="matrix(0.010850694444444444,0,0,0.010850694444444444,36.881510416666664,0)" xlink:href="#M"/><use transform="matrix(0.010850694444444444,0,0,0.010850694444444444,44.15147569444444,0)" xlink:href="#D"/><use transform="matrix(0.010850694444444444,0,0,0.010850694444444444,52.51736111111111,0)" xlink:href="#E"/><use transform="matrix(0.010850694444444444,0,0,0.010850694444444444,64.99565972222221,0)" xlink:href="#N"/><use transform="matrix(0.010850694444444444,0,0,0.010850694444444444,76.69270833333333,0)" xlink:href="#P"/><use transform="matrix(0.010850694444444444,0,0,0.010850694444444444,89.38802083333333,0)" xlink:href="#Q"/><use transform="matrix(0.010850694444444444,0,0,0.010850694444444444,94.76996527777777,0)" xlink:href="#R"/></g><path d="M338-670V0H158v-1490h180v566c73-149 190-208 336-208 226 0 379 139 379 422V0H872v-695c0-172-96-275-252-275-161 0-282 109-282 300" id="S"/><g id="d"><use transform="matrix(0.010850694444444444,0,0,0.010850694444444444,0,0)" xlink:href="#P"/><use transform="matrix(0.010850694444444444,0,0,0.010850694444444444,12.6953125,0)" xlink:href="#L"/><use transform="matrix(0.010850694444444444,0,0,0.010850694444444444,25.651041666666664,0)" xlink:href="#P"/><use transform="matrix(0.010850694444444444,0,0,0.010850694444444444,38.346354166666664,0)" xlink:href="#S"/></g><path d="M537 14c-226 0-379-139-379-422v-710h180v695c0 172 97 275 253 275 160 0 281-109 281-300v-670h181V0H879v-209C806-46 684 14 537 14" id="T"/><g id="e"><use transform="matrix(0.010850694444444444,0,0,0.010850694444444444,0,0)" xlink:href="#H"/><use transform="matrix(0.010850694444444444,0,0,0.010850694444444444,13.324652777777777,0)" xlink:href="#C"/><use transform="matrix(0.010850694444444444,0,0,0.010850694444444444,26.931423611111104,0)" xlink:href="#D"/><use transform="matrix(0.010850694444444444,0,0,0.010850694444444444,35.29730902777777,0)" xlink:href="#E"/><use transform="matrix(0.010850694444444444,0,0,0.010850694444444444,47.775607638888886,0)" xlink:href="#F"/><use transform="matrix(0.010850694444444444,0,0,0.010850694444444444,60.04774305555555,0)" xlink:href="#T"/></g><path d="M577 24c-279 0-473-224-473-580 0-354 195-576 474-576 218 0 287 134 324 193h14v-551h180V0H922v-173h-20C865-111 790 24 577 24zm27-161c203 0 314-172 314-421 0-247-108-413-314-413-212 0-317 181-317 413 0 235 108 421 317 421" id="U"/><path d="M140 405l46-156c120 36 205 19 263-150l32-93L54-1118h197c107 313 237 620 324 950 87-331 219-637 326-950h196L606 167c-68 178-176 259-334 259-64 0-113-12-132-21" id="V"/><g id="f"><use transform="matrix(0.010850694444444444,0,0,0.010850694444444444,0,0)" xlink:href="#E"/><use transform="matrix(0.010850694444444444,0,0,0.010850694444444444,12.47829861111111,0)" xlink:href="#U"/><use transform="matrix(0.010850694444444444,0,0,0.010850694444444444,26.085069444444443,0)" xlink:href="#E"/><use transform="matrix(0.010850694444444444,0,0,0.010850694444444444,38.56336805555556,0)" xlink:href="#J"/><use transform="matrix(0.010850694444444444,0,0,0.010850694444444444,52.170138888888886,0)" xlink:href="#M"/><use transform="matrix(0.010850694444444444,0,0,0.010850694444444444,59.54861111111111,0)" xlink:href="#E"/><use transform="matrix(0.010850694444444444,0,0,0.010850694444444444,72.02690972222221,0)" xlink:href="#P"/><use transform="matrix(0.010850694444444444,0,0,0.010850694444444444,84.28819444444444,0)" xlink:href="#V"/><use transform="matrix(0.010850694444444444,0,0,0.010850694444444444,96.77734375,0)" xlink:href="#Q"/><use transform="matrix(0.010850694444444444,0,0,0.010850694444444444,102.15928819444444,0)" xlink:href="#K"/><use transform="matrix(0.010850694444444444,0,0,0.010850694444444444,114.96310763888889,0)" xlink:href="#V"/></g><path d="M180 0v-1490h510c348 0 508 194 508 460 0 198-88 351-276 417L1256 0h-220L726-579c-117 2-238 0-356 1V0H180zm190-747h312c235 0 327-108 327-283 0-177-92-293-329-293H370v576" id="W"/><path d="M180 0v-1490h224l606 953c40 63 108 177 176 312-27-437-7-821-13-1265h190V0h-226C860-448 622-778 356-1262c27 476 11 792 15 1262H180" id="X"/><g id="g"><use transform="matrix(0.010850694444444444,0,0,0.010850694444444444,0,0)" xlink:href="#W"/><use transform="matrix(0.010850694444444444,0,0,0.010850694444444444,14.301215277777777,0)" xlink:href="#X"/><use transform="matrix(0.010850694444444444,0,0,0.010850694444444444,31.04383680555556,0)" xlink:href="#X"/></g><g id="h"><use transform="matrix(0.010850694444444444,0,0,0.010850694444444444,0,0)" xlink:href="#H"/><use transform="matrix(0.010850694444444444,0,0,0.010850694444444444,13.324652777777777,0)" xlink:href="#O"/><use transform="matrix(0.010850694444444444,0,0,0.010850694444444444,25.05425347222222,0)" xlink:href="#E"/><use transform="matrix(0.010850694444444444,0,0,0.010850694444444444,37.53255208333333,0)" xlink:href="#U"/><use transform="matrix(0.010850694444444444,0,0,0.010850694444444444,51.13932291666666,0)" xlink:href="#F"/><use transform="matrix(0.010850694444444444,0,0,0.010850694444444444,63.41145833333332,0)" xlink:href="#E"/><use transform="matrix(0.010850694444444444,0,0,0.010850694444444444,75.88975694444443,0)" xlink:href="#K"/><use transform="matrix(0.010850694444444444,0,0,0.010850694444444444,89.0190972222222,0)" xlink:href="#R"/><use transform="matrix(0.010850694444444444,0,0,0.010850694444444444,94.40104166666664,0)" xlink:href="#E"/></g><path d="M338-1490v461l168-97v161l-168 97V0H158v-763l-170 98v-161l170-98v-566h180" id="Y"/><path d="M613 24c-304 0-509-231-509-576 0-350 205-580 509-580 305 0 511 230 511 580 0 345-206 576-511 576zm0-161c226 0 329-195 329-415 0-222-103-419-329-419-223 0-326 196-326 419 0 220 103 415 326 415zm-79-1127l140-294h201l-194 294H534" id="Z"/><path d="M409 0L70-1118h191c89 329 165 560 243 925 75-353 154-601 240-925h192c85 325 161 564 235 922 77-354 157-598 244-922h191L1267 0h-179c-86-307-176-590-250-913C763-588 675-308 588 0H409" id="aa"/><g id="i"><use transform="matrix(0.010850694444444444,0,0,0.010850694444444444,0,0)" xlink:href="#O"/><use transform="matrix(0.010850694444444444,0,0,0.010850694444444444,11.729600694444445,0)" xlink:href="#Y"/><use transform="matrix(0.010850694444444444,0,0,0.010850694444444444,17.11154513888889,0)" xlink:href="#Z"/><use transform="matrix(0.010850694444444444,0,0,0.010850694444444444,30.03472222222222,0)" xlink:href="#aa"/></g><path d="M678-1118v154H420V0H240v-964H20v-154h220v-149c0-194 155-293 318-293 85 0 141 18 168 30l-50 154c-19-6-47-17-97-17-111 0-159 58-159 166v109h258" id="ab"/><g id="j"><use transform="matrix(0.010850694444444444,0,0,0.010850694444444444,0,0)" xlink:href="#ab"/><use transform="matrix(0.010850694444444444,0,0,0.010850694444444444,8.22482638888889,0)" xlink:href="#T"/><use transform="matrix(0.010850694444444444,0,0,0.010850694444444444,21.36501736111111,0)" xlink:href="#F"/><use transform="matrix(0.010850694444444444,0,0,0.010850694444444444,33.63715277777778,0)" xlink:href="#Q"/><use transform="matrix(0.010850694444444444,0,0,0.010850694444444444,39.01909722222222,0)" xlink:href="#R"/></g><g id="k"><use transform="matrix(0.010850694444444444,0,0,0.010850694444444444,0,0)" xlink:href="#J"/><use transform="matrix(0.010850694444444444,0,0,0.010850694444444444,13.606770833333332,0)" xlink:href="#D"/><use transform="matrix(0.010850694444444444,0,0,0.010850694444444444,21.603732638888886,0)" xlink:href="#L"/><use transform="matrix(0.010850694444444444,0,0,0.010850694444444444,34.55946180555555,0)" xlink:href="#U"/><use transform="matrix(0.010850694444444444,0,0,0.010850694444444444,48.27473958333333,0)" xlink:href="#V"/><use transform="matrix(0.010850694444444444,0,0,0.010850694444444444,60.87239583333333,0)" xlink:href="#N"/><use transform="matrix(0.010850694444444444,0,0,0.010850694444444444,72.56944444444444,0)" xlink:href="#P"/><use transform="matrix(0.010850694444444444,0,0,0.010850694444444444,85.26475694444444,0)" xlink:href="#Q"/><use transform="matrix(0.010850694444444444,0,0,0.010850694444444444,90.64670138888889,0)" xlink:href="#R"/></g><path d="M657 26c-323 0-524-166-541-416h195c15 169 171 246 346 246 202 0 356-106 356-265 5-203-294-238-475-293-239-73-380-191-380-389 0-252 224-419 512-419 294 0 499 171 508 396H992c-17-145-151-228-328-228-193 0-321 102-321 242 0 156 175 211 284 241l149 41c160 44 422 134 422 412 0 244-197 432-541 432" id="ac"/><g id="l"><use transform="matrix(0.010850694444444444,0,0,0.010850694444444444,0,0)" xlink:href="#ac"/><use transform="matrix(0.010850694444444444,0,0,0.010850694444444444,14.2578125,0)" xlink:href="#Y"/><use transform="matrix(0.010850694444444444,0,0,0.010850694444444444,19.639756944444443,0)" xlink:href="#H"/><use transform="matrix(0.010850694444444444,0,0,0.010850694444444444,32.56293402777778,0)" xlink:href="#aa"/><use transform="matrix(0.010850694444444444,0,0,0.010850694444444444,50.34722222222223,0)" xlink:href="#H"/></g><path d="M135 0v-1490h305c1 251 0 501-5 746 157-254 405-512 598-746h373L849-845 1422 0h-361L638-644 440-426V0H135" id="ad"/><path d="M789 20C394 20 94-260 94-744c0-487 300-766 695-766s695 279 695 766c0 485-300 764-695 764zm0-271c231 0 385-174 385-493 0-321-154-495-385-495s-385 175-385 495c0 319 154 493 385 493" id="ae"/><path d="M659 0H135v-1490h529c448 0 721 280 721 744 0 466-273 746-726 746zM440-263h204c287 0 437-148 437-483 0-333-150-481-435-481H440v964" id="af"/><path d="M135 0v-1490h997v253H440v360h640v249H440v375h694V0H135" id="ag"/><path d="M135 0v-1490h581c339 0 533 192 533 485 0 204-94 351-264 424L1302 0H964L680-532H440V0H135zm305-779h220c186 0 274-77 274-226 0-150-88-233-275-233H440v459" id="ah"/><g id="m"><use transform="matrix(0.010850694444444444,0,0,0.010850694444444444,0,0)" xlink:href="#ad"/><use transform="matrix(0.010850694444444444,0,0,0.010850694444444444,15.093315972222221,0)" xlink:href="#ae"/><use transform="matrix(0.010850694444444444,0,0,0.010850694444444444,32.21571180555556,0)" xlink:href="#af"/><use transform="matrix(0.010850694444444444,0,0,0.010850694444444444,48.263888888888886,0)" xlink:href="#ag"/><use transform="matrix(0.010850694444444444,0,0,0.010850694444444444,61.76215277777778,0)" xlink:href="#ah"/></g><g id="n"><use transform="matrix(0.010850694444444444,0,0,0.010850694444444444,0,0)" xlink:href="#af"/><use transform="matrix(0.010850694444444444,0,0,0.010850694444444444,16.048177083333332,0)" xlink:href="#ag"/><use transform="matrix(0.010850694444444444,0,0,0.010850694444444444,29.54644097222222,0)" xlink:href="#ad"/><use transform="matrix(0.010850694444444444,0,0,0.010850694444444444,44.63975694444444,0)" xlink:href="#ae"/><use transform="matrix(0.010850694444444444,0,0,0.010850694444444444,61.76215277777778,0)" xlink:href="#af"/><use transform="matrix(0.010850694444444444,0,0,0.010850694444444444,77.8103298611111,0)" xlink:href="#ag"/><use transform="matrix(0.010850694444444444,0,0,0.010850694444444444,91.30859374999997,0)" xlink:href="#ah"/></g><path d="M449 0L49-1490h333c89 395 194 758 253 1185 65-426 176-790 269-1185h317c93 394 201 758 268 1181 60-425 164-788 253-1181h334L1675 0h-348c-90-376-204-711-266-1118C1004-714 886-373 798 0H449" id="ai"/><path d="M567 20C257 20 68-148 68-448v-87h305v92c0 143 75 217 194 217s193-74 193-218v-1046h302v1041c0 301-188 469-495 469" id="aj"/><path d="M681 22C323 22 94-145 85-462h297c10 151 131 226 296 226 163 0 271-77 271-190 0-102-95-149-257-189l-164-41c-252-61-403-188-403-405 0-269 236-449 560-449 330 0 546 183 551 445H941c-11-119-106-188-259-188-156 0-244 72-244 172-3 156 226 185 373 221 250 61 445 186 445 436 0 271-213 446-575 446zM562-1632l139-311h279l-207 311H562" id="ak"/><path d="M786 20C389 20 94-260 94-744c0-487 299-766 692-766 339 0 597 194 641 529h-309c-28-162-156-258-326-258-233 0-388 179-388 495 0 323 157 493 387 493 170 0 298-97 328-259h309c-34 277-266 530-642 530" id="al"/><path d="M440-1490V0H135v-1490h305" id="am"/><g id="o"><use transform="matrix(0.010850694444444444,0,0,0.010850694444444444,0,0)" xlink:href="#ai"/><use transform="matrix(0.010850694444444444,0,0,0.010850694444444444,23.057725694444443,0)" xlink:href="#ag"/><use transform="matrix(0.010850694444444444,0,0,0.010850694444444444,36.55598958333333,0)" xlink:href="#aj"/><use transform="matrix(0.010850694444444444,0,0,0.010850694444444444,49.54427083333333,0)" xlink:href="#aj"/><use transform="matrix(0.010850694444444444,0,0,0.010850694444444444,62.53255208333333,0)" xlink:href="#ak"/><use transform="matrix(0.010850694444444444,0,0,0.010850694444444444,77.08333333333333,0)" xlink:href="#al"/><use transform="matrix(0.010850694444444444,0,0,0.010850694444444444,93.52213541666666,0)" xlink:href="#am"/><use transform="matrix(0.010850694444444444,0,0,0.010850694444444444,99.76128472222221,0)" xlink:href="#ag"/></g><path d="M174-520v-126l944-476v196L406-588v12l712 338v194" id="an"/><path d="M98-1322v-168h1126v168H757V0H567v-1322H98" id="ao"/><path d="M52 0l541-1490h220L1361 0h-200l-149-416H398L254 0H52zm404-582h497c-103-290-145-390-251-756-108 377-145 460-246 756" id="ap"/><path d="M1181-520L237-44v-194l712-338v-12L237-926v-196l944 476v126" id="aq"/><g id="p"><use transform="matrix(0.010850694444444444,0,0,0.010850694444444444,0,0)" xlink:href="#an"/><use transform="matrix(0.010850694444444444,0,0,0.010850694444444444,14.702690972222221,0)" xlink:href="#ac"/><use transform="matrix(0.010850694444444444,0,0,0.010850694444444444,28.96050347222222,0)" xlink:href="#ao"/><use transform="matrix(0.010850694444444444,0,0,0.010850694444444444,41.41710069444444,0)" xlink:href="#ap"/><use transform="matrix(0.010850694444444444,0,0,0.010850694444444444,56.74913194444444,0)" xlink:href="#W"/><use transform="matrix(0.010850694444444444,0,0,0.010850694444444444,71.05034722222221,0)" xlink:href="#ao"/><use transform="matrix(0.010850694444444444,0,0,0.010850694444444444,85.39496527777777,0)" xlink:href="#aq"/></g><path d="M653-1490V0H466v-1314h-10L96-1047v-204l324-239h233" id="ar"/><g id="q"><use transform="matrix(0.010850694444444444,0,0,0.010850694444444444,0,0)" xlink:href="#an"/><use transform="matrix(0.010850694444444444,0,0,0.010850694444444444,14.702690972222221,0)" xlink:href="#ac"/><use transform="matrix(0.010850694444444444,0,0,0.010850694444444444,28.96050347222222,0)" xlink:href="#Y"/><use transform="matrix(0.010850694444444444,0,0,0.010850694444444444,34.342447916666664,0)" xlink:href="#H"/><use transform="matrix(0.010850694444444444,0,0,0.010850694444444444,47.265625,0)" xlink:href="#aa"/><use transform="matrix(0.010850694444444444,0,0,0.010850694444444444,65.04991319444444,0)" xlink:href="#H"/><use transform="matrix(0.00759548611111111,0,0,0.00759548611111111,78.37456597222221,3.7673611111111107)" xlink:href="#ar"/><use transform="matrix(0.010850694444444444,0,0,0.010850694444444444,84.70160590277777,0)" xlink:href="#aq"/></g><path d="M295 13c-75 0-135-60-135-135s60-135 135-135 135 60 135 135S370 13 295 13" id="as"/><g id="r"><use transform="matrix(0.010850694444444444,0,0,0.010850694444444444,0,0)" xlink:href="#as"/><use transform="matrix(0.010850694444444444,0,0,0.010850694444444444,6.401909722222222,0)" xlink:href="#as"/><use transform="matrix(0.010850694444444444,0,0,0.010850694444444444,12.803819444444445,0)" xlink:href="#as"/><use transform="matrix(0.010850694444444444,0,0,0.010850694444444444,19.205729166666668,0)" xlink:href="#as"/><use transform="matrix(0.010850694444444444,0,0,0.010850694444444444,25.60763888888889,0)" xlink:href="#as"/><use transform="matrix(0.010850694444444444,0,0,0.010850694444444444,32.009548611111114,0)" xlink:href="#as"/></g><path d="M593-100v-404H195v-159h398v-403h169v403h398v159H762v404H593" id="at"/><g id="s"><use transform="matrix(0.010850694444444444,0,0,0.010850694444444444,0,0)" xlink:href="#an"/><use transform="matrix(0.010850694444444444,0,0,0.010850694444444444,14.702690972222221,0)" xlink:href="#ac"/><use transform="matrix(0.010850694444444444,0,0,0.010850694444444444,28.96050347222222,0)" xlink:href="#Y"/><use transform="matrix(0.010850694444444444,0,0,0.010850694444444444,34.342447916666664,0)" xlink:href="#H"/><use transform="matrix(0.010850694444444444,0,0,0.010850694444444444,47.265625,0)" xlink:href="#aa"/><use transform="matrix(0.010850694444444444,0,0,0.010850694444444444,65.04991319444444,0)" xlink:href="#H"/><use transform="matrix(0.00759548611111111,0,0,0.00759548611111111,78.37456597222221,3.7673611111111107)" xlink:href="#K"/><use transform="matrix(0.00759548611111111,0,0,0.00759548611111111,87.56510416666666,3.7673611111111107)" xlink:href="#at"/><use transform="matrix(0.00759548611111111,0,0,0.00759548611111111,97.85698784722221,3.7673611111111107)" xlink:href="#ar"/><use transform="matrix(0.010850694444444444,0,0,0.010850694444444444,104.18402777777777,0)" xlink:href="#aq"/></g><g id="t"><use transform="matrix(0.010850694444444444,0,0,0.010850694444444444,0,0)" xlink:href="#an"/><use transform="matrix(0.010850694444444444,0,0,0.010850694444444444,14.702690972222221,0)" xlink:href="#ac"/><use transform="matrix(0.010850694444444444,0,0,0.010850694444444444,28.96050347222222,0)" xlink:href="#Y"/><use transform="matrix(0.010850694444444444,0,0,0.010850694444444444,34.342447916666664,0)" xlink:href="#H"/><use transform="matrix(0.010850694444444444,0,0,0.010850694444444444,47.265625,0)" xlink:href="#aa"/><use transform="matrix(0.010850694444444444,0,0,0.010850694444444444,65.04991319444444,0)" xlink:href="#H"/><use transform="matrix(0.00759548611111111,0,0,0.00759548611111111,78.37456597222221,3.7673611111111107)" xlink:href="#K"/><use transform="matrix(0.010850694444444444,0,0,0.010850694444444444,87.56510416666666,0)" xlink:href="#aq"/></g><path d="M180 0v-1490h510c348 0 508 209 508 474 0 266-160 477-507 477H370V0H180zm190-706h312c236 0 327-133 327-310 0-176-91-307-329-307H370v617" id="au"/><g id="u"><use transform="matrix(0.010850694444444444,0,0,0.010850694444444444,0,0)" xlink:href="#an"/><use transform="matrix(0.010850694444444444,0,0,0.010850694444444444,14.702690972222221,0)" xlink:href="#ac"/><use transform="matrix(0.010850694444444444,0,0,0.010850694444444444,28.96050347222222,0)" xlink:href="#ao"/><use transform="matrix(0.010850694444444444,0,0,0.010850694444444444,42.643229166666664,0)" xlink:href="#B"/><use transform="matrix(0.010850694444444444,0,0,0.010850694444444444,59.635416666666664,0)" xlink:href="#au"/><use transform="matrix(0.010850694444444444,0,0,0.010850694444444444,73.828125,0)" xlink:href="#aq"/></g><path d="M180 0v-1490h270l367 940c28 72 75 218 110 339 35-117 81-264 110-339l362-940h271V0h-187c2-448-5-837 7-1287-157 497-311 829-483 1287H842C666-458 514-784 354-1284c12 438 5 843 7 1284H180" id="av"/><path d="M338-1490V0H158v-1490h180" id="aw"/><g id="v"><use transform="matrix(0.010850694444444444,0,0,0.010850694444444444,0,0)" xlink:href="#av"/><use transform="matrix(0.010850694444444444,0,0,0.010850694444444444,20.07378472222222,0)" xlink:href="#H"/><use transform="matrix(0.010850694444444444,0,0,0.010850694444444444,33.3984375,0)" xlink:href="#U"/><use transform="matrix(0.010850694444444444,0,0,0.010850694444444444,47.00520833333333,0)" xlink:href="#L"/><use transform="matrix(0.010850694444444444,0,0,0.010850694444444444,59.960937499999986,0)" xlink:href="#aw"/><use transform="matrix(0.010850694444444444,0,0,0.010850694444444444,65.34288194444444,0)" xlink:href="#L"/></g><g id="w"><use transform="matrix(0.010850694444444444,0,0,0.010850694444444444,0,0)" xlink:href="#C"/><use transform="matrix(0.010850694444444444,0,0,0.010850694444444444,13.823784722222221,0)" xlink:href="#E"/><use transform="matrix(0.010850694444444444,0,0,0.010850694444444444,26.302083333333332,0)" xlink:href="#F"/><use transform="matrix(0.010850694444444444,0,0,0.010850694444444444,38.248697916666664,0)" xlink:href="#H"/><use transform="matrix(0.010850694444444444,0,0,0.010850694444444444,51.171875,0)" xlink:href="#aa"/><use transform="matrix(0.010850694444444444,0,0,0.010850694444444444,68.95616319444444,0)" xlink:href="#L"/><use transform="matrix(0.010850694444444444,0,0,0.010850694444444444,81.91189236111111,0)" xlink:href="#Q"/></g><path d="M458 0L52-1490h194c108 439 233 855 324 1313 92-459 221-873 331-1313h216c110 438 234 854 330 1307 92-455 216-869 323-1307h196L1558 0h-221l-256-944c-26-95-50-200-73-331-22 122-44 223-73 331L680 0H458" id="ax"/><g id="x"><use transform="matrix(0.010850694444444444,0,0,0.010850694444444444,0,0)" xlink:href="#ax"/><use transform="matrix(0.010850694444444444,0,0,0.010850694444444444,20.768229166666668,0)" xlink:href="#E"/><use transform="matrix(0.010850694444444444,0,0,0.010850694444444444,33.24652777777778,0)" xlink:href="#D"/><use transform="matrix(0.010850694444444444,0,0,0.010850694444444444,41.61241319444444,0)" xlink:href="#O"/><use transform="matrix(0.010850694444444444,0,0,0.010850694444444444,53.342013888888886,0)" xlink:href="#M"/><use transform="matrix(0.010850694444444444,0,0,0.010850694444444444,60.9375,0)" xlink:href="#aa"/><use transform="matrix(0.010850694444444444,0,0,0.010850694444444444,79.12326388888889,0)" xlink:href="#V"/></g><g id="y"><use transform="matrix(0.010850694444444444,0,0,0.010850694444444444,0,0)" xlink:href="#M"/><use transform="matrix(0.010850694444444444,0,0,0.010850694444444444,7.269965277777778,0)" xlink:href="#D"/><use transform="matrix(0.010850694444444444,0,0,0.010850694444444444,15.266927083333332,0)" xlink:href="#L"/><use transform="matrix(0.010850694444444444,0,0,0.010850694444444444,28.22265625,0)" xlink:href="#K"/><use transform="matrix(0.010850694444444444,0,0,0.010850694444444444,41.35199652777778,0)" xlink:href="#H"/><use transform="matrix(0.010850694444444444,0,0,0.010850694444444444,54.27517361111112,0)" xlink:href="#aa"/><use transform="matrix(0.010850694444444444,0,0,0.010850694444444444,72.4609375,0)" xlink:href="#E"/><use transform="matrix(0.010850694444444444,0,0,0.010850694444444444,84.93923611111111,0)" xlink:href="#K"/><use transform="matrix(0.010850694444444444,0,0,0.010850694444444444,98.06857638888889,0)" xlink:href="#L"/></g><path d="M601 0v-560L49-1490h357l252 464c38 68 67 130 97 208 96-243 225-446 337-672h356L905-560V0H601" id="ay"/><g id="z"><use transform="matrix(0.010850694444444444,0,0,0.010850694444444444,0,0)" xlink:href="#ai"/><use transform="matrix(0.010850694444444444,0,0,0.010850694444444444,23.057725694444443,0)" xlink:href="#ay"/><use transform="matrix(0.010850694444444444,0,0,0.010850694444444444,38.55251736111111,0)" xlink:href="#aj"/><use transform="matrix(0.010850694444444444,0,0,0.010850694444444444,51.54079861111111,0)" xlink:href="#ak"/><use transform="matrix(0.010850694444444444,0,0,0.010850694444444444,66.09157986111111,0)" xlink:href="#al"/><use transform="matrix(0.010850694444444444,0,0,0.010850694444444444,82.53038194444444,0)" xlink:href="#am"/><use transform="matrix(0.010850694444444444,0,0,0.010850694444444444,88.76953125,0)" xlink:href="#ag"/></g><path d="M180 0v-1490h908v168H370v486h669v168H370v500h727V0H180" id="az"/><path d="M545 20c-263 0-445-160-445-446v-80h190v80c0 182 102 279 255 279 152 0 254-97 254-279v-1064h190v1064c0 286-181 446-444 446" id="aA"/><path d="M657 26c-323 0-524-166-541-416h195c15 169 171 246 346 246 202 0 356-106 356-265 5-203-294-238-475-293-239-73-380-191-380-389 0-252 224-419 512-419 294 0 499 171 508 396H992c-17-145-151-228-328-228-193 0-321 102-321 242 0 156 175 211 284 241l149 41c160 44 422 134 422 412 0 244-197 432-541 432zm-80-1662l140-294h201l-194 294H577" id="aB"/><path d="M783 20c-382 0-661-292-661-764 0-473 279-766 661-766 302 0 548 182 601 489h-190c-42-204-217-313-411-313-268 0-476 208-476 590 0 381 209 588 476 588 195 0 369-110 411-313h190c-52 303-296 489-601 489" id="aC"/><path d="M370-1490V0H180v-1490h190" id="aD"/><path d="M692-1560L212 224H46l480-1784h166" id="aE"/><path d="M600 0v-610L52-1490h220l295 481c50 82 90 150 130 243 40-96 80-164 128-243l294-481h219L790-610V0H600" id="aF"/><g id="A"><use transform="matrix(0.010850694444444444,0,0,0.010850694444444444,0,0)" xlink:href="#ax"/><use transform="matrix(0.010850694444444444,0,0,0.010850694444444444,21.89670138888889,0)" xlink:href="#az"/><use transform="matrix(0.010850694444444444,0,0,0.010850694444444444,35.25390625,0)" xlink:href="#aA"/><use transform="matrix(0.010850694444444444,0,0,0.010850694444444444,47.93836805555556,0)" xlink:href="#aB"/><use transform="matrix(0.010850694444444444,0,0,0.010850694444444444,62.19618055555555,0)" xlink:href="#aC"/><use transform="matrix(0.010850694444444444,0,0,0.010850694444444444,78.42881944444444,0)" xlink:href="#aD"/><use transform="matrix(0.010850694444444444,0,0,0.010850694444444444,84.39670138888889,0)" xlink:href="#az"/><use transform="matrix(0.010850694444444444,0,0,0.010850694444444444,97.75390625,0)" xlink:href="#aE"/><use transform="matrix(0.010850694444444444,0,0,0.010850694444444444,105.76171875,0)" xlink:href="#ax"/><use transform="matrix(0.010850694444444444,0,0,0.010850694444444444,127.65842013888889,0)" xlink:href="#aF"/><use transform="matrix(0.010850694444444444,0,0,0.010850694444444444,141.9921875,0)" xlink:href="#aA"/><use transform="matrix(0.010850694444444444,0,0,0.010850694444444444,154.67664930555554,0)" xlink:href="#aB"/><use transform="matrix(0.010850694444444444,0,0,0.010850694444444444,168.93446180555554,0)" xlink:href="#aC"/><use transform="matrix(0.010850694444444444,0,0,0.010850694444444444,185.16710069444443,0)" xlink:href="#aD"/><use transform="matrix(0.010850694444444444,0,0,0.010850694444444444,191.13498263888889,0)" xlink:href="#az"/></g></defs></g></svg>