<svg xmlns="http://www.w3.org/2000/svg" xmlns:xlink="http://www.w3.org/1999/xlink" xmlns:lucid="lucid" width="593.84" height="311.89"><g transform="translate(983.3183765729223 63.051669372928586)" lucid:page-tab-id="0_0"><path d="M-950.58 103a8 8 0 0 1 8-8h64a8 8 0 0 1 8 8v44a8 8 0 0 1-8 8h-64a8 8 0 0 1-8-8z" stroke="#000" stroke-opacity="0" fill="#f2f2ff"/><use xlink:href="#a" transform="matrix(1,0,0,1,-945.5778830054367,100.00472055939133) translate(16.629629629629626 28.851666666666667)"/><path d="M-861.58 103a8 8 0 0 1 8-8h64a8 8 0 0 1 8 8v44a8 8 0 0 1-8 8h-64a8 8 0 0 1-8-8z" stroke="#000" stroke-opacity="0" fill="#f2f2ff"/><use xlink:href="#b" transform="matrix(1,0,0,1,-856.5778830054367,100.00472055939133) translate(16.629629629629626 28.851666666666667)"/><path d="M-772.58 103a8 8 0 0 1 8-8h64a8 8 0 0 1 8 8v44a8 8 0 0 1-8 8h-64a8 8 0 0 1-8-8z" stroke="#000" stroke-opacity="0" fill="#f2f2ff"/><use xlink:href="#c" transform="matrix(1,0,0,1,-767.5778830054367,100.00472055939133) translate(16.629629629629626 28.851666666666667)"/><path d="M-594.58 103a8 8 0 0 1 8-8h64a8 8 0 0 1 8 8v44a8 8 0 0 1-8 8h-64a8 8 0 0 1-8-8z" stroke="#000" stroke-opacity="0" fill="#f2f2ff"/><use xlink:href="#d" transform="matrix(1,0,0,1,-589.5778830054367,100.00472055939133) translate(16.629629629629626 28.851666666666667)"/><path d="M-683.58 103a8 8 0 0 1 8-8h64a8 8 0 0 1 8 8v44a8 8 0 0 1-8 8h-64a8 8 0 0 1-8-8z" stroke="#000" stroke-opacity="0" fill="#f2f2ff"/><use xlink:href="#e" transform="matrix(1,0,0,1,-678.5778830054367,100.00472055939133) translate(16.629629629629626 28.851666666666667)"/><path d="M-505.58 103a8 8 0 0 1 8-8h64a8 8 0 0 1 8 8v44a8 8 0 0 1-8 8h-64a8 8 0 0 1-8-8z" stroke="#000" stroke-opacity="0" fill="#f2f2ff"/><use xlink:href="#f" transform="matrix(1,0,0,1,-500.57788300543666,100.00472055939133) translate(16.629629629629626 28.851666666666667)"/><path d="M-982.82 213a8 8 0 0 1 8-8h128.48a8 8 0 0 1 8 8v13.9a8 8 0 0 1-8 8h-128.48a8 8 0 0 1-8-8z" stroke="#000" stroke-opacity="0" fill="#fff" fill-opacity="0"/><use xlink:href="#g" transform="matrix(1,0,0,1,-977.8183765729223,209.99532944060869) translate(39.944444444444436 13.226666666666668)"/><use xlink:href="#h" transform="matrix(1,0,0,1,-977.8183765729223,209.99532944060869) translate(23.893333333333324 33.06666666666667)"/><path d="M-889.32-54.55a8 8 0 0 1 8-8h121.56a8 8 0 0 1 8 8v74.02a8 8 0 0 1-8 8h-121.56a8 8 0 0 1-8-8z" stroke="#000" stroke-opacity="0" fill="#fff" fill-opacity="0"/><use xlink:href="#i" transform="matrix(1,0,0,1,-884.3183408593254,-57.551669372928586) translate(24.572592592592585 13.226666666666668)"/><use xlink:href="#j" transform="matrix(1,0,0,1,-884.3183408593254,-57.551669372928586) translate(19.97999999999999 33.06666666666667)"/><use xlink:href="#k" transform="matrix(1,0,0,1,-884.3183408593254,-57.551669372928586) translate(19.97999999999999 52.90666666666667)"/><use xlink:href="#l" transform="matrix(1,0,0,1,-884.3183408593254,-57.551669372928586) translate(20.393333333333324 72.74666666666668)"/><path d="M-804.82 213a8 8 0 0 1 8-8h128.48a8 8 0 0 1 8 8v19a8 8 0 0 1-8 8h-128.48a8 8 0 0 1-8-8z" stroke="#000" stroke-opacity="0" fill="#fff" fill-opacity="0"/><use xlink:href="#m" transform="matrix(1,0,0,1,-799.8183765414853,209.9953294406087) translate(30.80518518518518 13.226666666666668)"/><path d="M-732.58 155.5v33.1" stroke="#333" fill="none"/><path d="M-732.1 155.52h-.95V155h.95z" stroke="#333" stroke-width=".05" fill="#333"/><path d="M-732.58 203.38l-4.63-14.27h9.26z" stroke="#333" fill="#333"/><path d="M-626.82 213a8 8 0 0 1 8-8h128.48a8 8 0 0 1 8 8v6.73a8 8 0 0 1-8 8h-128.48a8 8 0 0 1-8-8z" stroke="#000" stroke-opacity="0" fill="#fff" fill-opacity="0"/><use xlink:href="#n" transform="matrix(1,0,0,1,-621.8183765100484,209.99532944060866) translate(20.28814814814814 13.226666666666668)"/><path d="M-712.7 8a8 8 0 0 1 8-8h119.12a8 8 0 0 1 8 8v11.47a8 8 0 0 1-8 8H-704.7a8 8 0 0 1-8-8z" stroke="#000" stroke-opacity="0" fill="#fff" fill-opacity="0"/><use xlink:href="#o" transform="matrix(1,0,0,1,-707.710840211229,5) translate(25.891851851851847 13.226666666666668)"/><path d="M-547.22-12a8 8 0 0 1 8-8h141.25a8 8 0 0 1 8 8v31.47a8 8 0 0 1-8 8h-141.25a8 8 0 0 1-8-8z" stroke="#000" stroke-opacity="0" fill="#fff" fill-opacity="0"/><use xlink:href="#p" transform="matrix(1,0,0,1,-542.2197257741307,-15.000052781678477) translate(35.46814814814814 13.226666666666668)"/><use xlink:href="#q" transform="matrix(1,0,0,1,-542.2197257741307,-15.000052781678477) translate(38.20074074074073 33.06666666666667)"/><path d="M-910.58 155.5v33.1" stroke="#333" fill="none"/><path d="M-910.1 155.52h-.95V155h.95z" stroke="#333" stroke-width=".05" fill="#333"/><path d="M-910.58 203.38l-4.63-14.27h9.26z" stroke="#333" fill="#333"/><path d="M-820.7 94.5l.12-50.65" stroke="#333" fill="none"/><path d="M-820.22 94.5v.5h-.95v-.5z" stroke="#333" stroke-width=".05" fill="#333"/><path d="M-820.54 29.09l4.6 14.26-9.27-.02z" stroke="#333" fill="#333"/><path d="M-644 94.5l-.72-50.65" stroke="#333" fill="none"/><path d="M-643.52 95h-.96v-.5l.95-.02z" stroke="#333" stroke-width=".05" fill="#333"/><path d="M-644.93 29.09l4.84 14.18-9.26.13z" stroke="#333" fill="#333"/><path d="M-554.58 155.5v33.1" stroke="#333" fill="none"/><path d="M-554.1 155.52h-.95V155h.95z" stroke="#333" stroke-width=".05" fill="#333"/><path d="M-554.58 203.38l-4.63-14.27h9.26z" stroke="#333" fill="#333"/><path d="M-465.58 94.5V43.85" stroke="#3a414a" fill="none"/><path d="M-465.1 95h-.95v-.5h.95z" stroke="#3a414a" stroke-width=".05" fill="#3a414a"/><path d="M-465.58 29.09l4.64 14.25h-9.27z" stroke="#3a414a" fill="#3a414a"/><defs><path d="M182-182c0 78-84 86-111 141h115V0H12c-6-101 99-100 120-180 1-22-12-31-33-32-23 0-32 14-35 34l-49-3c5-45 32-70 84-70 51 0 83 22 83 69" id="r"/><path d="M101-251c68 0 84 54 84 127C185-50 166 4 99 4S15-52 14-124c-1-75 17-127 87-127zm-1 216c37-5 36-46 36-89s4-89-36-89c-39 0-36 45-36 89 0 43-3 85 36 89" id="s"/><path d="M23 0v-37h61v-169l-59 37v-38l62-41h46v211h57V0H23" id="t"/><path d="M165-50V0h-47v-50H5v-38l105-160h55v161h33v37h-33zm-47-37l2-116L46-87h72" id="u"/><g id="a"><use transform="matrix(0.04592592592592593,0,0,0.04592592592592593,0,0)" xlink:href="#r"/><use transform="matrix(0.04592592592592593,0,0,0.04592592592592593,9.185185185185187,0)" xlink:href="#s"/><use transform="matrix(0.04592592592592593,0,0,0.04592592592592593,18.370370370370374,0)" xlink:href="#t"/><use transform="matrix(0.04592592592592593,0,0,0.04592592592592593,27.55555555555556,0)" xlink:href="#u"/></g><path d="M139-81c0-46-55-55-73-27H18l9-140h149v37H72l-4 63c44-38 133-4 122 66C201 21 21 35 11-62l49-4c5 18 15 30 39 30 26 0 40-18 40-45" id="v"/><g id="b"><use transform="matrix(0.04592592592592593,0,0,0.04592592592592593,0,0)" xlink:href="#r"/><use transform="matrix(0.04592592592592593,0,0,0.04592592592592593,9.185185185185187,0)" xlink:href="#s"/><use transform="matrix(0.04592592592592593,0,0,0.04592592592592593,18.370370370370374,0)" xlink:href="#t"/><use transform="matrix(0.04592592592592593,0,0,0.04592592592592593,27.55555555555556,0)" xlink:href="#v"/></g><path d="M115-159c48 0 72 30 72 78 0 54-30 85-83 85-64 0-91-50-91-122 0-98 58-163 141-120 15 8 21 24 27 44l-47 6c-5-31-48-31-61-4-7 14-11 33-11 60 9-17 28-27 53-27zM102-35c24 0 36-20 36-45s-11-43-37-43c-23 0-36 14-36 38 0 27 11 50 37 50" id="w"/><g id="c"><use transform="matrix(0.04592592592592593,0,0,0.04592592592592593,0,0)" xlink:href="#r"/><use transform="matrix(0.04592592592592593,0,0,0.04592592592592593,9.185185185185187,0)" xlink:href="#s"/><use transform="matrix(0.04592592592592593,0,0,0.04592592592592593,18.370370370370374,0)" xlink:href="#t"/><use transform="matrix(0.04592592592592593,0,0,0.04592592592592593,27.55555555555556,0)" xlink:href="#w"/></g><path d="M138-131c27 9 52 24 51 61 0 53-36 74-89 74S11-19 11-69c0-35 22-54 51-61-78-25-46-121 38-121 51 0 83 19 83 66 0 30-18 49-45 54zm-38-16c24 0 32-13 32-36 1-23-11-34-32-34-22 0-33 12-32 34 0 22 9 36 32 36zm1 116c27 0 37-17 37-43 0-25-13-39-39-39-24 0-37 15-37 40 0 27 11 42 39 42" id="x"/><g id="d"><use transform="matrix(0.04592592592592593,0,0,0.04592592592592593,0,0)" xlink:href="#r"/><use transform="matrix(0.04592592592592593,0,0,0.04592592592592593,9.185185185185187,0)" xlink:href="#s"/><use transform="matrix(0.04592592592592593,0,0,0.04592592592592593,18.370370370370374,0)" xlink:href="#t"/><use transform="matrix(0.04592592592592593,0,0,0.04592592592592593,27.55555555555556,0)" xlink:href="#x"/></g><path d="M52 0c1-96 47-148 87-207H15v-41h169v40c-36 62-79 113-81 208H52" id="y"/><g id="e"><use transform="matrix(0.04592592592592593,0,0,0.04592592592592593,0,0)" xlink:href="#r"/><use transform="matrix(0.04592592592592593,0,0,0.04592592592592593,9.185185185185187,0)" xlink:href="#s"/><use transform="matrix(0.04592592592592593,0,0,0.04592592592592593,18.370370370370374,0)" xlink:href="#t"/><use transform="matrix(0.04592592592592593,0,0,0.04592592592592593,27.55555555555556,0)" xlink:href="#y"/></g><g id="f"><use transform="matrix(0.04592592592592593,0,0,0.04592592592592593,0,0)" xlink:href="#r"/><use transform="matrix(0.04592592592592593,0,0,0.04592592592592593,9.185185185185187,0)" xlink:href="#s"/><use transform="matrix(0.04592592592592593,0,0,0.04592592592592593,18.370370370370374,0)" xlink:href="#r"/><use transform="matrix(0.04592592592592593,0,0,0.04592592592592593,27.55555555555556,0)" xlink:href="#s"/></g><path d="M137 0h-34L2-248h35l83 218 83-218h36" id="z"/><path d="M143 4C61 4 22-44 18-125c-5-107 100-154 193-111 17 8 29 25 37 43l-32 9c-13-25-37-40-76-40-61 0-88 39-88 99 0 61 29 100 91 101 35 0 62-11 79-27v-45h-74v-28h105v86C228-13 192 4 143 4" id="A"/><path d="M27 0v-27h64v-190l-56 39v-29l58-41h29v221h61V0H27" id="B"/><path d="M110-160c48 1 74 30 74 79 0 53-28 85-80 85-65 0-83-55-86-122-5-90 50-162 133-122 14 7 22 21 27 39l-31 6c-5-40-67-38-82-6-9 19-15 44-15 74 11-20 30-34 60-33zm-7 138c34 0 49-23 49-58s-16-56-50-56c-29 0-50 16-49 49 1 36 15 65 50 65" id="C"/><g id="g"><use transform="matrix(0.04592592592592593,0,0,0.04592592592592593,0,0)" xlink:href="#z"/><use transform="matrix(0.04592592592592593,0,0,0.04592592592592593,11.022222222222224,0)" xlink:href="#A"/><use transform="matrix(0.04592592592592593,0,0,0.04592592592592593,23.881481481481487,0)" xlink:href="#A"/><use transform="matrix(0.04592592592592593,0,0,0.04592592592592593,36.74074074074075,0)" xlink:href="#B"/><use transform="matrix(0.04592592592592593,0,0,0.04592592592592593,45.92592592592594,0)" xlink:href="#C"/></g><path d="M33 0v-248h34V0H33" id="D"/><path d="M117-194c89-4 53 116 60 194h-32v-121c0-31-8-49-39-48C34-167 62-67 57 0H25l-1-190h30c1 10-1 24 2 32 11-22 29-35 61-36" id="E"/><path d="M96-169c-40 0-48 33-48 73s9 75 48 75c24 0 41-14 43-38l32 2c-6 37-31 61-74 61-59 0-76-41-82-99-10-93 101-131 147-64 4 7 5 14 7 22l-32 3c-4-21-16-35-41-35" id="F"/><path d="M100-194c63 0 86 42 84 106H49c0 40 14 67 53 68 26 1 43-12 49-29l28 8c-11 28-37 45-77 45C44 4 14-33 15-96c1-61 26-98 85-98zm52 81c6-60-76-77-97-28-3 7-6 17-6 28h103" id="G"/><path d="M115-194c55 1 70 41 70 98S169 2 115 4C84 4 66-9 55-30l1 105H24l-1-265h31l2 30c10-21 28-34 59-34zm-8 174c40 0 45-34 45-75s-6-73-45-74c-42 0-51 32-51 76 0 43 10 73 51 73" id="H"/><path d="M59-47c-2 24 18 29 38 22v24C64 9 27 4 27-40v-127H5v-23h24l9-43h21v43h35v23H59v120" id="I"/><path d="M24-231v-30h32v30H24zM24 0v-190h32V0H24" id="J"/><path d="M100-194c62-1 85 37 85 99 1 63-27 99-86 99S16-35 15-95c0-66 28-99 85-99zM99-20c44 1 53-31 53-75 0-43-8-75-51-75s-53 32-53 75 10 74 51 75" id="K"/><g id="h"><use transform="matrix(0.04592592592592593,0,0,0.04592592592592593,0,0)" xlink:href="#D"/><use transform="matrix(0.04592592592592593,0,0,0.04592592592592593,4.5925925925925934,0)" xlink:href="#E"/><use transform="matrix(0.04592592592592593,0,0,0.04592592592592593,13.77777777777778,0)" xlink:href="#F"/><use transform="matrix(0.04592592592592593,0,0,0.04592592592592593,22.044444444444448,0)" xlink:href="#G"/><use transform="matrix(0.04592592592592593,0,0,0.04592592592592593,31.229629629629635,0)" xlink:href="#H"/><use transform="matrix(0.04592592592592593,0,0,0.04592592592592593,40.41481481481482,0)" xlink:href="#I"/><use transform="matrix(0.04592592592592593,0,0,0.04592592592592593,45.00740740740741,0)" xlink:href="#J"/><use transform="matrix(0.04592592592592593,0,0,0.04592592592592593,48.63555555555556,0)" xlink:href="#K"/><use transform="matrix(0.04592592592592593,0,0,0.04592592592592593,57.820740740740746,0)" xlink:href="#E"/><use transform="matrix(0.04592592592592593,0,0,0.04592592592592593,67.00592592592594,0)" xlink:href="#z"/><use transform="matrix(0.04592592592592593,0,0,0.04592592592592593,78.02814814814816,0)" xlink:href="#B"/></g><path d="M233-177c-1 41-23 64-60 70L243 0h-38l-65-103H63V0H30v-248c88 3 205-21 203 71zM63-129c60-2 137 13 137-47 0-61-80-42-137-45v92" id="L"/><path d="M135-143c-3-34-86-38-87 0 15 53 115 12 119 90S17 21 10-45l28-5c4 36 97 45 98 0-10-56-113-15-118-90-4-57 82-63 122-42 12 7 21 19 24 35" id="M"/><path d="M190 0L58-211 59 0H30v-248h39L202-35l-2-213h31V0h-41" id="N"/><path d="M16-82v-28h88v28H16" id="O"/><path d="M54-142c48-35 137-8 131 61C196 18 31 33 14-55l32-4c7 23 22 37 52 37 35-1 51-22 54-58 4-55-73-65-99-34H22l8-134h141v27H59" id="P"/><path d="M101-251c68 0 85 55 85 127S166 4 100 4C33 4 14-52 14-124c0-73 17-127 87-127zm-1 229c47 0 54-49 54-102s-4-102-53-102c-51 0-55 48-55 102 0 53 5 102 54 102" id="Q"/><g id="i"><use transform="matrix(0.04592592592592593,0,0,0.04592592592592593,0,0)" xlink:href="#L"/><use transform="matrix(0.04592592592592593,0,0,0.04592592592592593,11.894814814814817,0)" xlink:href="#G"/><use transform="matrix(0.04592592592592593,0,0,0.04592592592592593,21.080000000000005,0)" xlink:href="#M"/><use transform="matrix(0.04592592592592593,0,0,0.04592592592592593,29.34666666666667,0)" xlink:href="#N"/><use transform="matrix(0.04592592592592593,0,0,0.04592592592592593,41.241481481481486,0)" xlink:href="#G"/><use transform="matrix(0.04592592592592593,0,0,0.04592592592592593,50.42666666666668,0)" xlink:href="#I"/><use transform="matrix(0.04592592592592593,0,0,0.04592592592592593,55.019259259259265,0)" xlink:href="#O"/><use transform="matrix(0.04592592592592593,0,0,0.04592592592592593,60.484444444444456,0)" xlink:href="#P"/><use transform="matrix(0.04592592592592593,0,0,0.04592592592592593,69.66962962962964,0)" xlink:href="#Q"/></g><g id="j"><use transform="matrix(0.04592592592592593,0,0,0.04592592592592593,0,0)" xlink:href="#L"/><use transform="matrix(0.04592592592592593,0,0,0.04592592592592593,11.894814814814817,0)" xlink:href="#G"/><use transform="matrix(0.04592592592592593,0,0,0.04592592592592593,21.080000000000005,0)" xlink:href="#M"/><use transform="matrix(0.04592592592592593,0,0,0.04592592592592593,29.34666666666667,0)" xlink:href="#N"/><use transform="matrix(0.04592592592592593,0,0,0.04592592592592593,41.241481481481486,0)" xlink:href="#G"/><use transform="matrix(0.04592592592592593,0,0,0.04592592592592593,50.42666666666668,0)" xlink:href="#I"/><use transform="matrix(0.04592592592592593,0,0,0.04592592592592593,55.019259259259265,0)" xlink:href="#O"/><use transform="matrix(0.04592592592592593,0,0,0.04592592592592593,60.484444444444456,0)" xlink:href="#B"/><use transform="matrix(0.04592592592592593,0,0,0.04592592592592593,69.66962962962964,0)" xlink:href="#Q"/><use transform="matrix(0.04592592592592593,0,0,0.04592592592592593,78.85481481481483,0)" xlink:href="#B"/></g><path d="M101-251c82-7 93 87 43 132L82-64C71-53 59-42 53-27h129V0H18c2-99 128-94 128-182 0-28-16-43-45-43s-46 15-49 41l-32-3c6-41 34-60 81-64" id="R"/><g id="k"><use transform="matrix(0.04592592592592593,0,0,0.04592592592592593,0,0)" xlink:href="#L"/><use transform="matrix(0.04592592592592593,0,0,0.04592592592592593,11.894814814814817,0)" xlink:href="#G"/><use transform="matrix(0.04592592592592593,0,0,0.04592592592592593,21.080000000000005,0)" xlink:href="#M"/><use transform="matrix(0.04592592592592593,0,0,0.04592592592592593,29.34666666666667,0)" xlink:href="#N"/><use transform="matrix(0.04592592592592593,0,0,0.04592592592592593,41.241481481481486,0)" xlink:href="#G"/><use transform="matrix(0.04592592592592593,0,0,0.04592592592592593,50.42666666666668,0)" xlink:href="#I"/><use transform="matrix(0.04592592592592593,0,0,0.04592592592592593,55.019259259259265,0)" xlink:href="#O"/><use transform="matrix(0.04592592592592593,0,0,0.04592592592592593,60.484444444444456,0)" xlink:href="#B"/><use transform="matrix(0.04592592592592593,0,0,0.04592592592592593,69.66962962962964,0)" xlink:href="#P"/><use transform="matrix(0.04592592592592593,0,0,0.04592592592592593,78.85481481481483,0)" xlink:href="#R"/></g><path d="M126-127c33 6 58 20 58 59 0 88-139 92-164 29-3-8-5-16-6-25l32-3c6 27 21 44 54 44 32 0 52-15 52-46 0-38-36-46-79-43v-28c39 1 72-4 72-42 0-27-17-43-46-43-28 0-47 15-49 41l-32-3c6-42 35-63 81-64 48-1 79 21 79 65 0 36-21 52-52 59" id="S"/><g id="l"><use transform="matrix(0.04592592592592593,0,0,0.04592592592592593,0,0)" xlink:href="#D"/><use transform="matrix(0.04592592592592593,0,0,0.04592592592592593,4.5925925925925934,0)" xlink:href="#E"/><use transform="matrix(0.04592592592592593,0,0,0.04592592592592593,13.77777777777778,0)" xlink:href="#F"/><use transform="matrix(0.04592592592592593,0,0,0.04592592592592593,22.044444444444448,0)" xlink:href="#G"/><use transform="matrix(0.04592592592592593,0,0,0.04592592592592593,31.229629629629635,0)" xlink:href="#H"/><use transform="matrix(0.04592592592592593,0,0,0.04592592592592593,40.41481481481482,0)" xlink:href="#I"/><use transform="matrix(0.04592592592592593,0,0,0.04592592592592593,45.00740740740741,0)" xlink:href="#J"/><use transform="matrix(0.04592592592592593,0,0,0.04592592592592593,48.63555555555556,0)" xlink:href="#K"/><use transform="matrix(0.04592592592592593,0,0,0.04592592592592593,57.820740740740746,0)" xlink:href="#E"/><use transform="matrix(0.04592592592592593,0,0,0.04592592592592593,67.00592592592594,0)" xlink:href="#z"/><use transform="matrix(0.04592592592592593,0,0,0.04592592592592593,78.02814814814816,0)" xlink:href="#S"/></g><path d="M30-248c118-7 216 8 213 122C240-48 200 0 122 0H30v-248zM63-27c89 8 146-16 146-99s-60-101-146-95v194" id="T"/><g id="m"><use transform="matrix(0.04592592592592593,0,0,0.04592592592592593,0,0)" xlink:href="#T"/><use transform="matrix(0.04592592592592593,0,0,0.04592592592592593,11.894814814814817,0)" xlink:href="#G"/><use transform="matrix(0.04592592592592593,0,0,0.04592592592592593,21.080000000000005,0)" xlink:href="#E"/><use transform="matrix(0.04592592592592593,0,0,0.04592592592592593,30.265185185185196,0)" xlink:href="#M"/><use transform="matrix(0.04592592592592593,0,0,0.04592592592592593,38.53185185185186,0)" xlink:href="#G"/><use transform="matrix(0.04592592592592593,0,0,0.04592592592592593,47.717037037037045,0)" xlink:href="#N"/><use transform="matrix(0.04592592592592593,0,0,0.04592592592592593,59.61185185185186,0)" xlink:href="#G"/><use transform="matrix(0.04592592592592593,0,0,0.04592592592592593,68.79703703703704,0)" xlink:href="#I"/></g><path d="M240 0l2-218c-23 76-54 145-80 218h-23L58-218 59 0H30v-248h44l77 211c21-75 51-140 76-211h43V0h-30" id="U"/><path d="M115-194c53 0 69 39 70 98 0 66-23 100-70 100C84 3 66-7 56-30L54 0H23l1-261h32v101c10-23 28-34 59-34zm-8 174c40 0 45-34 45-75 0-40-5-75-45-74-42 0-51 32-51 76 0 43 10 73 51 73" id="V"/><path d="M24 0v-261h32V0H24" id="W"/><g id="n"><use transform="matrix(0.04592592592592593,0,0,0.04592592592592593,0,0)" xlink:href="#U"/><use transform="matrix(0.04592592592592593,0,0,0.04592592592592593,13.731851851851854,0)" xlink:href="#K"/><use transform="matrix(0.04592592592592593,0,0,0.04592592592592593,22.91703703703704,0)" xlink:href="#V"/><use transform="matrix(0.04592592592592593,0,0,0.04592592592592593,32.102222222222224,0)" xlink:href="#J"/><use transform="matrix(0.04592592592592593,0,0,0.04592592592592593,35.73037037037037,0)" xlink:href="#W"/><use transform="matrix(0.04592592592592593,0,0,0.04592592592592593,39.35851851851852,0)" xlink:href="#G"/><use transform="matrix(0.04592592592592593,0,0,0.04592592592592593,48.54370370370371,0)" xlink:href="#N"/><use transform="matrix(0.04592592592592593,0,0,0.04592592592592593,60.43851851851853,0)" xlink:href="#G"/><use transform="matrix(0.04592592592592593,0,0,0.04592592592592593,69.62370370370371,0)" xlink:href="#I"/><use transform="matrix(0.04592592592592593,0,0,0.04592592592592593,74.2162962962963,0)" xlink:href="#z"/><use transform="matrix(0.04592592592592593,0,0,0.04592592592592593,85.23851851851853,0)" xlink:href="#R"/></g><g id="o"><use transform="matrix(0.04592592592592593,0,0,0.04592592592592593,0,0)" xlink:href="#U"/><use transform="matrix(0.04592592592592593,0,0,0.04592592592592593,13.731851851851854,0)" xlink:href="#K"/><use transform="matrix(0.04592592592592593,0,0,0.04592592592592593,22.91703703703704,0)" xlink:href="#V"/><use transform="matrix(0.04592592592592593,0,0,0.04592592592592593,32.102222222222224,0)" xlink:href="#J"/><use transform="matrix(0.04592592592592593,0,0,0.04592592592592593,35.73037037037037,0)" xlink:href="#W"/><use transform="matrix(0.04592592592592593,0,0,0.04592592592592593,39.35851851851852,0)" xlink:href="#G"/><use transform="matrix(0.04592592592592593,0,0,0.04592592592592593,48.54370370370371,0)" xlink:href="#N"/><use transform="matrix(0.04592592592592593,0,0,0.04592592592592593,60.43851851851853,0)" xlink:href="#G"/><use transform="matrix(0.04592592592592593,0,0,0.04592592592592593,69.62370370370371,0)" xlink:href="#I"/></g><path d="M177-190C167-65 218 103 67 71c-23-6-38-20-44-43l32-5c15 47 100 32 89-28v-30C133-14 115 1 83 1 29 1 15-40 15-95c0-56 16-97 71-98 29-1 48 16 59 35 1-10 0-23 2-32h30zM94-22c36 0 50-32 50-73 0-42-14-75-50-75-39 0-46 34-46 75s6 73 46 73" id="X"/><g id="p"><use transform="matrix(0.04592592592592593,0,0,0.04592592592592593,0,0)" xlink:href="#L"/><use transform="matrix(0.04592592592592593,0,0,0.04592592592592593,11.894814814814817,0)" xlink:href="#G"/><use transform="matrix(0.04592592592592593,0,0,0.04592592592592593,21.080000000000005,0)" xlink:href="#X"/><use transform="matrix(0.04592592592592593,0,0,0.04592592592592593,30.265185185185196,0)" xlink:href="#E"/><use transform="matrix(0.04592592592592593,0,0,0.04592592592592593,39.45037037037038,0)" xlink:href="#G"/><use transform="matrix(0.04592592592592593,0,0,0.04592592592592593,48.63555555555557,0)" xlink:href="#I"/><use transform="matrix(0.04592592592592593,0,0,0.04592592592592593,53.228148148148165,0)" xlink:href="#O"/><use transform="matrix(0.04592592592592593,0,0,0.04592592592592593,58.69333333333335,0)" xlink:href="#B"/><use transform="matrix(0.04592592592592593,0,0,0.04592592592592593,67.87851851851853,0)" xlink:href="#C"/></g><g id="q"><use transform="matrix(0.04592592592592593,0,0,0.04592592592592593,0,0)" xlink:href="#L"/><use transform="matrix(0.04592592592592593,0,0,0.04592592592592593,11.894814814814817,0)" xlink:href="#G"/><use transform="matrix(0.04592592592592593,0,0,0.04592592592592593,21.080000000000005,0)" xlink:href="#X"/><use transform="matrix(0.04592592592592593,0,0,0.04592592592592593,30.265185185185196,0)" xlink:href="#E"/><use transform="matrix(0.04592592592592593,0,0,0.04592592592592593,39.45037037037038,0)" xlink:href="#G"/><use transform="matrix(0.04592592592592593,0,0,0.04592592592592593,48.63555555555557,0)" xlink:href="#I"/><use transform="matrix(0.04592592592592593,0,0,0.04592592592592593,53.228148148148165,0)" xlink:href="#S"/><use transform="matrix(0.04592592592592593,0,0,0.04592592592592593,62.413333333333355,0)" xlink:href="#R"/></g></defs></g></svg>